<svg width="1728" height="817" viewBox="0 0 1728 817" fill="none" xmlns="http://www.w3.org/2000/svg">
<path d="M-115.574 14.5148C-104.187 1.63111 -94.0529 -12.0485 -83.7195 -25.4188C-73.3743 -38.7835 -63.0174 -51.9706 -52.2743 -64.6825C-30.7881 -90.1062 -7.80403 -113.595 18.5388 -133.79C44.8932 -153.992 74.5128 -170.941 108.041 -184.14C141.569 -197.338 179.884 -207.25 220.598 -211.556C261.3 -215.862 300.457 -217.236 338.502 -216.715C376.56 -216.194 413.517 -213.766 449.959 -210.199C486.401 -206.626 527.162 -201.547 565.348 -195.718C603.533 -189.895 639.285 -183.476 673.691 -176.948C708.109 -170.414 741.157 -163.749 773.632 -157.325C806.107 -150.9 837.33 -144.069 870.531 -139.814C903.72 -135.566 936.241 -131.557 969.418 -128.236C1002.6 -124.915 1036.45 -122.293 1071.97 -120.672C1107.48 -119.046 1144.65 -118.427 1183.95 -118.8C1223.25 -119.178 1264.74 -120.569 1308.02 -122.459C1351.31 -124.348 1396.49 -126.398 1442.18 -128.895C1487.87 -131.391 1534.17 -134.283 1578.68 -135.451C1623.2 -136.613 1665.5 -134.981 1704.51 -131.46C1743.53 -127.938 1777.17 -121.502 1804.98 -115.49C1832.79 -109.478 1855.36 -102.973 1875.13 -96.2103C1894.89 -89.4478 1911.88 -82.4333 1929.27 -75.3616C1946.66 -68.2842 1964.51 -61.1667 1986.22 -54.1351C2007.93 -47.1035 2033.59 -40.1806 2065.95 -33.1834" stroke="#8F8F8F" stroke-width="0.5" stroke-miterlimit="10"/>
<path d="M-124.866 31.733C-112.613 19.4677 -101.028 6.61269 -90.4486 -6.37977C-79.7757 -19.4867 -69.4539 -32.7827 -58.7694 -45.5862C-37.4119 -71.1817 -15.048 -95.2198 10.5224 -116.108C36.0811 -136.991 64.7527 -154.771 97.4149 -168.725C130.077 -182.686 166.882 -193.777 208.005 -198.323C249.14 -202.87 288.684 -204.221 327.116 -203.5C365.547 -202.784 402.867 -199.99 439.637 -195.953C476.407 -191.922 517.437 -186.23 555.88 -179.805C594.335 -173.381 630.368 -166.378 665.078 -159.346C699.788 -152.314 733.176 -145.226 766.014 -138.503C798.852 -131.781 830.086 -124.457 864.117 -120.489C898.149 -116.515 931.806 -113.022 966.247 -110.319C1000.7 -107.622 1035.95 -105.727 1072.84 -104.834C1109.72 -103.941 1148.26 -104.049 1188.75 -105.046C1229.24 -106.048 1271.76 -107.955 1315.71 -110.125C1359.68 -112.295 1405.11 -114.356 1450.67 -116.589C1496.23 -118.823 1541.35 -119.974 1584.9 -120.048C1628.44 -120.122 1670.53 -119.132 1708.83 -115.736C1747.13 -112.341 1780.06 -105.069 1807.17 -99.0792C1834.27 -93.0897 1856.21 -86.7795 1875.52 -80.3377C1894.83 -73.8902 1911.52 -67.3052 1928.89 -60.7202C1946.25 -54.1352 1964.35 -47.556 1986.65 -41.0798C2008.96 -34.5979 2035.57 -28.2477 2069.3 -21.7886" stroke="#8F8F8F" stroke-width="0.5" stroke-miterlimit="10"/>
<path d="M-135.106 47.9893C-121.964 36.3654 -109.794 24.1517 -98.2663 11.6116C-86.7392 -0.928522 -75.961 -13.8695 -65.2413 -26.673C-43.8137 -52.28 -21.9179 -76.736 2.96205 -98.2145C27.8303 -119.693 55.6008 -138.228 87.4205 -152.916C119.24 -167.597 154.278 -179.863 195.799 -184.735C237.32 -189.608 277.238 -191.005 316.009 -190.141C354.792 -189.282 392.428 -186.161 429.502 -181.695C466.576 -177.229 507.828 -170.959 546.529 -163.944C585.23 -156.93 621.532 -149.354 656.546 -141.819C691.549 -134.283 725.253 -126.776 758.442 -119.75C791.631 -112.724 822.889 -104.931 857.646 -101.152C892.391 -97.3785 927.078 -94.3265 962.677 -92.1678C998.277 -90.009 1034.81 -88.7665 1072.95 -88.5088C1111.09 -88.2511 1150.85 -89.0012 1192.35 -90.5072C1233.86 -92.0189 1277.21 -94.315 1321.61 -96.6169C1366.01 -98.9188 1411.52 -100.843 1456.16 -101.793C1500.79 -102.738 1545.41 -103.797 1588.58 -103.757C1631.76 -103.717 1672.89 -104.393 1711.21 -99.0848C1749.52 -93.7768 1781.11 -88.0392 1807.58 -82.17C1834.05 -76.3008 1855.43 -70.2884 1874.33 -64.236C1893.23 -58.1893 1909.68 -52.0967 1927.07 -46.05C1944.46 -40.0032 1962.83 -34.0081 1985.75 -28.1045C2008.68 -22.2009 2036.25 -16.4176 2071.32 -10.4739" stroke="#8F8F8F" stroke-width="0.5" stroke-miterlimit="10"/>
<path d="M-146.271 63.2778C-132.239 52.3124 -119.226 40.7056 -106.949 28.7037C-94.6733 16.7076 -83.1344 4.3164 -71.97 -8.17789C-49.653 -33.1665 -28.5062 -58.2237 -4.19971 -80.189C20.1068 -102.148 47.0465 -121.377 78.0703 -136.734C109.094 -152.091 144.179 -163.612 184.155 -170.655C224.132 -177.693 266.203 -177.538 305.29 -176.599C344.389 -175.66 382.329 -172.258 419.684 -167.403C457.051 -162.547 498.502 -155.733 537.437 -148.157C576.371 -140.582 612.919 -132.434 648.214 -124.406C683.498 -116.378 717.506 -108.453 751.034 -101.123C784.562 -93.7998 815.902 -85.5772 851.221 -81.8896C886.528 -78.2078 922.104 -75.4936 958.71 -73.7815C995.316 -72.0694 1032.99 -71.3765 1072.21 -71.6571C1111.44 -71.932 1152.24 -73.1974 1194.57 -75.087C1236.91 -76.9766 1280.86 -79.5248 1325.46 -81.798C1370.06 -84.0713 1414.23 -84.6553 1458.45 -85.5371C1502.68 -86.4247 1547.09 -87.2263 1590 -86.9744C1632.91 -86.7224 1673.92 -87.1519 1711.65 -81.6606C1749.39 -76.175 1780.37 -70.4947 1806.28 -64.8374C1832.2 -59.1857 1853.07 -53.5455 1871.63 -47.9684C1890.18 -42.3912 1906.43 -36.8655 1923.87 -31.4028C1941.3 -25.9459 1959.96 -20.5691 1983.52 -15.2496C2007.06 -9.9358 2035.58 -4.7079 2072 0.743319" stroke="#8F8F8F" stroke-width="0.5" stroke-miterlimit="10"/>
<path d="M-158.348 77.6041C-128.494 57.0075 -103.006 33.6336 -79.4831 9.52115C-55.9607 -14.5856 -34.9777 -39.8032 -11.0925 -62.1235C12.7927 -84.4437 38.995 -104.262 69.2816 -120.226C99.5682 -136.19 133.916 -148.335 173.389 -155.825C212.874 -163.315 255.589 -163.756 294.968 -162.811C334.348 -161.866 372.557 -158.241 410.181 -153.042C447.806 -147.843 489.444 -140.525 528.589 -132.417C567.735 -124.303 604.528 -115.611 640.081 -107.102C675.634 -98.5928 709.946 -90.2556 743.802 -82.64C777.658 -75.0243 809.208 -66.4696 844.89 -62.7533C880.571 -59.0371 916.861 -56.5463 954.31 -55.1663C991.759 -53.7863 1030.39 -53.5286 1070.51 -54.2158C1110.63 -54.9029 1152.26 -56.5463 1195.21 -58.6707C1238.16 -60.795 1282.54 -63.5493 1326.49 -65.5935C1370.45 -67.6377 1414.18 -68.5023 1458.15 -69.1608C1502.11 -69.825 1546.46 -70.243 1589.24 -69.6876C1632.03 -69.1322 1673 -69.1494 1710.25 -63.5894C1747.5 -58.0293 1777.93 -52.4979 1803.36 -47.1441C1828.79 -41.7959 1849.23 -36.6081 1867.47 -31.5692C1885.72 -26.5245 1901.82 -21.6172 1919.32 -16.7902C1936.82 -11.9688 1955.78 -7.22764 1979.96 -2.51508C2004.14 2.19748 2033.57 6.86996 2071.27 11.8631" stroke="#8F8F8F" stroke-width="0.5" stroke-miterlimit="10"/>
<path d="M-171.314 90.9801C-139.694 71.7291 -112.602 49.552 -87.8156 26.39C-63.0176 3.22236 -40.5835 -20.9188 -17.2601 -43.6742C6.07513 -66.4296 31.3647 -86.9575 61.0076 -103.449C90.6506 -119.945 124.284 -132.657 163.301 -140.565C202.306 -148.467 245.501 -149.635 285.149 -148.753C324.786 -147.871 363.253 -144.092 401.112 -138.607C438.97 -133.115 480.76 -125.345 520.105 -116.739C559.437 -108.133 596.453 -98.9136 632.263 -89.9465C668.074 -80.9795 702.667 -72.2415 736.839 -64.351C771.022 -56.4605 804.785 -49.406 838.804 -43.8517C872.824 -38.2974 911.431 -37.5473 949.524 -36.3505C987.604 -35.1595 1027 -35.1996 1067.8 -36.1501C1108.61 -37.1007 1151.04 -38.8357 1194.25 -41.7216C1237.46 -44.6133 1280.97 -47.6481 1324.51 -49.698C1368.07 -51.7479 1411.51 -52.3835 1455.4 -52.6698C1499.27 -52.9618 1543.67 -52.876 1586.45 -51.9312C1629.24 -50.9921 1670.26 -50.4996 1707.11 -44.9568C1743.96 -39.4082 1773.94 -34.1117 1798.95 -29.1357C1823.96 -24.1655 1844.01 -19.5044 1861.99 -15.061C1879.98 -10.6119 1895.94 -6.37454 1913.53 -2.21742C1931.12 1.93971 1950.39 6.00522 1975.15 10.1165C1999.91 14.2279 2030.23 18.3506 2069.17 22.9029" stroke="#8F8F8F" stroke-width="0.5" stroke-miterlimit="10"/>
<path d="M-185.1 103.446C-153.187 86.3141 -125.545 66.4045 -100.361 45.2982C-75.1766 24.1919 -52.5202 1.91176 -29.6648 -19.5839C-6.80943 -41.0739 16.2098 -61.7736 42.26 -79.4787C68.3219 -97.1894 99.1585 -110.611 134.255 -120.128C169.363 -129.645 211.036 -133.705 249.69 -134.38C288.344 -135.056 325.817 -132.577 362.563 -128.116C399.321 -123.661 435.974 -117.271 475.248 -109.14C514.511 -101.014 551.293 -91.8928 586.693 -82.8112C622.094 -73.7297 656.09 -64.6595 689.478 -56.2422C722.866 -47.8249 755.645 -40.0374 788.436 -33.4868C821.227 -26.9362 854.556 -22.3782 890.097 -19.9676C925.638 -17.5569 962.443 -16.5434 1000.54 -16.5548C1038.63 -16.572 1078.41 -18.0551 1118.71 -20.8379C1159.01 -23.6208 1199.74 -26.9362 1240.84 -29.7248C1281.94 -32.5134 1323.4 -34.7695 1364.99 -35.6914C1406.58 -36.619 1448.34 -36.2353 1490.52 -35.7314C1532.7 -35.2275 1574.93 -34.2083 1614.88 -32.4962C1654.83 -30.7841 1693.03 -27.3771 1725.2 -22.3496C1757.37 -17.3278 1783.53 -12.7356 1805.58 -8.55552C1827.62 -4.36977 1845.55 -0.579113 1862.14 2.98823C1878.72 6.55557 1893.97 9.89963 1911.22 13.1921C1928.45 16.4846 1947.73 19.7198 1972.43 23.0753C1997.13 26.4308 2027.3 29.8836 2065.63 33.846" stroke="#8F8F8F" stroke-width="0.5" stroke-miterlimit="10"/>
<path d="M-199.658 115.024C-166.13 99.1568 -136.955 80.444 -110.472 60.3513C-83.9887 40.2585 -60.2556 18.8143 -36.6513 -2.10302C-13.0469 -23.0204 10.3936 -43.388 36.4672 -61.0987C62.5408 -78.8037 91.0018 -94.0293 125.7 -103.867C160.399 -113.704 202.025 -118.405 240.89 -119.413C279.755 -120.421 317.402 -118.033 354.348 -113.498C391.293 -108.969 428.11 -102.349 467.501 -93.8919C506.892 -85.4288 543.838 -75.8834 579.426 -66.4011C615.014 -56.9187 649.244 -47.4535 682.889 -38.7327C716.535 -30.0061 749.606 -22.0011 782.713 -15.3588C815.82 -8.71661 849.021 -3.82653 884.515 -1.13528C920.009 1.55025 957.212 2.71833 995.539 1.40133C1033.87 0.0786075 1072.98 -2.76722 1112.69 -5.88793C1152.41 -9.01436 1192.74 -12.4214 1233.61 -15.0897C1274.47 -17.7581 1315.85 -19.6763 1357.47 -20.1287C1399.08 -20.5868 1441 -19.5847 1483.42 -18.4452C1525.85 -17.3057 1568.37 -15.6623 1608.48 -13.5265C1648.6 -11.3964 1686.79 -7.73745 1718.73 -2.95045C1750.67 1.83082 1776.54 5.99937 1798.31 9.65833C1820.08 13.3173 1837.76 16.4781 1854.19 19.3697C1870.61 22.2614 1885.81 24.8839 1903.15 27.4836C1920.5 30.0832 1940.05 32.6542 1965.24 35.4257C1990.43 38.1971 2021.33 41.1574 2060.65 44.742" stroke="#8F8F8F" stroke-width="0.5" stroke-miterlimit="10"/>
<path d="M-214.919 125.76C-179.834 111.141 -149.15 93.6196 -121.344 74.5632C-93.5385 55.5069 -68.6819 34.956 -44.2584 14.6972C-19.8232 -5.56164 4.14398 -25.517 30.358 -43.096C56.5838 -60.6808 85.0564 -75.8835 118.667 -86.5512C152.277 -97.2189 193.716 -102.51 232.756 -103.941C271.796 -105.367 309.62 -103.157 346.729 -98.6275C383.838 -94.0982 420.807 -87.3242 460.304 -78.5919C499.8 -69.8597 536.898 -59.9479 572.661 -50.1048C608.436 -40.2559 642.866 -30.4472 676.757 -21.4458C710.648 -12.4444 744.001 -4.23893 777.423 2.47202C810.846 9.18871 844 14.617 879.05 16.6727C914.099 18.7283 950.623 18.0469 988.131 16.1058C1025.64 14.1589 1064.14 10.9523 1103.41 7.70566C1142.7 4.45898 1182.79 1.17221 1223.57 -1.18694C1264.35 -3.54608 1305.81 -4.94895 1347.6 -4.78862C1389.39 -4.62829 1431.6 -2.88186 1474.4 -1.01516C1517.2 0.857265 1560.11 3.20496 1600.5 5.81032C1640.88 8.41569 1679.16 12.2464 1710.95 16.7357C1742.73 21.2192 1768.39 24.9239 1789.95 28.016C1811.51 31.1081 1828.98 33.5875 1845.27 35.7691C1861.56 37.945 1876.69 39.8232 1894.13 41.7128C1911.57 43.5966 1931.35 45.4863 1956.96 47.6736C1982.59 49.861 2014.12 52.3289 2054.32 55.5699" stroke="#8F8F8F" stroke-width="0.5" stroke-miterlimit="10"/>
<path d="M-230.811 135.695C-194.228 122.29 -162.081 105.954 -132.953 87.9627C-103.836 69.9713 -77.8211 50.3481 -52.5082 30.8107C-27.1835 11.2734 -2.59613 -8.16665 23.8871 -25.5224C50.3703 -42.8724 78.7611 -58.1266 111.845 -69.1779C144.928 -80.2293 185.946 -85.9782 225.618 -87.4727C265.29 -88.9672 303.079 -87.2723 340.153 -83.0522C377.227 -78.8321 414.137 -72.1669 453.727 -63.24C493.318 -54.313 530.532 -44.0863 566.471 -33.9283C602.41 -23.7702 637.167 -13.5205 671.058 -4.51914C704.938 4.48224 738.068 12.4128 771.175 18.8203C804.294 25.2278 836.968 30.3126 870.894 31.4349C904.831 32.5572 940.466 31.2173 977.283 28.8753C1014.1 26.5334 1052.12 23.1836 1091.12 20.0228C1130.11 16.862 1170.1 13.8902 1210.94 12.0235C1251.78 10.1568 1293.45 9.41241 1335.56 10.3286C1377.67 11.2448 1420.31 13.8387 1463.59 16.5299C1506.87 19.2212 1550.29 22.3419 1591.05 25.4626C1631.82 28.589 1670.26 32.54 1701.98 36.6799C1733.71 40.8199 1759.22 44.0208 1780.63 46.5059C1802.03 48.991 1819.34 50.7661 1835.51 52.209C1851.69 53.6463 1866.76 54.7572 1884.25 55.9138C1901.75 57.0648 1921.7 58.2673 1947.68 59.8648C1973.66 61.4681 2005.72 63.4493 2046.65 66.3524" stroke="#8F8F8F" stroke-width="0.5" stroke-miterlimit="10"/>
<path d="M-247.241 144.892C-209.243 132.661 -175.667 117.492 -145.252 100.566C-114.837 83.6399 -87.6515 64.9844 -61.3906 46.2258C-35.1297 27.4672 -9.84022 8.61695 17.0175 -8.40666C43.8752 -25.4303 72.3011 -40.6101 105.022 -51.9134C137.731 -63.2166 177.649 -69.8531 218.105 -71.2503C258.561 -72.6417 296.782 -70.9869 334.055 -66.887C371.329 -62.7871 408.204 -56.3453 447.513 -47.699C486.822 -39.0583 523.815 -28.9461 559.414 -18.9827C595.002 -9.01363 629.162 0.812317 662.562 9.56176C695.961 18.3112 728.6 25.9956 761.263 32.174C793.925 38.3524 826.306 43.3685 859.226 43.7636C892.146 44.153 926.996 42.3722 963.239 39.8355C999.494 37.2989 1037.15 34.0121 1075.98 31.1204C1114.81 28.2345 1154.84 25.7494 1195.87 24.5297C1236.9 23.31 1278.91 23.3788 1321.46 25.171C1364.01 26.9633 1407.2 30.502 1451.07 34.0923C1494.94 37.6825 1538.98 41.6335 1580.22 45.3211C1621.46 49.0087 1660.15 53.0341 1691.91 56.8076C1723.67 60.5753 1749.11 63.2437 1770.42 65.0932C1791.72 66.9427 1808.9 67.9906 1824.98 68.6777C1841.06 69.3591 1856.06 69.6798 1873.58 70.0921C1891.1 70.5043 1911.17 70.9968 1937.42 72.0103C1963.66 73.0238 1996.12 74.524 2037.65 77.1065" stroke="#8F8F8F" stroke-width="0.5" stroke-miterlimit="10"/>
<path d="M-264.117 153.4C-224.796 142.297 -189.852 128.28 -158.161 112.419C-126.47 96.5633 -98.1143 78.8926 -70.8822 60.9586C-43.65 43.0245 -17.588 24.8328 9.72607 8.23292C37.0402 -8.37268 65.6299 -23.3807 98.1049 -34.8099C130.58 -46.2392 169.082 -53.8778 210.228 -55.2463C251.375 -56.6148 289.912 -55.1146 327.244 -51.261C364.564 -47.413 401.217 -41.3262 440.081 -33.115C478.934 -24.9039 515.341 -15.2439 550.286 -5.72149C585.23 3.80096 618.7 13.2032 651.409 21.5575C684.129 29.9061 716.078 37.2126 748.131 43.0589C780.185 48.9109 812.344 54.0014 844.328 53.8525C876.311 53.7037 910.471 51.6594 946.247 49.1171C982.022 46.569 1019.45 43.5227 1058.23 41.0834C1097.01 38.6384 1137.19 36.806 1178.52 36.3823C1219.86 35.9586 1262.34 36.9549 1305.45 39.732C1348.56 42.5035 1392.42 47.0786 1436.99 51.6366C1481.56 56.1945 1526.3 61.0273 1568.13 65.3276C1609.95 69.6279 1648.99 73.7106 1680.87 77.0832C1712.75 80.4559 1738.22 82.5745 1759.48 83.777C1780.74 84.9852 1797.83 85.2887 1813.83 85.1971C1829.81 85.1112 1844.74 84.6359 1862.25 84.2924C1879.76 83.9545 1899.89 83.7426 1926.29 84.1664C1952.69 84.5844 1985.43 85.6093 2027.39 87.8769" stroke="#8F8F8F" stroke-width="0.5" stroke-miterlimit="10"/>
<path d="M-281.355 161.279C-240.805 151.252 -204.562 138.351 -171.63 123.55C-138.699 108.753 -109.173 92.0848 -80.9462 75.0097C-52.7193 57.9345 -25.8382 40.4643 2.01427 24.3568C29.8667 8.24368 58.7139 -6.48951 91.0835 -17.9359C123.453 -29.3881 160.317 -38.0344 202.095 -39.4316C243.874 -40.8345 282.622 -39.569 319.871 -36.0818C357.109 -32.5947 393.388 -27.006 431.597 -19.3961C469.795 -11.7861 505.394 -2.75612 539.496 6.1651C573.598 15.0863 606.166 23.9102 638.009 31.7149C669.852 39.5252 700.958 46.3335 732.251 51.7618C763.544 57.1902 795.469 62.4123 826.575 61.8741C857.692 61.3358 891.244 59.2114 926.645 56.8179C962.045 54.4302 999.319 51.779 1038.16 49.9295C1077 48.08 1117.42 47.0378 1159.18 47.5245C1200.92 48.0112 1243.99 50.0555 1287.76 53.8977C1331.53 57.7399 1376.17 63.4201 1421.53 69.0088C1466.89 74.5917 1512.44 80.3578 1554.94 85.3051C1597.44 90.2525 1636.95 94.4153 1669.05 97.3871C1701.15 100.353 1726.71 101.916 1748 102.466C1769.29 103.022 1786.31 102.575 1802.24 101.71C1818.17 100.846 1833 99.5631 1850.46 98.4694C1867.9 97.37 1888.01 96.4538 1914.48 96.2763C1940.94 96.0988 1973.83 96.6542 2016.03 98.6011" stroke="#8F8F8F" stroke-width="0.5" stroke-miterlimit="10"/>
<path d="M-298.851 168.592C-257.177 159.585 -219.717 147.755 -185.592 134C-151.467 120.246 -120.806 104.586 -91.5723 88.398C-62.339 72.2104 -34.6035 55.5017 -6.14255 39.9554C22.3184 24.4092 51.5166 10.0367 83.8746 -1.32954C116.244 -12.6958 151.352 -22.2984 193.728 -23.77C236.103 -25.2416 274.991 -24.2853 312.054 -21.2562C349.116 -18.2272 384.88 -13.2512 422.258 -6.38564C459.637 0.479925 494.242 8.73116 527.313 16.908C560.385 25.0791 591.877 33.1815 622.679 40.3276C653.48 47.4738 683.58 53.6809 713.972 58.5938C744.364 63.5068 775.973 68.8148 806.283 68.0361C836.581 67.2516 869.594 65.1788 904.702 63.0831C939.799 60.9873 977.013 58.8744 1015.99 57.7521C1054.98 56.624 1095.75 56.4866 1138.01 57.9926C1180.27 59.4985 1223.99 62.6765 1268.53 67.6697C1313.07 72.6628 1358.57 79.5054 1404.81 86.1706C1451.04 92.83 1497.47 99.5639 1540.74 105.193C1584.02 110.821 1624.1 115.133 1656.53 117.693C1688.96 120.258 1714.69 121.266 1736.06 121.168C1757.43 121.077 1774.46 119.886 1790.32 118.242C1806.18 116.605 1820.92 114.52 1838.27 112.665C1855.63 110.81 1875.64 109.178 1902.05 108.411C1928.47 107.638 1961.34 107.706 2003.62 109.338" stroke="#8F8F8F" stroke-width="0.5" stroke-miterlimit="10"/>
<path d="M-316.521 175.405C-273.83 167.355 -235.223 156.561 -199.963 143.826C-164.714 131.091 -132.918 116.433 -102.69 101.15C-72.4499 85.8669 -43.8368 69.9541 -14.7205 55.032C14.3959 40.1041 44.0154 26.1668 76.4787 14.9724C108.942 3.7779 142.236 -6.66647 185.185 -8.22968C228.134 -9.78717 267.116 -9.18591 303.921 -6.68362C340.714 -4.18133 375.869 0.0903372 412.288 6.09699C448.707 12.0979 482.176 19.4502 514.066 26.7452C545.956 34.0459 576.219 41.2951 605.827 47.6682C635.447 54.0414 664.387 59.5498 693.749 63.873C723.112 68.1962 754.276 73.4699 783.802 72.5537C813.328 71.6376 845.861 69.7365 880.724 68.0473C915.586 66.3638 952.8 64.9037 991.993 64.6002C1031.19 64.3025 1072.39 65.1614 1115.23 67.7782C1158.08 70.395 1202.55 74.7755 1247.93 80.9768C1293.31 87.1781 1339.77 95.2347 1386.97 103.005C1434.17 110.781 1481.55 118.517 1525.67 124.867C1569.8 131.212 1610.61 135.758 1643.46 137.928C1676.31 140.104 1702.31 140.574 1723.83 139.847C1745.35 139.114 1762.41 137.195 1778.23 134.79C1794.05 132.385 1808.68 129.505 1825.89 126.894C1843.11 124.283 1862.94 121.947 1889.2 120.573C1915.45 119.198 1948.17 118.78 1990.35 120.086" stroke="#8F8F8F" stroke-width="0.5" stroke-miterlimit="10"/>
<path d="M-334.72 181.933C-291.092 174.793 -251.396 165.001 -215.036 153.268C-178.688 141.541 -145.78 127.89 -114.533 113.529C-83.2871 99.1684 -53.7378 84.1031 -23.9193 69.8452C5.8992 55.5872 36.022 42.1481 68.6725 31.2056C101.323 20.2631 136.513 11.8286 176.525 7.61995C216.548 3.41129 258.888 5.988 295.377 7.9005C331.866 9.81301 366.319 13.2945 401.661 18.322C437.015 23.3552 469.198 29.671 499.765 35.9754C530.321 42.2798 559.203 48.5671 587.5 54.0641C615.786 59.5611 643.451 64.2737 671.654 67.9326C699.858 71.5916 730.379 76.6248 759.167 75.6628C787.956 74.7009 820.021 73.0689 854.696 71.8894C889.36 70.7155 926.645 69.9998 966.129 70.6125C1005.61 71.2252 1047.3 73.1777 1090.81 76.9741C1134.32 80.7648 1179.62 86.4221 1225.94 93.8775C1272.26 101.333 1319.75 110.643 1368 119.565C1416.24 128.486 1464.65 137.258 1509.73 144.347C1554.81 151.442 1596.5 156.355 1629.9 158.158C1663.28 159.962 1689.65 159.916 1711.39 158.565C1733.14 157.219 1750.27 154.58 1766.07 151.425C1781.87 148.269 1796.38 144.599 1813.41 141.238C1830.43 137.877 1850.05 134.819 1876.03 132.838C1902.02 130.856 1934.45 129.935 1976.34 130.897" stroke="#8F8F8F" stroke-width="0.5" stroke-miterlimit="10"/>
<path d="M-354.134 188.547C-309.593 182.282 -268.821 173.487 -231.349 162.768C-193.877 152.049 -159.822 139.434 -127.499 126.035C-95.1764 112.636 -64.6441 98.4584 -34.0298 84.9277C-3.41552 71.397 27.2924 58.5247 60.2238 47.9029C93.1552 37.2867 128.322 28.9266 167.9 24.466C207.479 20.0054 250.182 21.7576 286.343 23.0059C322.493 24.2485 356.173 26.8367 390.334 30.7705C424.494 34.7043 455.272 39.8463 484.365 45.0227C513.458 50.199 540.807 55.3869 567.618 59.8875C594.429 64.3882 620.666 68.2018 647.594 71.1049C674.522 74.008 702.105 76.0064 731.971 77.3349C761.836 78.669 791.865 75.3594 826.388 74.7696C860.911 74.1798 898.313 74.3058 938.149 75.9205C977.985 77.541 1020.26 80.656 1064.5 85.7006C1108.76 90.7453 1154.99 97.7311 1202.34 106.498C1249.69 115.27 1298.32 125.869 1347.7 135.964C1397.07 146.065 1446.64 155.891 1492.78 163.753C1538.91 171.62 1581.66 177.06 1615.72 178.509C1649.8 179.963 1676.65 179.414 1698.7 177.461C1720.76 175.508 1738.03 172.164 1753.85 168.253C1769.67 164.343 1784.07 159.882 1800.88 155.759C1817.71 151.636 1837.01 147.846 1862.65 145.235C1888.28 142.624 1920.31 141.181 1961.76 141.765" stroke="#8F8F8F" stroke-width="0.5" stroke-miterlimit="10"/>
<path d="M-373.83 195.029C-328.493 189.572 -286.726 181.716 -248.178 171.982C-209.641 162.247 -174.462 150.652 -141.063 138.227C-107.663 125.801 -76.1128 112.545 -44.6559 99.7875C-13.1991 87.0298 18.1759 74.7932 51.4818 64.5722C84.7876 54.3511 120.036 46.1628 159.299 41.5591C198.561 36.9553 241.452 37.8601 277.25 38.4155C313.049 38.9709 345.91 40.6028 378.818 43.3571C411.726 46.1113 440.983 49.9879 468.508 53.9331C496.021 57.8784 521.731 61.8752 546.962 65.2879C572.193 68.7007 596.898 71.5293 622.445 73.6079C647.992 75.6865 674.346 77.0206 703.229 77.8967C732.099 78.7728 762.281 76.6943 796.686 76.7573C831.092 76.8202 868.67 77.8337 908.904 80.5135C949.138 83.1876 992.04 87.5337 1037.11 93.8725C1082.17 100.211 1129.38 108.571 1177.82 118.678C1202.04 123.734 1226.59 129.208 1251.43 134.86C1276.26 140.511 1301.4 146.34 1326.69 151.992C1351.98 157.638 1377.3 163.187 1402.23 168.403C1427.16 173.619 1451.66 178.515 1475.3 182.844C1522.57 191.508 1566.5 197.652 1601.38 198.797C1636.25 199.937 1663.68 198.923 1686.12 196.398C1708.56 193.873 1726.03 189.841 1741.89 185.203C1757.75 180.565 1772.02 175.326 1788.62 170.447C1805.21 165.569 1824.15 161.051 1849.33 157.798C1874.52 154.546 1905.99 152.559 1946.84 152.736" stroke="#8F8F8F" stroke-width="0.5" stroke-miterlimit="10"/>
<path d="M-393.537 201.441C-347.534 196.7 -304.866 189.72 -265.334 180.93C-225.802 172.135 -189.547 161.542 -155.095 150.084C-120.642 138.626 -88.0614 126.315 -55.7152 114.371C-23.3806 102.432 8.73161 90.8765 42.4939 81.1307C76.2562 71.3849 111.68 63.4486 150.756 58.799C189.819 54.1437 232.792 54.2869 268.251 54.1437C303.698 53.9949 335.729 54.6476 367.326 56.1707C398.923 57.6939 426.6 60.2305 452.463 62.8702C478.326 65.5099 502.305 68.2298 525.862 70.4802C549.42 72.7305 572.521 74.5056 596.605 75.7024C620.689 76.8991 645.745 77.5233 673.562 77.9127C701.38 78.3078 731.584 77.2599 765.92 78.0043C800.244 78.7487 838.02 80.7012 878.699 84.469C919.366 88.2367 962.947 93.8368 1008.87 101.498C1054.79 109.16 1103.03 118.911 1152.6 130.369C1177.4 136.101 1202.54 142.239 1227.98 148.538C1253.43 154.837 1279.19 161.296 1305.1 167.543C1331.01 173.79 1356.95 179.9 1382.49 185.637C1408.02 191.375 1433.15 196.734 1457.37 201.47C1505.82 210.935 1551.05 217.978 1586.84 218.86C1622.63 219.742 1650.73 218.31 1673.64 215.258C1696.54 212.206 1714.27 207.534 1730.21 202.197C1746.15 196.855 1760.31 190.865 1776.64 185.242C1792.96 179.619 1811.49 174.374 1836.12 170.475C1860.75 166.575 1891.56 164.021 1931.63 163.764" stroke="#8F8F8F" stroke-width="0.5" stroke-miterlimit="10"/>
<path d="M-412.976 207.867C-366.446 203.75 -323.005 197.572 -282.572 189.658C-242.14 181.751 -204.866 172.119 -169.384 161.623C-133.901 151.127 -100.303 139.761 -67.0671 128.664C-33.8314 117.567 -0.958527 106.75 33.3304 97.5372C67.6193 88.3239 103.313 80.7254 142.294 76.1217C181.264 71.5179 224.318 71.0369 259.45 70.2066C294.57 69.3821 325.758 69.0385 356.032 69.3019C386.307 69.5653 412.358 70.7162 436.512 71.9989C460.666 73.2758 482.866 74.6615 504.692 75.6979C526.517 76.7344 547.945 77.4043 570.52 77.6735C593.094 77.9483 616.804 77.8166 643.509 77.7021C670.227 77.5818 700.291 77.2898 734.545 78.7213C768.798 80.1528 806.809 83.0559 847.932 87.9288C889.067 92.8074 933.338 99.6673 980.138 108.663C1003.53 113.158 1027.55 118.18 1052.06 123.688C1076.58 129.202 1101.6 135.198 1126.97 141.605C1152.34 148.007 1178.1 154.815 1204.17 161.755C1230.25 168.701 1256.64 175.778 1283.18 182.621C1309.72 189.458 1336.3 196.134 1362.46 202.387C1388.63 208.64 1414.37 214.469 1439.2 219.611C1488.87 229.89 1535.48 237.998 1572.28 238.679C1609.09 239.366 1637.96 237.585 1661.4 234.058C1684.85 230.531 1702.88 225.269 1718.93 219.273C1734.96 213.278 1749.03 206.562 1765.06 200.211C1781.09 193.867 1799.15 187.895 1823.14 183.342C1847.13 178.796 1877.14 175.652 1916.27 174.925" stroke="#8F8F8F" stroke-width="0.5" stroke-miterlimit="10"/>
<path d="M-431.84 214.395C-384.947 210.799 -340.851 205.33 -299.623 198.241C-258.394 191.152 -220.185 182.443 -183.731 172.88C-147.277 163.318 -112.672 152.897 -78.5352 142.658C-44.3984 132.42 -10.7181 122.371 24.1443 113.747C59.0066 105.124 95.0509 97.9319 134.021 93.4541C172.991 88.9764 216.174 88.0717 251.013 86.5943C285.852 85.117 316.209 83.8114 345.161 82.8094C374.114 81.813 398.525 81.5554 420.96 81.4466C443.394 81.3378 463.768 81.3607 483.826 81.1374C503.897 80.914 523.616 80.4502 544.645 79.7688C565.675 79.0874 587.992 78.1942 613.574 77.5528C639.156 76.9115 668.846 77.0203 703.03 79.1332C737.225 81.2462 775.458 85.0826 817.061 91.0549C858.664 97.0272 903.649 105.147 951.326 115.448C975.164 120.601 999.67 126.293 1024.71 132.477C1049.76 138.661 1075.34 145.332 1101.3 152.398C1127.25 159.464 1153.63 166.92 1180.32 174.495C1207.02 182.065 1234.05 189.755 1261.24 197.176C1288.41 204.597 1315.63 211.823 1342.42 218.58C1369.21 225.337 1395.58 231.63 1421.03 237.173C1471.93 248.258 1519.96 257.563 1557.88 258.125C1595.81 258.686 1625.53 256.636 1649.6 252.702C1673.66 248.768 1692.07 242.979 1708.24 236.377C1724.42 229.769 1738.39 222.371 1754.12 215.322C1769.85 208.279 1787.37 201.602 1810.64 196.392C1833.92 191.187 1863 187.448 1901.04 186.211" stroke="#8F8F8F" stroke-width="0.5" stroke-miterlimit="10"/>
<path d="M-449.804 221.117C-402.712 217.934 -358.125 213.078 -316.217 206.739C-274.31 200.395 -235.258 192.55 -197.903 183.886C-160.548 175.223 -124.983 165.729 -89.9573 156.35C-54.9311 146.97 -20.4432 137.717 15.016 129.723C50.4869 121.73 86.9408 114.996 125.993 110.73C165.045 106.458 208.415 105.342 243.02 103.275C277.625 101.208 307.197 98.963 334.863 96.7299C362.516 94.4967 385.313 92.8418 406.015 91.3416C426.729 89.8414 445.278 88.4786 463.581 86.9898C481.884 85.501 499.882 83.8806 519.356 82.2429C538.829 80.5995 559.765 78.9275 584.2 77.7594C608.636 76.5913 637.705 76.7459 671.818 79.4944C705.944 82.2429 744.41 86.9898 786.482 94.0214C828.553 101.053 874.228 110.392 922.795 121.97C947.078 127.759 972.063 134.104 997.622 140.941C1023.18 147.772 1049.32 155.101 1075.87 162.809C1102.41 170.516 1129.39 178.601 1156.72 186.778C1184.05 194.955 1211.71 203.229 1239.5 211.211C1267.31 219.188 1295.15 226.941 1322.57 234.19C1349.99 241.433 1376.98 248.173 1403.05 254.105C1455.19 265.981 1504.61 276.557 1543.75 277.09C1582.9 277.628 1613.58 275.383 1638.33 271.129C1663.08 266.874 1681.93 260.621 1698.27 253.47C1714.62 246.318 1728.51 238.278 1743.91 230.577C1759.32 222.869 1776.28 215.5 1798.77 209.642C1821.25 203.785 1849.3 199.427 1886.08 197.658" stroke="#8F8F8F" stroke-width="0.5" stroke-miterlimit="10"/>
<path d="M-466.574 228.143C-419.459 225.251 -374.532 220.922 -332.086 215.242C-289.641 209.562 -249.863 202.513 -211.689 194.703C-173.515 186.892 -137.049 178.297 -101.169 169.777C-65.2997 161.257 -30.0044 152.805 6.08676 145.464C42.1779 138.129 79.0765 131.905 118.257 127.902C157.45 123.9 201.089 122.783 235.507 120.201C269.924 117.618 298.783 114.498 325.196 111.073C351.609 107.649 372.814 104.626 391.843 101.751C410.86 98.8826 427.618 96.1455 444.178 93.397C460.725 90.6485 477.039 87.8828 494.979 85.2831C512.919 82.6835 532.474 80.2442 555.774 78.5608C579.075 76.8716 607.266 76.7342 641.31 80.061C675.353 83.3878 714.042 88.9822 756.546 97.0159C799.062 105.055 845.428 115.545 894.849 128.338C919.553 134.734 945.018 141.696 971.08 149.152C997.154 156.607 1023.82 164.555 1050.94 172.869C1078.05 181.183 1105.63 189.864 1133.56 198.614C1161.48 207.369 1189.77 216.193 1218.18 224.702C1246.6 233.21 1275.05 241.456 1303.06 249.163C1331.09 256.871 1358.69 264.034 1385.36 270.344C1438.7 282.964 1489.44 294.823 1529.9 295.43C1570.35 296.037 1602.08 293.695 1627.59 289.206C1653.1 284.716 1672.42 278.086 1688.99 270.459C1705.55 262.831 1719.39 254.214 1734.47 245.882C1749.54 237.557 1765.9 229.529 1787.52 223.018C1809.13 216.513 1836.05 211.526 1871.45 209.19" stroke="#8F8F8F" stroke-width="0.5" stroke-miterlimit="10"/>
<path d="M-481.811 235.569C-434.848 232.867 -389.745 228.956 -346.89 223.848C-304.035 218.746 -263.66 212.419 -224.761 205.404C-185.861 198.384 -148.576 190.66 -111.9 182.97C-75.2236 175.28 -39.1675 167.635 -2.45617 160.97C34.2552 154.305 71.6102 148.625 110.978 144.937C150.346 141.244 194.336 140.333 228.637 137.316C262.938 134.298 291.129 130.381 316.361 125.835C341.592 121.294 361.287 116.948 378.666 112.751C396.056 108.554 411.07 104.482 425.921 100.509C440.772 96.5347 455.435 92.6523 471.878 89.1194C488.32 85.5921 506.541 82.4142 528.741 80.2325C550.941 78.0566 578.056 77.3351 611.994 81.1601C645.932 84.9851 684.808 91.3468 727.734 100.308C770.659 109.269 817.669 120.836 867.897 134.756C893.011 141.713 918.921 149.26 945.474 157.288C972.028 165.322 999.225 173.848 1026.88 182.729C1054.53 191.605 1082.69 200.841 1111.2 210.123C1139.7 219.41 1168.56 228.75 1197.56 237.74C1226.55 246.735 1255.58 255.445 1284.19 263.581C1312.79 271.718 1340.97 279.271 1368.22 285.942C1422.73 299.272 1473.56 309.035 1516.33 312.671C1559.11 316.307 1591.18 311.56 1617.53 306.933C1643.87 302.312 1663.75 295.395 1680.57 287.373C1697.38 279.345 1711.19 270.224 1725.94 261.325C1740.68 252.427 1756.42 243.769 1777.12 236.629C1797.81 229.488 1823.5 223.871 1857.38 220.939" stroke="#8F8F8F" stroke-width="0.5" stroke-miterlimit="10"/>
<path d="M-495.233 243.494C-448.586 240.871 -403.473 237.275 -360.371 232.66C-317.27 228.045 -276.405 222.364 -236.908 216.083C-197.411 209.801 -159.389 202.89 -121.987 196.002C-84.5856 189.113 -47.7923 182.259 -10.4957 176.27C26.8125 170.28 64.6239 165.167 104.191 161.823C143.758 158.484 188.123 157.917 222.353 154.568C256.583 151.212 284.178 146.586 308.321 141.008C332.464 135.431 350.708 129.848 366.542 124.391C382.376 118.934 395.717 113.581 408.953 108.427C422.177 103.279 435.26 98.3149 450.275 93.9C465.289 89.4852 482.235 85.6029 503.393 82.9747C524.552 80.3407 550.438 78.8462 584.236 83.072C618.045 87.2979 657.062 94.3238 700.362 104.104C722.012 108.994 744.738 114.571 768.413 120.795C792.087 127.02 816.745 133.902 842.233 141.375C867.722 148.847 894.053 156.915 921.051 165.47C948.049 174.031 975.738 183.078 1003.91 192.469C1032.07 201.859 1060.76 211.594 1089.8 221.362C1118.85 231.131 1148.27 240.928 1177.8 250.359C1207.32 259.79 1236.9 268.917 1266.05 277.443C1295.19 285.964 1323.92 293.877 1351.71 300.863C1379.52 307.849 1406.4 313.907 1431.83 318.711C1457.26 323.515 1481.24 327.06 1503.2 329.024C1547.15 332.946 1580.83 328.812 1608.08 324.162C1635.33 319.513 1655.82 312.418 1672.94 304.087C1690.06 295.755 1703.87 286.199 1718.29 276.785C1732.72 267.377 1747.81 258.124 1767.53 250.376C1787.25 242.623 1811.65 236.37 1843.89 232.815" stroke="#8F8F8F" stroke-width="0.5" stroke-miterlimit="10"/>
<path d="M-506.538 251.981C-460.371 249.341 -415.409 245.968 -372.191 241.748C-328.985 237.534 -287.791 232.415 -247.803 226.803C-207.815 221.186 -169.161 215.036 -131.115 208.909C-93.0698 202.782 -55.6095 196.69 -17.7512 191.364C20.107 186.039 58.3632 181.493 98.1172 178.521C137.871 175.555 182.611 175.44 216.829 171.856C251.048 168.265 278.116 163.026 301.253 156.521C324.389 150.016 341.288 143.283 355.659 136.646C370.03 130.015 381.814 123.453 393.517 117.2C405.22 110.942 416.805 104.981 430.486 99.7415C444.166 94.5021 459.918 89.9842 480.105 86.9551C500.304 83.926 524.891 81.5898 558.525 86.0905C592.159 90.5969 631.281 98.1782 674.897 108.663C696.699 113.902 719.636 119.869 743.58 126.505C767.524 133.142 792.474 140.465 818.302 148.384C844.13 156.309 870.835 164.835 898.243 173.86C925.651 182.884 953.784 192.389 982.409 202.238C1011.05 212.081 1040.22 222.256 1069.76 232.443C1099.31 242.63 1129.22 252.834 1159.24 262.642C1189.25 272.457 1219.32 281.945 1248.96 290.803C1278.6 299.662 1307.83 307.884 1336.13 315.156C1364.44 322.428 1391.84 328.739 1417.8 333.76C1443.75 338.782 1468.28 342.51 1490.81 344.611C1535.88 348.82 1571.22 345.379 1599.43 340.821C1627.65 336.263 1648.81 329.099 1666.28 320.556C1683.75 312.013 1697.58 302.107 1711.71 292.252C1725.83 282.397 1740.29 272.612 1759 264.269C1777.71 255.932 1800.74 249.049 1831.26 244.857" stroke="#8F8F8F" stroke-width="0.5" stroke-miterlimit="10"/>
<path d="M-515.468 261.09C-469.933 258.347 -425.263 255.106 -382.092 251.201C-338.921 247.295 -297.54 242.669 -257.189 237.647C-216.838 232.625 -177.669 227.174 -139.074 221.763C-100.478 216.352 -62.4327 210.975 -24.0947 206.297C14.2551 201.613 52.9091 197.622 92.8387 195.028C132.768 192.434 177.812 192.818 212.054 189.09C246.296 185.362 272.908 179.625 295.132 172.301C317.355 164.983 333.013 157.207 346.038 149.5C359.075 141.793 369.397 134.131 379.684 126.859C389.982 119.587 400.198 112.704 412.65 106.72C425.102 100.737 439.777 95.6519 459.098 92.2964C478.431 88.9352 501.766 85.8202 535.189 90.4813C568.624 95.1423 607.793 103.142 651.654 114.193C673.585 119.719 696.686 126 720.852 132.986C745.007 139.972 770.215 147.656 796.347 155.959C822.479 164.262 849.512 173.183 877.282 182.597C905.053 192.01 933.572 201.916 962.619 212.137C991.665 222.364 1021.28 232.906 1051.27 243.442C1081.25 253.984 1111.61 264.519 1142.07 274.649C1172.52 284.778 1203.02 294.564 1233.09 303.697C1263.17 312.83 1292.83 321.316 1321.59 328.823C1350.35 336.33 1378.21 342.858 1404.65 348.063C1431.09 353.274 1456.11 357.167 1479.18 359.4C1525.3 363.873 1562.27 361.118 1591.51 356.778C1620.76 352.432 1642.64 345.314 1660.52 336.668C1678.4 328.022 1692.31 317.864 1706.15 307.637C1719.98 297.416 1733.8 287.143 1751.49 278.251C1769.17 269.358 1790.78 261.857 1819.49 257.018" stroke="#8F8F8F" stroke-width="0.5" stroke-miterlimit="10"/>
<path d="M-521.811 270.859C-477.036 267.944 -432.811 264.755 -389.816 261.085C-346.832 257.42 -305.381 253.194 -264.796 248.699C-224.211 244.204 -184.656 239.389 -145.615 234.63C-106.575 229.872 -68.0499 225.182 -29.2906 221.111C9.46877 217.034 48.4621 213.581 88.5205 211.359C128.579 209.132 173.822 209.985 208.099 206.212C242.388 202.438 268.59 196.306 289.982 188.289C311.375 180.278 325.921 171.58 337.73 162.917C349.538 154.253 358.549 145.596 367.56 137.424C376.582 129.248 385.558 121.546 396.922 114.921C408.285 108.29 422.001 102.73 440.573 99.1284C459.145 95.5267 481.404 91.8563 514.581 96.5345C547.758 101.213 586.927 109.493 630.964 120.962C652.977 126.694 676.218 133.227 700.548 140.476C724.878 147.726 750.297 155.702 776.674 164.308C803.052 172.915 830.367 182.145 858.441 191.874C886.528 201.602 915.375 211.818 944.772 222.348C974.181 232.878 1004.16 243.712 1034.52 254.528C1064.88 265.345 1095.62 276.138 1126.44 286.514C1157.27 296.89 1188.13 306.899 1218.57 316.25C1249.01 325.6 1278.77 334.052 1307.75 341.61C1336.75 349.169 1364.9 355.771 1391.76 361.119C1418.61 366.467 1444.15 370.556 1467.88 373.058C1515.34 378.063 1553.75 375.915 1584 371.884C1614.25 367.853 1637.02 360.936 1655.47 352.341C1673.91 343.746 1687.98 333.445 1701.56 322.938C1715.15 312.43 1728.33 301.74 1744.98 292.343C1761.63 282.947 1781.8 274.844 1808.63 269.347" stroke="#8F8F8F" stroke-width="0.5" stroke-miterlimit="10"/>
<path d="M-525.38 281.28C-481.483 278.142 -437.82 274.941 -395.141 271.437C-352.461 267.938 -311.092 264.05 -270.413 260.008C-229.735 255.965 -189.899 251.717 -150.531 247.554C-111.163 243.391 -72.2513 239.331 -33.1642 235.821C5.91108 232.311 45.162 229.362 85.3022 227.484C125.442 225.606 170.709 226.848 205.021 223.121C239.333 219.393 265.173 212.968 285.828 204.385C306.483 195.801 320.012 186.313 330.731 176.825C341.451 167.331 349.28 157.809 357.179 148.853C365.067 139.898 372.978 131.498 383.405 124.334C393.832 117.171 406.729 111.245 424.704 107.494C442.668 103.738 464.119 99.8955 497.015 104.453C529.911 109.011 569.01 117.423 613.141 129.156C635.212 135.019 658.536 141.713 682.994 149.151C707.453 156.589 733.035 164.772 759.6 173.596C786.165 182.42 813.702 191.879 842.034 201.837C870.366 211.789 899.483 222.239 929.172 232.987C958.862 243.734 989.196 254.826 1019.82 265.745C1050.45 276.665 1081.35 287.424 1112.26 297.697C1143.17 307.969 1174.03 317.824 1204.48 327.032C1234.93 336.239 1264.98 344.805 1294.25 352.472C1323.52 360.14 1352.01 366.914 1379.33 372.508C1406.63 378.102 1432.76 382.523 1457.23 385.46C1506.19 391.324 1546.28 389.904 1577.42 386.165C1608.55 382.431 1632.15 375.726 1651.18 367.246C1670.22 358.765 1684.7 348.521 1698.22 337.9C1711.73 327.283 1724.31 316.312 1739.83 306.458C1755.35 296.603 1773.97 287.9 1798.87 281.75" stroke="#8F8F8F" stroke-width="0.5" stroke-miterlimit="10"/>
<path d="M-526 292.338C-481.108 288.788 -436.17 285.381 -392.063 281.825C-347.955 278.269 -305.053 274.461 -262.677 270.624C-220.302 266.788 -178.652 262.86 -137.388 259.115C-96.1246 255.37 -55.2003 251.814 -14.0536 248.894C27.0931 245.968 68.4973 243.683 110.814 242.521C153.131 241.358 198.152 241.53 228.953 236.194C259.755 230.863 283.207 221.661 299.661 211.583C316.115 201.505 326.331 190.654 334.71 180.055C343.089 169.456 349.561 159.063 357.308 149.707C365.067 140.345 374.055 131.991 387.197 125.617C400.339 119.244 417.589 114.83 442.141 113.707C466.682 112.579 500.549 116.066 541.521 125.028C562 129.505 584.048 135.008 607.5 141.439C630.941 147.869 655.786 155.221 681.871 163.392C707.956 171.558 735.294 180.553 763.696 190.219C792.087 199.879 821.894 210.495 852.426 221.386C882.947 232.277 914.228 243.569 945.966 254.901C977.704 266.233 1009.87 277.61 1042.17 288.667C1074.47 299.724 1106.9 310.489 1139.1 320.728C1171.29 330.972 1203.26 340.689 1234.65 349.639C1266.03 358.588 1296.82 366.765 1326.64 373.894C1356.46 381.023 1385.32 387.098 1412.76 391.805C1467.65 401.219 1517.26 403.778 1553.69 401.391C1590.12 399.003 1617.81 393.082 1639.82 384.923C1661.82 376.757 1678.16 366.37 1692.62 355.307C1707.09 344.245 1719.71 332.535 1734.74 321.821C1749.78 311.108 1767.3 301.419 1791.06 294.313" stroke="#8F8F8F" stroke-width="0.5" stroke-miterlimit="10"/>
<path d="M-523.589 303.973C-479.774 300.137 -435.608 296.644 -392.039 293.18C-348.47 289.71 -305.872 286.142 -263.614 282.667C-221.367 279.197 -179.67 275.738 -138.301 272.491C-96.9322 269.245 -55.8674 266.216 -14.6271 263.753C26.6133 261.285 68.0174 259.39 110.147 258.44C152.277 257.495 197.157 257.901 227.748 252.605C258.327 247.302 281.206 237.814 296.922 227.284C312.639 216.748 321.978 205.296 329.479 194.113C336.992 182.924 342.586 171.964 349.573 162.161C356.559 152.353 364.903 143.678 377.554 137.173C390.205 130.668 407.138 126.322 431.55 125.486C455.962 124.656 489.502 128 530.274 136.766C550.66 141.152 572.65 146.604 596.067 153.005C619.484 159.413 644.727 167.074 671.42 175.538C698.114 183.995 726.189 193.231 755.259 203.023C784.328 212.814 814.392 223.156 845.1 233.817C875.796 244.485 907.195 255.542 938.968 266.651C970.741 277.759 1002.86 288.908 1035.04 299.759C1067.21 310.61 1099.44 321.186 1131.42 331.275C1163.4 341.365 1195.13 350.967 1226.32 359.854C1257.49 368.741 1288.13 376.912 1317.88 384.104C1347.63 391.296 1376.5 397.514 1404.12 402.456C1459.34 412.333 1511.19 416.233 1548.6 414.24C1586 412.248 1614.67 406.63 1637.5 398.683C1660.32 390.729 1677.29 380.439 1691.98 369.371C1706.67 358.297 1719.11 346.444 1733.35 335.45C1747.59 324.455 1763.72 314.332 1785.38 306.607" stroke="#8F8F8F" stroke-width="0.5" stroke-miterlimit="10"/>
<path d="M-518.065 316.095C-475.351 311.99 -432.039 308.394 -389.09 304.975C-346.141 301.557 -303.964 298.184 -261.963 295.018C-219.962 291.851 -178.359 288.805 -137.025 285.988C-95.6914 283.176 -54.5916 280.605 -13.398 278.538C27.7955 276.465 69.106 274.902 110.943 274.117C152.78 273.339 197.297 273.888 227.596 268.672C257.894 263.461 280.211 253.801 295.272 242.939C310.322 232.077 318.912 220.172 325.711 208.548C332.499 196.93 337.426 185.564 343.839 175.463C350.263 165.368 358.139 156.527 370.486 150.039C382.844 143.551 399.637 139.406 424.084 138.988C448.543 138.57 481.626 142.017 523.218 150.847C544.013 155.261 566.717 160.861 590.988 167.418C615.259 173.974 641.076 181.487 668.121 189.738C695.166 197.995 723.486 207.002 752.696 216.547C781.906 226.093 812.017 236.176 842.69 246.575C873.351 256.973 904.656 267.767 936.253 278.601C967.85 289.44 999.728 300.326 1031.57 310.93C1063.41 321.535 1095.26 331.876 1126.83 341.765C1158.41 351.654 1189.72 361.096 1220.51 369.869C1251.31 378.647 1281.59 386.755 1311.08 393.958C1340.57 401.162 1369.26 407.46 1396.85 412.574C1452.01 422.801 1505.75 428.046 1544.1 426.465C1582.45 424.891 1612.14 419.611 1635.82 411.898C1659.5 404.185 1677.17 394.044 1692.18 382.987C1707.18 371.936 1719.56 359.98 1733.14 348.734C1746.71 337.482 1761.57 326.952 1781.26 318.638" stroke="#8F8F8F" stroke-width="0.5" stroke-miterlimit="10"/>
<path d="M-509.827 328.309C-467.791 324.502 -425.193 320.619 -383.134 317.166C-341.074 313.714 -299.225 310.57 -257.587 307.655C-215.937 304.741 -174.556 302.044 -133.386 299.599C-92.2162 297.159 -51.2334 294.978 -10.2154 293.231C30.8026 291.485 71.8791 290.179 113.295 289.515C154.711 288.845 198.654 289.441 228.578 284.356C258.49 279.271 280.257 269.531 294.71 258.463C309.163 247.4 317.133 235.18 323.37 223.282C329.608 211.383 334.02 199.77 340.07 189.549C346.12 179.328 353.739 170.482 366.003 164.16C378.256 157.838 395.751 154.449 421.252 154.597C446.752 154.746 480.069 157.844 523.042 166.491C544.528 170.814 567.781 176.282 592.45 182.667C617.12 189.051 643.217 196.358 670.426 204.38C697.634 212.402 725.99 221.157 755.153 230.428C784.316 239.698 814.287 249.49 844.737 259.596C875.188 269.697 906.212 280.182 937.446 290.718C968.681 301.254 1000.14 311.835 1031.5 322.154C1062.85 332.472 1094.15 342.544 1125.16 352.193C1156.16 361.847 1186.89 371.077 1217.14 379.695C1247.39 388.313 1277.15 396.312 1306.21 403.481C1335.27 410.644 1363.61 416.972 1390.97 422.2C1445.69 432.661 1500.81 439.195 1540.08 438.055C1579.34 436.916 1610.02 432.008 1634.6 424.57C1659.16 417.132 1677.61 407.169 1693.02 396.169C1708.43 385.175 1720.85 373.156 1733.9 361.687C1746.93 350.217 1760.67 339.315 1778.53 330.434" stroke="#8F8F8F" stroke-width="0.5" stroke-miterlimit="10"/>
<path d="M-499.517 339.887C-458.042 336.457 -416.1 333.004 -374.368 329.769C-332.636 326.533 -291.56 323.344 -250.378 320.59C-209.196 317.836 -168.166 315.436 -127.289 313.3C-86.4112 311.159 -45.6975 309.304 -4.98381 307.815C35.7182 306.326 76.4202 305.21 117.286 304.585C158.152 303.961 201.323 304.545 230.744 299.609C260.153 294.674 281.323 284.922 295.226 273.756C309.128 262.59 316.595 250.211 322.411 238.186C328.227 226.167 332.335 214.468 338.198 204.288C344.061 194.107 352.861 185.935 366.752 180.249C380.644 174.569 399.719 171.454 425.746 171.46C451.773 171.466 484.833 174.123 528.835 182.569C550.836 186.794 574.44 192.108 599.355 198.309C624.259 204.511 650.461 211.594 677.658 219.37C704.855 227.14 733.094 235.615 762.035 244.593C790.987 253.566 820.642 263.043 850.706 272.823C880.77 282.603 911.349 292.75 942.081 302.953C972.812 313.157 1003.68 323.407 1034.39 333.405C1065.11 343.402 1095.7 353.171 1126 362.545C1156.3 371.924 1186.3 380.908 1215.87 389.331C1245.43 397.749 1274.53 405.605 1303 412.682C1331.48 419.76 1359.32 426.064 1386.3 431.366C1440.26 441.96 1490.84 448.55 1535.34 448.848C1579.83 449.146 1608.02 443.82 1633.48 436.686C1658.94 429.557 1678.18 419.811 1694.07 408.914C1709.97 398.018 1722.53 385.976 1735.16 374.329C1747.8 362.688 1760.56 351.448 1776.75 342.045" stroke="#8F8F8F" stroke-width="0.5" stroke-miterlimit="10"/>
<path d="M-486.96 350.789C-444.081 347.543 -400.629 344.25 -357.399 341.175C-314.17 338.106 -271.63 335.066 -228.939 332.5C-186.259 329.929 -143.743 327.708 -101.379 325.835C-59.0155 323.969 -16.8038 322.451 25.3376 321.289C67.479 320.121 109.574 319.307 151.668 318.832C193.763 318.363 231.762 316.496 256.326 309.321C280.89 302.141 297.706 289.423 307.747 276.963C317.788 264.503 323.066 251.419 328.988 239.526C334.909 227.633 341.451 216.92 352.147 208.514C362.855 200.108 377.694 193.981 398.935 190.855C420.175 187.728 447.793 187.573 483.229 190.883C518.653 194.193 568.823 203.79 621.848 216.874C648.366 223.419 676.102 230.857 704.773 238.976C733.445 247.102 763.041 255.914 793.281 265.219C823.532 274.524 854.357 284.298 885.533 294.348C916.709 304.397 948.224 314.715 979.857 325.108C1011.49 335.501 1042.96 345.716 1074.16 355.628C1105.36 365.54 1136.29 375.142 1166.87 384.293C1197.45 393.437 1227.64 402.118 1257.3 410.129C1286.97 418.139 1316.1 425.48 1344.51 431.922C1372.93 438.364 1400.62 443.901 1427.34 448.27C1454.06 452.639 1479.82 455.84 1504.24 457.564C1553.11 461.011 1591.07 457.277 1620.58 450.996C1650.09 444.714 1672.36 435.266 1690.32 424.261C1708.28 413.261 1721.95 400.721 1734.93 388.364C1747.92 376.007 1760.29 363.851 1775.68 353.509" stroke="#8F8F8F" stroke-width="0.5" stroke-miterlimit="10"/>
<path d="M-471.957 360.993C-429.628 358.055 -386.668 355.055 -343.894 352.249C-301.133 349.438 -259.038 346.649 -216.791 344.302C-174.533 341.954 -132.45 339.933 -90.5426 338.255C-48.6469 336.577 -6.92681 335.243 34.6412 334.258C76.2092 333.273 117.625 332.637 158.9 332.363C200.188 332.088 234.605 329.162 257.952 321.798C281.299 314.434 297.812 301.888 308.379 289.755C318.958 277.621 325.453 265.024 332.838 253.635C340.234 242.251 348.473 232.065 360.819 224.111C373.154 216.158 389.549 210.414 412.018 207.523C434.476 204.625 462.983 204.568 498.724 207.752C534.464 210.936 584.844 220.2 637.67 232.843C664.083 239.171 691.596 246.346 719.916 254.179C748.237 262.006 777.377 270.492 807.066 279.448C836.756 288.404 866.961 297.806 897.423 307.471C927.885 317.137 958.628 327.066 989.43 337.069C1020.24 347.073 1050.81 356.905 1081.06 366.438C1111.32 375.978 1141.27 385.231 1170.89 394.061C1200.5 402.891 1229.73 411.285 1258.47 419.067C1287.22 426.849 1315.48 434.012 1343.12 440.351C1370.75 446.689 1397.76 452.198 1423.94 456.636C1450.11 461.073 1475.44 464.44 1499.66 466.45C1548.07 470.464 1588.36 467.658 1618.78 461.795C1649.2 455.931 1672.39 446.827 1691.01 436.045C1709.63 425.262 1723.7 412.825 1736.55 400.406C1749.41 387.986 1761.12 375.6 1775.1 364.812" stroke="#8F8F8F" stroke-width="0.5" stroke-miterlimit="10"/>
<path d="M-454.321 370.481C-412.519 367.819 -370.05 365.076 -327.757 362.505C-285.463 359.934 -243.848 357.363 -202.046 355.221C-160.244 353.08 -118.606 351.242 -77.19 349.736C-35.7741 348.236 5.41942 347.062 46.3789 346.243C87.3383 345.424 128.064 344.955 168.532 344.857C208.988 344.766 239.532 340.563 261.826 333.056C284.119 325.549 300.491 313.221 311.738 301.476C322.984 289.732 330.837 277.685 339.801 266.885C348.777 256.08 358.841 246.5 372.908 239.085C386.974 231.664 405.008 226.396 428.753 223.825C452.509 221.254 481.965 221.38 518.091 224.535C554.218 227.69 604.492 236.634 656.874 248.848C683.064 254.952 710.226 261.869 738.091 269.405C765.955 276.94 794.521 285.088 823.555 293.695C852.59 302.29 882.045 311.32 911.7 320.596C941.355 329.872 971.22 339.395 1001.11 348.997C1031 358.6 1060.57 368.025 1089.8 377.175C1119.04 386.325 1147.94 395.206 1176.5 403.698C1205.05 412.19 1233.24 420.275 1260.98 427.794C1288.71 435.312 1316.02 442.269 1342.77 448.465C1369.52 454.66 1395.74 460.1 1421.22 464.561C1446.71 469.021 1471.51 472.497 1495.34 474.736C1543 479.208 1585.19 477.416 1616.47 472.005C1647.75 466.593 1671.84 457.873 1691.15 447.36C1710.46 436.852 1725 424.57 1737.84 412.144C1750.68 399.719 1761.87 387.167 1774.63 376.013" stroke="#8F8F8F" stroke-width="0.5" stroke-miterlimit="10"/>
<path d="M-434.497 378.967C-391.138 376.436 -346.715 373.916 -303.204 371.345C-259.705 368.774 -216.159 366.455 -172.824 364.468C-129.477 362.482 -86.3295 360.815 -43.4625 359.515C-0.607247 358.216 41.9672 357.277 84.1788 356.733C126.39 356.189 171.937 357.821 206.8 354.963C241.65 352.1 266.156 345.412 285.945 334.865C305.734 324.317 318.057 312.023 329.175 300.228C340.292 288.432 350.158 277.123 362.82 267.641C375.471 258.152 390.872 250.474 411.445 245.378C432.006 240.276 457.706 237.745 489.83 238.197C521.954 238.649 559.987 241.409 610.683 250.588C636.031 255.181 662.585 260.798 690.004 267.228C717.435 273.653 745.744 280.885 774.662 288.724C803.579 296.563 833.14 305.02 863.029 313.884C892.917 322.743 923.134 332.007 953.409 341.467C983.684 350.921 1014.04 360.563 1044.12 370.074C1074.19 379.585 1103.99 388.976 1133.29 397.949C1162.58 406.922 1191.49 415.568 1219.97 423.728C1248.46 431.887 1276.51 439.572 1304.08 446.586C1331.65 453.6 1358.76 459.951 1385.27 465.425C1411.78 470.893 1437.7 475.48 1462.85 478.927C1513.13 485.827 1562.7 487.608 1598.66 483.525C1634.62 479.442 1662.44 471.42 1684.51 461.142C1706.59 450.858 1722.93 438.329 1736.73 425.382C1750.54 412.436 1761.85 399.094 1774.19 387.069" stroke="#8F8F8F" stroke-width="0.5" stroke-miterlimit="10"/>
<path d="M-412.659 386.657C-369.851 384.372 -325.954 382.088 -283.005 379.734C-240.056 377.381 -197.06 375.274 -154.275 373.47C-111.478 371.666 -68.8923 370.177 -26.6338 369.049C15.6246 367.921 57.5437 367.143 99.0064 366.759C140.469 366.381 184.6 367.979 217.169 364.532C249.725 361.084 273.154 354.242 292.745 343.878C312.335 333.513 325.512 321.723 337.952 310.558C350.392 299.386 362.048 288.81 376.548 280.038C391.047 271.265 408.356 264.291 430.567 259.773C452.779 255.255 479.871 253.188 512.896 253.921C545.933 254.66 584.2 257.471 634.522 266.404C659.683 270.87 685.885 276.304 712.837 282.488C739.8 288.678 767.512 295.624 795.727 303.137C823.954 310.655 852.719 318.752 881.73 327.232C910.741 335.707 940.009 344.565 969.278 353.606C998.546 362.642 1027.83 371.855 1056.79 380.942C1085.75 390.03 1114.4 398.991 1142.52 407.563C1170.65 416.135 1198.36 424.392 1225.67 432.208C1252.97 440.024 1279.88 447.394 1306.35 454.15C1332.82 460.913 1358.87 467.068 1384.43 472.416C1409.98 477.765 1435.03 482.317 1459.43 485.827C1508.23 492.847 1557.75 495.693 1594.48 492.171C1631.21 488.65 1659.94 481.154 1682.8 471.283C1705.67 461.417 1722.67 449.197 1736.72 436.399C1750.76 423.596 1761.88 410.237 1773.34 397.983" stroke="#8F8F8F" stroke-width="0.5" stroke-miterlimit="10"/>
<path d="M-389.254 393.706C-347.007 391.656 -303.66 389.589 -261.285 387.448C-218.921 385.306 -176.499 383.394 -134.311 381.779C-92.1106 380.164 -50.1213 378.847 -8.51822 377.88C33.0849 376.912 74.3135 376.299 114.992 376.082C155.671 375.864 197.648 377.078 228.239 373.156C258.83 369.233 281.416 362.31 301.007 352.204C320.597 342.097 334.746 330.869 348.578 320.361C362.411 309.854 375.88 300.045 392.206 292.017C408.543 283.995 427.7 277.736 451.515 273.82C475.318 269.909 503.744 268.328 537.624 269.365C571.503 270.401 610.04 273.322 659.8 281.997C684.68 286.331 710.449 291.576 736.862 297.526C763.275 303.475 790.332 310.134 817.798 317.326C845.276 324.518 873.187 332.26 901.273 340.357C929.372 348.453 957.634 356.905 985.86 365.523C1014.09 374.14 1042.27 382.924 1070.1 391.582C1097.93 400.24 1125.4 408.783 1152.33 416.943C1179.26 425.108 1205.77 432.976 1231.89 440.437C1258.01 447.898 1283.72 454.947 1309.07 461.44C1334.41 467.934 1359.36 473.871 1383.9 479.076C1408.45 484.281 1432.56 488.759 1456.15 492.298C1503.32 499.37 1549.28 503.029 1589.46 500.269C1626.31 497.738 1656.51 490.408 1680.17 481.006C1703.83 471.604 1721.55 459.757 1735.92 447.171C1750.29 434.585 1761.36 421.277 1772.13 408.869" stroke="#8F8F8F" stroke-width="0.5" stroke-miterlimit="10"/>
<path d="M-364.726 400.273C-320.852 398.355 -275.879 396.368 -231.912 394.353C-187.945 392.337 -143.954 390.568 -100.244 389.119C-56.5349 387.676 -13.1062 386.554 29.8193 385.832C72.7448 385.105 115.155 384.773 156.817 384.905C198.479 385.036 234.312 383.153 261.346 377.1C288.367 371.048 309.83 361.325 328.098 350.634C346.366 339.944 361.439 329.001 377.916 319.421C394.405 309.842 412.252 301.608 434.136 295.589C456.02 289.571 481.895 285.746 513.036 284.532C544.188 283.318 580.572 284.698 622.561 288.838C643.556 290.911 668.003 294.232 693.971 298.836C719.939 303.446 746.727 308.96 774.064 315.184C801.402 321.408 829.336 328.343 857.575 335.792C885.813 343.242 914.356 351.207 942.946 359.498C971.536 367.789 1000.31 376.47 1028.84 385.197C1057.36 393.923 1085.63 402.684 1113.31 411.182C1141 419.679 1168.16 427.93 1194.87 435.827C1221.58 443.723 1247.82 451.276 1273.66 458.336C1299.52 465.402 1324.97 471.981 1350.04 477.913C1375.12 483.846 1399.81 489.131 1424.08 493.563C1472.62 502.432 1519.56 507.941 1563.2 508.015C1606.84 508.09 1641.53 501.854 1668.62 493.076C1695.71 484.298 1715.91 472.519 1731.88 459.659C1747.86 446.798 1759.64 432.883 1770.46 419.748" stroke="#8F8F8F" stroke-width="0.5" stroke-miterlimit="10"/>
<path d="M-339.541 406.516C-296.276 404.821 -251.899 403.051 -208.599 401.248C-165.288 399.438 -121.953 397.864 -78.9335 396.604C-35.9144 395.344 6.81215 394.399 48.9536 393.844C91.1067 393.294 132.686 393.128 173.412 393.437C214.137 393.752 246.285 390.546 272.499 384.425C298.701 378.303 320.328 368.907 339.52 358.8C358.701 348.682 375.389 338.524 393.657 329.758C411.925 320.991 431.749 313.604 455.424 308.342C479.098 303.08 506.611 299.936 538.946 299.221C571.292 298.516 608.46 300.234 650.636 304.483C692.801 308.732 746.318 318.042 799.542 329.935C826.165 335.885 853.269 342.493 880.583 349.581C907.909 356.67 935.445 364.246 962.97 372.125C990.495 380.004 1018.16 388.25 1045.51 396.529C1072.86 404.809 1099.9 413.124 1126.34 421.174C1152.78 429.225 1178.67 437.036 1204.09 444.525C1229.52 452.009 1254.48 459.161 1279.07 465.872C1328.25 479.294 1375.98 490.975 1422.42 499.622C1468.84 508.268 1514.01 513.88 1556.54 514.607C1599.07 515.334 1635.91 510.095 1663.82 501.912C1691.73 493.73 1712.77 482.461 1729.3 469.961C1745.81 457.461 1757.84 443.752 1768.31 430.623" stroke="#8F8F8F" stroke-width="0.5" stroke-miterlimit="10"/>
<path d="M-314.192 412.585C-271.536 411.108 -227.78 409.55 -185.123 407.941C-142.467 406.332 -99.8106 404.946 -57.4819 403.864C-15.1532 402.788 26.8361 402.015 68.1934 401.631C109.551 401.247 150.288 401.253 190.054 401.746C229.819 402.232 258.526 397.669 284.249 391.599C309.971 385.529 332.019 376.545 352.288 367.068C372.557 357.586 390.919 348.241 410.989 340.305C431.071 332.374 452.826 325.824 478.244 321.311C503.663 316.799 532.697 314.308 566.167 314.091C599.625 313.873 637.495 315.917 679.765 320.269C722.035 324.615 774.089 333.445 825.791 344.771C851.643 350.434 877.88 356.71 904.258 363.444C930.636 370.172 957.154 377.352 983.614 384.819C1010.06 392.28 1036.58 400.091 1062.76 407.93C1088.93 415.763 1114.75 423.625 1139.95 431.235C1165.15 438.839 1189.76 446.214 1213.91 453.28C1238.05 460.346 1261.74 467.103 1285.06 473.459C1331.71 486.159 1376.99 497.256 1421.22 505.622C1465.46 513.988 1508.73 519.617 1549.94 520.871C1591.16 522.125 1629.46 517.979 1658.18 510.421C1686.9 502.862 1708.78 492.137 1725.89 480.05C1743 467.956 1755.38 454.511 1765.69 441.456" stroke="#8F8F8F" stroke-width="0.5" stroke-miterlimit="10"/>
<path d="M-289.196 418.638C-244.796 417.298 -199.296 415.832 -154.955 414.366C-110.613 412.895 -66.3066 411.669 -22.4449 410.782C21.4169 409.894 64.8222 409.356 107.397 409.27C149.971 409.184 194.137 411.102 228.906 408.698C263.674 406.293 292.03 400.767 317.051 393.541C342.083 386.32 365.406 375.973 387.477 367.012C409.549 358.05 431.468 349.914 456.289 343.644C481.111 337.368 508.788 332.942 540.701 330.794C572.614 328.647 608.74 328.767 649.314 331.241C689.887 333.72 735.036 338.038 786.68 346.953C812.508 351.414 838.804 356.67 865.346 362.534C891.887 368.397 918.663 374.868 945.509 381.768C972.355 388.668 999.225 396.003 1025.93 403.578C1052.64 411.148 1079.18 418.964 1105.43 426.838C1131.68 434.717 1157.11 442.361 1181.89 449.719C1206.69 457.077 1230.84 464.155 1254.58 470.877C1302.04 484.328 1347.72 496.364 1392.48 505.955C1437.23 515.546 1481.12 522.692 1523.6 525.779C1566.08 528.865 1608.97 527.342 1641.69 520.82C1674.4 514.298 1699.4 503.974 1718.73 491.857C1738.05 479.741 1751.72 465.861 1762.6 452.221" stroke="#8F8F8F" stroke-width="0.5" stroke-miterlimit="10"/>
<path d="M-265.065 424.81C-221.262 423.682 -176.359 422.417 -132.673 421.134C-88.9865 419.857 -45.3472 418.804 -2.19933 418.094C40.9485 417.378 83.6049 417.006 125.337 417.086C167.069 417.166 209.198 418.798 242.773 416.164C276.337 413.53 304.54 408.164 330.157 401.379C355.763 394.594 380.491 385.025 404.306 376.917C428.109 368.804 452.076 361.583 478.829 356.172C505.581 350.755 535.072 347.113 568.436 345.607C601.801 344.101 638.992 344.708 680.092 347.462C721.192 350.217 766.188 354.586 816.475 363.026C841.612 367.246 867.113 372.21 892.753 377.736C918.394 383.262 944.187 389.354 969.968 395.853C995.749 402.353 1021.48 409.247 1047.01 416.37C1072.53 423.488 1097.83 430.834 1122.82 438.238C1147.8 445.642 1171.92 452.811 1195.4 459.705C1218.87 466.599 1241.69 473.224 1264.09 479.523C1308.89 492.12 1351.91 503.401 1394.16 512.471C1436.41 521.546 1477.98 528.412 1518.58 531.653C1559.18 534.894 1600.92 534.379 1634.39 528.572C1667.85 522.76 1693.72 513.083 1713.77 501.477C1733.8 489.87 1748.05 476.368 1759.03 462.917" stroke="#8F8F8F" stroke-width="0.5" stroke-miterlimit="10"/>
<path d="M-242.303 431.258C-199.038 430.324 -154.685 429.242 -111.596 428.143C-68.5064 427.038 -25.4756 426.156 17.0052 425.601C59.4861 425.051 101.44 424.828 142.376 425.068C183.312 425.308 223.406 426.551 256.255 423.848C289.105 421.146 317.519 416.072 343.99 409.808C370.462 403.544 396.805 394.823 422.457 387.585C448.121 380.342 474.148 374.049 502.82 369.468C531.491 364.893 562.772 362.024 597.518 361.119C632.263 360.22 670.473 361.28 712.029 364.286C753.585 367.286 798.43 371.701 847.277 379.614C871.7 383.571 896.37 388.221 921.086 393.397C945.802 398.573 970.6 404.277 995.316 410.358C1020.03 416.439 1044.63 422.898 1068.97 429.563C1093.31 436.228 1117.39 443.099 1141.1 450.028C1188.52 463.879 1232.4 476.809 1274.54 488.536C1316.7 500.274 1357.06 510.776 1396.8 519.285C1436.54 527.799 1475.72 534.321 1514.33 537.608C1552.94 540.901 1590.98 540.941 1626.54 536.091C1662.09 531.241 1687.48 521.976 1708.26 510.902C1729.03 499.822 1743.86 486.715 1755.09 473.499" stroke="#8F8F8F" stroke-width="0.5" stroke-miterlimit="10"/>
<path d="M-221.461 438.13C-176.16 437.334 -129.77 436.326 -84.7031 435.353C-39.6477 434.379 5.29064 433.647 49.4918 433.292C93.6929 432.942 137.18 432.977 179.322 433.561C221.475 434.145 258.841 433.503 291.679 429.776C324.517 426.048 352.486 421.078 382.82 413.599C413.142 406.121 441.439 398.758 471.304 392.842C501.181 386.927 532.591 382.432 567.208 379.896C601.824 377.365 639.601 376.781 680.782 378.218C721.976 379.655 766.575 383.108 813.924 388.393C861.273 393.679 912.636 401.741 963.005 412.283C988.189 417.556 1013.39 423.374 1038.34 429.535C1063.29 435.696 1087.99 442.201 1112.27 448.866C1136.56 455.531 1160.41 462.334 1183.53 468.982C1206.66 475.63 1229.07 482.129 1250.65 488.222C1293.79 500.412 1334.39 511.452 1374.14 520.689C1413.9 529.93 1452.88 537.374 1491.67 541.846C1530.47 546.318 1569.12 547.801 1606.05 544.618C1642.98 541.434 1674.95 532.942 1698.45 522.051C1721.96 511.16 1738.6 497.733 1750.81 484.007" stroke="#8F8F8F" stroke-width="0.5" stroke-miterlimit="10"/>
<path d="M-203.075 445.561C-158.172 444.937 -112.169 444.078 -67.5579 443.248C-22.9472 442.418 21.5113 441.811 65.1858 441.587C108.86 441.364 151.751 441.524 193.19 442.24C234.629 442.956 270.978 442.04 304.331 438.69C337.683 435.335 366.881 430.971 399.041 424.381C431.211 417.79 461.767 411.434 493.868 406.469C525.968 401.505 559.555 397.909 595.985 396.134C632.416 394.359 671.667 394.382 713.808 396.226C755.95 398.069 800.97 401.717 848.097 406.962C895.223 412.207 944.574 419.428 992.894 429.133C1041.23 438.839 1089.17 450.577 1135.2 462.9C1181.23 475.222 1225.16 488.009 1265.59 499.215C1306.01 510.421 1343.85 520.533 1380.9 529.007C1417.95 537.482 1454.3 544.33 1490.72 548.528C1527.13 552.719 1563.67 554.248 1599.07 551.625C1634.47 549.003 1667.87 541.467 1692.14 531.149C1716.41 520.831 1733.77 507.844 1746.36 494.399" stroke="#8F8F8F" stroke-width="0.5" stroke-miterlimit="10"/>
<path d="M-187.733 453.715C-143.099 453.234 -97.3417 452.495 -53.047 451.78C-8.74056 451.058 35.3903 450.554 78.6669 450.428C121.944 450.302 164.378 450.56 205.255 451.385C246.133 452.203 282.212 451.304 316.442 448.447C350.673 445.59 381.357 441.902 415.599 436.256C449.842 430.616 482.82 425.285 517.214 421.271C551.62 417.263 587.407 414.549 625.686 413.501C663.954 412.453 704.656 413.049 747.734 415.265C790.812 417.48 836.23 421.294 883.146 426.47C930.062 431.647 977.622 438.066 1023.91 446.884C1070.19 455.708 1115.78 466.45 1159.29 477.747C1202.81 489.045 1244.06 500.772 1281.81 510.982C1319.55 521.191 1354.67 530.364 1389.05 538.043C1423.44 545.722 1457.16 551.923 1491.17 555.754C1525.18 559.584 1559.53 561.033 1593.25 558.794C1626.98 556.55 1660.8 549.959 1685.82 540.196C1710.84 530.433 1728.91 517.881 1741.94 504.7" stroke="#8F8F8F" stroke-width="0.5" stroke-miterlimit="10"/>
<path d="M-176.007 462.751C-128.705 462.362 -80.2675 461.629 -33.3748 460.982C13.5179 460.329 60.1415 459.917 105.642 459.963C151.13 460.003 196.537 461.154 237.707 461.629C278.865 462.104 316.957 460.272 354.02 457.254C391.082 454.237 427.688 449.719 466.05 445.104C504.411 440.488 542.667 436.669 582.866 434.425C623.065 432.18 665.195 431.487 709.688 432.483C754.182 433.485 801.004 436.16 849.465 440.294C897.926 444.422 949.313 449.948 997.259 456.453C1045.2 462.963 1092.21 472.022 1137.49 482.312C1182.76 492.601 1226.23 504.323 1265.54 514.75C1304.85 525.177 1340.43 534.556 1374.69 542.539C1408.95 550.521 1441.98 557.128 1475.44 561.549C1508.9 565.97 1542.84 568.197 1576.85 566.903C1610.84 565.603 1646.5 560.375 1674.78 550.962C1703.05 541.548 1723.36 528.687 1737.71 514.95" stroke="#8F8F8F" stroke-width="0.5" stroke-miterlimit="10"/>
<path d="M-168.681 472.686C-121.32 472.388 -72.7775 471.718 -25.8146 471.111C21.1367 470.51 67.8071 470.126 113.26 470.195C158.714 470.27 203.441 471.169 244.986 471.993C286.531 472.818 325.898 471.632 364.798 469.434C403.698 467.24 442.773 463.753 483.862 460.243C524.95 456.733 565.991 453.985 608.659 452.662C651.327 451.339 695.61 451.419 741.742 452.988C787.863 454.551 835.797 457.586 884.726 461.835C933.667 466.084 986.06 472.01 1032.26 477.57C1078.48 483.136 1123.32 491.124 1166.19 500.303C1209.05 509.482 1249.86 520.035 1286.51 529.351C1323.16 538.662 1356.03 546.97 1387.59 553.99C1419.15 561.016 1449.5 566.771 1480.36 570.556C1511.23 574.347 1542.72 576.173 1574.65 574.851C1606.58 573.528 1639.8 568.873 1668.84 560.009C1697.89 551.15 1718.99 538.679 1733.84 525.177" stroke="#8F8F8F" stroke-width="0.5" stroke-miterlimit="10"/>
<path d="M-166.821 482.557C-119.238 482.368 -70.4144 481.767 -23.2057 481.211C24.003 480.656 70.9308 480.295 116.595 480.387C162.259 480.478 206.659 481.011 248.753 482.265C290.848 483.519 331.667 483.089 372.474 481.755C413.282 480.421 454.826 477.97 498.63 475.554C542.433 473.138 586.213 471.431 631.326 471.002C676.44 470.572 722.865 471.397 770.647 473.504C818.429 475.611 867.534 478.995 917.06 483.364C966.585 487.728 1016.53 493.07 1065.34 498.945C1114.16 504.82 1153.16 510.512 1193.89 518.597C1234.62 526.694 1273.02 536.119 1307.26 544.37C1341.51 552.615 1371.94 559.899 1401.06 565.997C1430.18 572.096 1458.02 577.02 1486.48 580.175C1514.94 583.33 1544.1 584.71 1574.01 583.261C1603.94 581.818 1634.62 577.507 1663.59 569.141C1692.56 560.781 1715.31 548.739 1730.76 535.443" stroke="#8F8F8F" stroke-width="0.5" stroke-miterlimit="10"/>
<path d="M-170.109 492.274C-122.187 492.223 -72.9184 491.708 -25.2767 491.209C22.365 490.711 69.7726 490.385 115.87 490.488C161.967 490.591 206.753 491.129 249.152 492.389C291.539 493.649 333.996 494.422 376.676 493.958C419.356 493.494 463.299 492.068 509.736 490.723C556.172 489.371 602.632 488.684 650.168 489.125C697.693 489.566 746.271 491.118 795.761 493.769C845.252 496.42 895.632 500.159 945.907 504.666C996.194 509.178 1046.35 514.446 1094.81 520.017C1143.27 525.589 1181.39 530.13 1220.3 537.178C1259.2 544.227 1295.5 552.587 1327.64 559.825C1359.77 567.063 1388.08 573.384 1415.01 578.606C1441.94 583.829 1467.56 587.957 1493.82 590.477C1520.08 592.996 1547.07 593.901 1575.08 592.257C1603.08 590.614 1632.12 586.382 1659.99 578.486C1687.87 570.59 1712.63 558.943 1728.74 545.848" stroke="#8F8F8F" stroke-width="0.5" stroke-miterlimit="10"/>
<path d="M-178.008 501.923C-129.641 502.043 -79.7992 501.637 -31.549 501.207C16.7013 500.783 64.7526 500.486 111.493 500.606C158.234 500.726 203.652 501.253 246.577 502.507C289.515 503.761 333.002 505.57 377.437 505.966C421.861 506.361 468.075 505.931 517.039 505.622C566.003 505.313 615.084 505.616 664.996 506.91C714.92 508.21 765.663 510.489 816.92 513.69C868.19 516.891 919.951 521.008 971.15 525.698C1022.34 530.387 1072.94 535.644 1121.31 540.969C1169.66 546.3 1207.88 550.016 1245.29 556.08C1282.69 562.144 1317.19 569.514 1347.53 575.801C1377.88 582.094 1404.37 587.516 1429.4 591.914C1454.45 596.312 1478.1 599.678 1502.39 601.568C1526.69 603.463 1551.72 603.87 1577.95 601.957C1604.18 600.051 1631.65 595.785 1658.4 588.175C1685.17 580.565 1711.19 569.353 1728.01 556.429" stroke="#8F8F8F" stroke-width="0.5" stroke-miterlimit="10"/>
<path d="M-189.898 511.589C-141.005 511.916 -90.4606 511.647 -41.473 511.309C7.51447 510.971 56.3849 510.725 103.945 510.862C151.505 510.999 197.754 511.526 241.452 512.769C285.138 514.011 329.023 516.571 375.003 517.791C420.983 519.01 469.291 519.537 520.631 520.236C571.971 520.934 623.58 522.205 675.844 524.347C701.976 525.418 728.261 526.7 754.674 528.195C781.075 529.689 807.593 531.39 834.158 533.28C860.712 535.163 887.3 537.236 913.795 539.452C940.29 541.668 966.68 544.033 992.812 546.49C1045.08 551.403 1096.3 556.688 1144.79 561.847C1193.28 567 1232.42 570.23 1268.68 575.383C1304.92 580.537 1337.94 586.979 1366.83 592.401C1395.72 597.824 1420.71 602.428 1444.17 606.058C1467.64 609.688 1489.63 612.345 1512.22 613.622C1534.82 614.899 1558.11 614.802 1582.76 612.568C1607.39 610.335 1633.42 605.938 1659.13 598.465C1684.84 590.993 1711.43 580.165 1729.02 567.373" stroke="#8F8F8F" stroke-width="0.5" stroke-miterlimit="10"/>
<path d="M-205.124 521.317C-155.633 521.884 -104.316 521.781 -54.4746 521.563C-4.63281 521.34 45.1973 521.151 93.7284 521.317C142.271 521.483 189.515 522.01 234.149 523.247C278.783 524.478 322.505 527.433 369.772 529.425C417.039 531.418 467.197 532.849 520.725 534.504C547.489 535.329 574.358 536.291 601.357 537.425C628.366 538.558 655.505 539.858 682.784 541.347C710.063 542.841 737.459 544.513 764.925 546.369C792.391 548.218 819.928 550.251 847.418 552.433C874.907 554.614 902.374 556.939 929.641 559.373C956.908 561.806 984 564.343 1010.72 566.931C1064.16 572.107 1116.19 577.478 1164.98 582.517C1213.77 587.556 1254.44 590.58 1289.9 594.914C1325.36 599.249 1357.22 604.855 1384.98 609.499C1412.75 614.142 1436.61 618.013 1458.85 620.945C1481.08 623.877 1501.75 625.875 1522.97 626.568C1544.18 627.261 1566.03 626.654 1589.32 624.054C1612.61 621.46 1637.4 616.845 1662.18 609.373C1686.97 601.9 1713.56 591.33 1731.94 578.612" stroke="#8F8F8F" stroke-width="0.5" stroke-miterlimit="10"/>
<path d="M-222.993 531.166C-172.87 532.013 -120.688 532.099 -69.9101 532.014C-19.1321 531.922 31.763 531.813 81.4058 532.019C131.049 532.231 179.439 532.758 225.15 533.989C270.873 535.214 314.102 538.198 362.329 540.883C410.556 543.569 462.27 545.825 517.706 548.367C545.43 549.644 573.329 551.047 601.392 552.61C629.455 554.173 657.682 555.903 686.026 557.792C714.37 559.682 742.831 561.738 771.315 563.942C799.8 566.147 828.319 568.5 856.745 570.968C885.159 573.436 913.48 576.018 941.543 578.67C969.606 581.321 997.4 584.041 1024.74 586.766C1052.07 589.492 1078.97 592.229 1105.17 594.897C1131.37 597.571 1156.9 600.177 1181.5 602.656C1230.68 607.603 1273.07 610.615 1308.11 614.24C1343.14 617.865 1374.19 622.737 1401.21 626.7C1428.23 630.668 1451.32 633.898 1472.7 636.217C1494.09 638.53 1513.8 639.944 1534 640.093C1554.2 640.242 1574.95 639.137 1597.21 636.142C1619.47 633.147 1643.27 628.246 1667.33 620.653C1691.38 613.055 1717.64 602.576 1736.84 589.847" stroke="#8F8F8F" stroke-width="0.5" stroke-miterlimit="10"/>
<path d="M-242.76 541.164C-191.993 542.326 -138.922 542.636 -87.1489 542.704C-35.3644 542.767 16.654 542.756 67.4789 543.019C118.304 543.288 167.923 543.832 214.816 545.064C261.72 546.295 304.435 549.003 353.235 552.284C377.636 553.922 403.054 555.491 429.502 557.071C455.962 558.646 483.452 560.232 511.971 561.91C540.491 563.587 569.279 565.397 598.278 567.367C627.278 569.331 656.476 571.455 685.803 573.717C715.13 575.984 744.574 578.401 774.018 580.937C803.462 583.48 832.918 586.142 862.209 588.897C891.513 591.645 920.664 594.48 949.477 597.348C978.3 600.217 1006.78 603.114 1034.74 605.977C1062.69 608.841 1090.1 611.675 1116.73 614.406C1143.36 617.132 1169.21 619.754 1194.02 622.188C1243.64 627.061 1287.6 630.136 1322.57 633.165C1357.55 636.194 1388.14 640.448 1414.78 643.844C1441.41 647.234 1464.13 649.937 1485.04 651.729C1505.95 653.515 1525.11 654.414 1544.68 654.071C1564.23 653.727 1584.27 652.141 1605.83 648.74C1627.4 645.339 1650.54 640.093 1674.12 632.277C1697.69 624.461 1723.53 613.92 1743.52 601.087" stroke="#8F8F8F" stroke-width="0.5" stroke-miterlimit="10"/>
<path d="M-263.637 551.334C-215.258 552.76 -164.445 553.367 -114.802 553.619C-65.1589 553.876 -15.0947 553.979 34.1152 554.254C83.3367 554.529 131.692 554.976 177.871 555.949C224.05 556.917 264.916 557.53 309.257 561.131C353.599 564.739 399.099 568.312 453.048 571.833C480.023 573.597 507.396 575.475 535.049 577.491C562.715 579.506 590.672 581.654 618.841 583.927C647.009 586.206 675.376 588.611 703.837 591.13C732.298 593.65 760.853 596.289 789.372 599.009C817.892 601.729 846.376 604.541 874.662 607.392C902.959 610.244 931.069 613.141 958.816 616.033C986.563 618.925 1013.96 621.811 1040.79 624.633C1067.64 627.456 1093.92 630.216 1119.45 632.845C1170.51 638.107 1218.52 642.854 1261.62 646.536C1304.72 650.212 1338.16 651.695 1368.26 654.615C1398.35 657.53 1424.56 660.857 1447.63 663.233C1470.69 665.604 1490.79 667.333 1509.7 668.186C1528.6 669.045 1546.36 669.045 1564.68 667.871C1582.99 666.703 1601.93 664.361 1622.22 660.37C1642.51 656.373 1664.18 650.704 1686.22 642.791C1708.25 634.877 1732.22 624.645 1751.8 612.385" stroke="#8F8F8F" stroke-width="0.5" stroke-miterlimit="10"/>
<path d="M-284.831 561.703C-235.902 563.501 -184.293 564.383 -133.726 564.852C-83.1701 565.316 -32.0293 565.574 18.3157 565.958C68.6608 566.347 118.233 566.862 165.583 567.887C212.932 568.912 258.069 570.447 299.508 572.892C340.948 575.337 388.507 580.616 442.925 584.682C470.134 586.709 497.881 588.879 526.014 591.192C554.147 593.506 582.667 595.962 611.444 598.545C640.221 601.127 669.255 603.841 698.407 606.659C727.558 609.476 756.815 612.396 786.036 615.385C815.246 618.374 844.421 621.432 873.374 624.507C902.326 627.587 931.056 630.685 959.389 633.749C987.721 636.812 1015.63 639.847 1042.93 642.779C1070.24 645.71 1096.92 648.545 1122.75 651.213C1174.43 656.556 1222.73 661.228 1265.7 664.641C1308.64 668.059 1343.45 669.393 1373.98 671.982C1404.5 674.57 1430.97 677.553 1454.39 679.614C1477.81 681.676 1498.25 683.096 1517.43 683.628C1536.61 684.167 1554.56 683.817 1573 682.288C1591.44 680.754 1610.42 678.034 1630.76 673.665C1651.1 669.296 1672.82 663.266 1694.96 655.032C1717.1 646.798 1741.09 636.302 1761.46 623.779" stroke="#8F8F8F" stroke-width="0.5" stroke-miterlimit="10"/>
<path d="M-305.521 572.291C-256.077 574.49 -203.719 575.692 -152.286 576.402C-100.841 577.118 -48.6818 577.553 2.76328 578.086C54.2084 578.618 104.94 579.237 153.412 580.353C201.896 581.47 248.134 583.079 290.556 585.61C332.978 588.141 377.741 593.351 432.194 597.835C459.414 600.08 487.325 602.49 515.74 605.056C544.142 607.621 573.048 610.341 602.258 613.192C631.479 616.044 661.017 619.027 690.695 622.102C720.373 625.183 750.191 628.355 779.963 631.579C809.735 634.803 839.46 638.084 868.95 641.359C898.43 644.634 927.675 647.91 956.452 651.122C985.24 654.334 1013.56 657.484 1041.2 660.507C1068.84 663.525 1095.81 666.416 1121.85 669.096C1173.92 674.456 1222.3 679.008 1264.89 682.106C1307.47 685.203 1343.14 686.337 1374.45 688.725C1405.74 691.113 1432.81 693.873 1456.95 695.745C1481.1 697.612 1502.27 698.831 1522.1 699.129C1541.94 699.427 1560.5 698.814 1579.47 696.976C1598.43 695.138 1617.86 692.069 1638.63 687.345C1659.39 682.615 1681.5 676.213 1704.08 667.619C1726.65 659.03 1751.01 648.213 1772.2 635.341" stroke="#8F8F8F" stroke-width="0.5" stroke-miterlimit="10"/>
<path d="M-324.901 583.119C-275.012 585.753 -221.964 587.299 -169.7 588.295C-117.435 589.286 -64.3051 589.945 -11.8301 590.66C40.6448 591.37 92.4526 592.138 141.978 593.386C191.504 594.629 238.748 596.358 282.036 599.015C325.325 601.677 367.443 606.693 421.462 611.492C448.472 613.891 476.336 616.491 504.797 619.256C533.258 622.022 562.34 624.96 591.795 628.034C621.263 631.104 651.105 634.316 681.134 637.614C711.163 640.912 741.356 644.302 771.514 647.726C801.672 651.151 831.783 654.615 861.636 658.056C891.49 661.498 921.062 664.91 950.144 668.237C979.225 671.558 1007.8 674.793 1035.63 677.863C1063.46 680.932 1090.08 683.566 1115.87 686.022C1167.42 690.941 1215.26 694.966 1257.91 697.824C1300.57 700.681 1336.99 701.345 1368.67 703.109C1400.35 704.873 1428.01 707.472 1453.38 709.677C1478.75 711.881 1501.67 713.822 1522.98 714.366C1544.29 714.91 1563.68 713.897 1583.59 711.813C1603.49 709.728 1623.81 706.361 1645.39 701.294C1666.97 696.226 1689.86 689.447 1713.2 680.462C1736.53 671.478 1761.68 660.307 1783.74 647.005" stroke="#8F8F8F" stroke-width="0.5" stroke-miterlimit="10"/>
<path d="M-342.35 594.359C-292.051 597.451 -238.371 599.381 -185.358 600.687C-158.851 601.339 -132.099 601.895 -105.288 602.399C-78.4771 602.908 -51.6194 603.366 -24.9255 603.836C28.4739 604.769 81.2531 605.726 131.692 607.151C182.13 608.577 230.228 610.478 274.207 613.33C318.186 616.181 357.94 620.974 411.07 625.967C437.635 628.464 465.219 631.189 493.527 634.104C521.836 637.019 550.859 640.122 580.362 643.369C609.852 646.615 639.811 650 669.981 653.47C700.15 656.94 730.531 660.57 760.864 664.051C791.197 667.533 821.344 670.946 851.104 674.244C880.864 677.542 910.226 680.72 939.014 683.749C967.803 686.778 996.03 689.647 1023.52 692.338C1051.01 695.029 1077.77 697.537 1103.65 699.845C1155.4 704.46 1203.65 708.268 1246.97 711.068C1290.29 713.874 1327.42 714.212 1359.53 715.535C1391.63 716.863 1419.93 719.468 1446.27 722.011C1472.61 724.553 1496.78 727.13 1519.61 728.355C1542.44 729.575 1564.17 729.168 1584.8 726.792C1605.69 724.387 1627.74 720.9 1650.56 715.512C1673.38 710.129 1697.45 702.971 1721.9 693.581C1746.35 684.196 1772.71 672.629 1795.7 658.818" stroke="#8F8F8F" stroke-width="0.5" stroke-miterlimit="10"/>
<path d="M-357.435 606.35C-332.098 608.136 -305.884 609.613 -279.272 610.845C-252.66 612.076 -225.65 613.066 -198.804 613.885C-171.958 614.704 -144.832 615.42 -117.634 616.072C-90.4374 616.731 -63.1818 617.326 -36.0666 617.922C-8.95148 618.517 17.9999 619.119 44.5767 619.771C71.1536 620.43 97.3559 621.14 122.95 621.97C174.137 623.631 222.891 625.761 267.349 628.87C311.808 631.979 349.467 636.6 401.217 641.662C427.091 644.188 453.984 646.953 482.211 650.022C510.438 653.092 539.507 656.315 568.998 659.602C598.489 662.889 628.401 666.227 658.43 669.548C688.459 672.869 718.582 676.168 748.565 679.391C778.547 682.609 808.389 685.753 837.868 688.776C867.347 691.8 896.487 694.697 925.088 697.451C953.69 700.206 981.776 702.811 1009.17 705.25C1036.57 707.69 1063.29 709.963 1089.17 712.059C1140.94 716.25 1189.42 719.726 1233.21 722.383C1277 725.04 1314.74 725.154 1347.29 726.219C1379.83 727.284 1408.78 730.084 1436.1 733.136C1463.42 736.188 1488.85 739.549 1513.22 741.588C1537.58 743.626 1560.86 744.262 1583.79 742.292C1606.7 740.322 1629.22 735.679 1653.75 729.998C1678.27 724.318 1703.95 716.788 1729.88 706.98C1755.82 697.171 1783.77 685.169 1807.73 670.779" stroke="#8F8F8F" stroke-width="0.5" stroke-miterlimit="10"/>
<path d="M-369.664 618.81C-321.496 622.652 -269.758 625.349 -218.617 627.301C-167.476 629.254 -115.165 630.754 -63.2288 632.191C-11.2922 633.629 40.2933 634.997 89.8893 636.715C139.485 638.433 187.104 640.5 231.094 643.357C275.073 646.215 311.398 649.948 353.832 654.495C396.266 659.035 448.051 664.172 501.333 669.772C527.968 672.572 555.236 675.446 582.819 678.326C610.39 681.207 638.29 684.093 666.247 686.933C694.205 689.773 722.233 692.561 750.121 695.264C778.008 697.967 805.767 700.589 833.21 703.097C860.664 705.605 887.815 708.005 914.532 710.278C941.249 712.551 967.522 714.698 993.233 716.714C1044.64 720.745 1093.81 724.238 1139.69 727.187C1185.58 730.136 1228.21 732.535 1266.29 734.333C1304.37 736.131 1334.97 734.631 1364.13 736.824C1393.27 739.011 1420.42 742.584 1446.36 746.272C1472.31 749.954 1497.02 753.681 1521.17 755.857C1545.31 758.039 1568.88 758.612 1592.43 756.545C1615.99 754.477 1640.09 748.849 1663.47 742.619C1687.14 736.314 1715.18 728.802 1741.45 718.89C1767.71 708.978 1795.86 697.091 1819.49 682.89" stroke="#8F8F8F" stroke-width="0.5" stroke-miterlimit="10"/>
<path d="M-379.107 631.722C-330.647 636.056 -278.476 639.194 -226.867 641.536C-175.258 643.878 -122.432 645.745 -70.0039 647.537C-17.5758 649.324 34.9927 650.812 84.3898 653.103C133.529 655.388 181.265 658.291 225.009 661.251C268.754 664.206 305.325 667.332 346.881 671.724C388.449 676.116 439.134 680.903 491.363 686.011C517.483 688.564 544.224 691.158 571.292 693.735C598.361 696.312 625.757 698.871 653.235 701.362C680.713 703.859 708.273 706.287 735.727 708.629C763.182 710.965 790.531 713.215 817.599 715.345C844.679 717.481 871.478 719.514 897.88 721.421C924.281 723.333 950.273 725.131 975.749 726.809C1026.69 730.17 1075.53 733.067 1121.26 735.547C1167.01 738.026 1209.69 740.093 1248.04 741.76C1286.39 743.426 1317.25 741.823 1346.94 744.399C1376.63 746.976 1404.61 751.305 1431.62 755.892C1458.63 760.472 1484.64 765.248 1510.32 768.414C1535.99 771.581 1561.34 773.087 1586.9 771.701C1612.47 770.316 1638.27 765.987 1664.63 758.898C1690.97 751.809 1718.95 743.031 1747.37 732.718C1775.78 722.411 1805.85 710.037 1830.56 695.178" stroke="#8F8F8F" stroke-width="0.5" stroke-miterlimit="10"/>
<path d="M-385.849 645.069C-337.13 649.914 -284.585 653.521 -232.602 656.292C-206.61 657.684 -180.314 658.944 -153.913 660.14C-127.511 661.331 -100.665 662.305 -74.6386 663.553C-22.8074 666.038 29.1994 669.084 78.421 671.701C127.631 674.318 174.652 676.855 218.233 679.506C261.814 682.163 298.561 684.711 339.298 688.845C380.035 692.985 429.631 697.314 480.783 701.82C506.354 704.071 532.556 706.333 559.086 708.554C585.616 710.77 612.474 712.946 639.437 715.042C666.4 717.138 693.456 719.159 720.431 721.077C747.406 723.001 774.287 724.822 800.934 726.54C854.228 729.976 906.539 732.982 956.873 735.593C1007.21 738.204 1055.58 740.437 1101.05 742.39C1146.51 744.342 1189.1 746.032 1227.57 747.52C1266.03 749.009 1297.16 747.56 1327.42 750.71C1357.67 753.865 1386.47 759.098 1414.52 764.71C1442.57 770.322 1469.87 776.248 1497.07 780.491C1524.25 784.734 1551.35 787.242 1578.88 786.595C1606.43 785.948 1634.45 782.106 1663.21 775.097C1691.98 768.088 1720.84 757.478 1751.79 746.793C1782.74 736.108 1814.74 723.19 1840.66 707.638" stroke="#8F8F8F" stroke-width="0.5" stroke-miterlimit="10"/>
<path d="M-389.968 658.823C-341.004 664.206 -288.154 668.317 -235.902 671.569C-183.649 674.822 -130.999 678.767 -79.2727 682.002C-27.5468 685.238 23.3131 688.106 72.09 690.7C120.867 693.294 167.572 695.607 210.931 697.875C254.289 700.148 291.129 702.038 331.082 705.829C371.024 709.619 419.52 713.381 469.561 717.178C519.601 720.98 572.029 724.662 624.844 727.966C651.245 729.615 677.763 731.178 704.223 732.638C730.671 734.098 757.049 735.455 783.228 736.715C835.563 739.234 887.019 741.342 936.639 743.151C986.258 744.955 1034.06 746.467 1079.14 747.852C1124.22 749.232 1166.59 750.503 1205.03 751.786C1243.48 753.074 1274.91 752.055 1305.73 755.955C1336.54 759.854 1366.15 766.136 1395.23 772.887C1424.31 779.638 1452.86 786.801 1481.52 792.195C1510.18 797.589 1538.97 801.151 1568.43 801.299C1597.9 801.448 1628.07 798.133 1659.21 791.244C1690.35 784.356 1722.5 773.889 1755.1 761.772C1787.72 749.656 1822.08 736.589 1849.33 720.31" stroke="#8F8F8F" stroke-width="0.5" stroke-miterlimit="10"/>
<path d="M-391.547 672.955C-342.384 678.904 -289.3 684.058 -238.043 688.702C-186.773 693.34 -135.07 697.468 -84.07 701.007C-33.0696 704.54 17.2052 707.483 65.5139 709.957C113.823 712.431 160.165 714.435 203.243 716.233C246.321 718.031 283.149 719.25 322.33 722.594C361.51 725.938 408.906 729.031 457.812 732.031C506.718 735.031 557.94 737.786 609.584 740.122C661.228 742.458 713.329 744.376 764.622 745.917C815.915 747.457 866.435 748.619 915.247 749.576C964.071 750.532 1011.21 751.288 1055.8 752.072C1100.37 752.862 1142.42 753.687 1180.75 754.752C1219.07 755.817 1250.87 755.554 1282.26 760.341C1313.64 765.133 1344.02 772.572 1374.1 780.554C1404.16 788.536 1433.91 797.005 1464 803.595C1494.07 810.186 1524.49 814.847 1555.81 815.821C1587.12 816.794 1619.38 814.04 1652.8 807.312C1686.22 800.584 1720.86 789.876 1756.12 777.049C1791.39 764.223 1827.54 750.211 1856.26 733.193" stroke="#8F8F8F" stroke-width="0.5" stroke-miterlimit="10"/>
<path d="M-390.787 687.705C-341.905 695.012 -290.565 701.539 -240.302 706.836C-190.051 712.132 -139.202 716.679 -88.9393 720.412C-38.6762 724.146 10.9901 727.072 58.7956 729.339C106.601 731.601 152.534 733.21 195.284 734.453C238.023 735.695 274.675 736.268 313.119 739.074C351.562 741.885 397.823 744.21 445.57 746.329C493.305 748.447 543.287 750.205 593.714 751.511C644.141 752.816 695.036 753.675 745.229 754.19C795.422 754.706 844.925 754.889 892.871 754.969C940.817 755.049 987.206 755.032 1031.21 755.21C1075.21 755.387 1116.84 755.771 1154.96 756.607C1193.09 757.449 1225.32 758.279 1257.27 764.091C1289.22 769.903 1320.36 778.595 1351.37 787.871C1382.38 797.153 1413.28 806.968 1444.7 814.789C1476.12 822.611 1508.08 828.383 1541.15 830.21C1574.23 832.036 1608.44 829.861 1644.04 823.327C1679.63 816.788 1716.65 805.874 1754.45 792.389C1792.25 778.904 1830.71 764.097 1861.04 746.329" stroke="#8F8F8F" stroke-width="0.5" stroke-miterlimit="10"/>
<path d="M-389.453 703.911C-341.964 712.328 -291.794 719.675 -242.537 725.527C-193.269 731.373 -143.287 736.235 -93.7609 740.066C-44.2351 743.902 4.81095 746.708 52.0899 748.672C99.3688 750.636 144.857 751.77 187.233 752.388C229.596 753.006 265.84 752.989 303.558 755.171C341.264 757.358 386.401 758.853 432.954 760.027C479.508 761.2 528.203 761.905 577.377 762.134C626.552 762.363 676.207 762.128 725.241 761.601C774.287 761.075 822.713 760.261 869.723 759.46C916.732 758.658 962.326 757.874 1005.68 757.444C1049.05 757.02 1090.2 756.963 1128.06 757.587C1165.91 758.212 1198.7 760.496 1231.18 767.425C1263.67 774.353 1295.53 784.351 1327.44 794.967C1359.35 805.583 1391.3 816.766 1423.97 825.831C1456.65 834.895 1490.05 841.789 1524.77 844.475C1559.49 847.16 1595.54 845.586 1633.16 839.27C1670.77 832.954 1710.01 821.874 1750.18 807.782C1790.35 793.69 1830.83 777.72 1863.26 759.477" stroke="#8F8F8F" stroke-width="0.5" stroke-miterlimit="10"/>
<path d="M-388.072 720.819C-341.916 730.239 -292.87 738.278 -244.562 744.571C-196.264 750.864 -147.113 755.932 -98.3246 759.762C-49.536 763.593 -1.12193 766.198 45.5953 767.79C92.3125 769.376 137.344 769.955 179.287 769.897C221.229 769.834 256.806 769.308 293.798 770.802C330.79 772.297 374.781 772.898 420.117 773.081C465.465 773.264 512.861 772.881 560.737 772.016C608.612 771.152 656.991 769.806 704.844 768.237C752.684 766.662 800.022 764.864 846.048 763.192C892.075 761.52 936.826 759.98 979.506 758.978C1022.19 757.97 1063.36 758.159 1100.3 757.873C1137.25 757.586 1171.31 762.442 1204.32 770.55C1237.3 778.658 1269.84 789.99 1302.56 801.952C1335.29 813.914 1368.21 826.454 1402.03 836.755C1435.85 847.051 1470.56 855.056 1506.78 858.612C1543 862.162 1580.73 861.2 1620.21 855.136C1659.68 849.072 1700.94 837.883 1743.29 823.242C1785.64 808.606 1827.95 791.886 1862.51 772.881" stroke="#8F8F8F" stroke-width="0.5" stroke-miterlimit="10"/>
<path d="M-386.434 738.244C-341.542 748.54 -293.549 757.157 -246.177 763.782C-198.816 770.408 -150.495 775.584 -102.444 779.329C-54.3928 783.074 -6.62239 785.387 39.5097 786.538C85.6534 787.683 130.159 787.66 171.633 786.876C213.108 786.086 247.712 785.169 283.979 785.914C320.246 786.658 363.066 786.332 407.185 785.501C451.304 784.671 497.378 783.194 543.955 781.23C590.52 779.271 637.6 776.832 684.235 774.227C730.859 771.627 777.049 768.867 822.069 766.353C867.09 763.84 910.951 761.584 952.906 760.02C994.86 758.457 1035.04 757.323 1072.06 757.85C1109.09 758.377 1143.45 764.321 1176.92 773.637C1210.38 782.953 1243.51 795.625 1276.97 808.921C1310.42 822.217 1344.22 836.086 1379.05 847.601C1413.89 859.116 1449.77 868.215 1487.32 872.635C1524.88 877.05 1564.11 876.718 1605.25 870.952C1646.4 865.185 1689.49 853.945 1733.79 838.845C1755.95 831.293 1778.52 823.133 1799.55 814.504C1820.58 805.875 1840.46 796.524 1858.79 786.687" stroke="#8F8F8F" stroke-width="0.5" stroke-miterlimit="10"/>
<path d="M-384.315 755.943C-340.618 767.012 -293.643 776.105 -247.207 782.982C-200.759 789.853 -153.269 795.058 -105.978 798.643C-58.6877 802.233 -11.596 804.203 33.9275 804.861C79.451 805.52 123.395 804.861 164.342 803.321C205.29 801.792 238.573 800.607 274.09 800.567C309.608 800.532 351.235 799.25 394.102 797.394C436.969 795.539 481.685 792.968 526.904 789.922C572.123 786.881 617.857 783.365 663.229 779.77C708.6 776.168 753.609 772.48 797.576 769.165C841.543 765.849 884.48 762.906 925.662 760.828C966.855 758.749 1006.07 756.493 1043.15 757.896C1080.22 759.299 1114.84 766.359 1148.69 776.895C1182.55 787.431 1216.18 801.426 1250.25 816.05C1284.33 830.669 1318.86 845.86 1354.57 858.595C1390.27 871.329 1427.17 881.545 1465.88 886.87C1504.59 892.195 1545.14 892.562 1587.75 887.179C1630.36 881.791 1675.08 870.625 1721.14 855.17C1744.17 847.446 1767.57 839.04 1789.5 830.142C1811.44 821.244 1832.31 811.618 1851.67 801.494" stroke="#8F8F8F" stroke-width="0.5" stroke-miterlimit="10"/>
<path d="M-381.437 773.672C-338.862 785.381 -292.87 794.829 -247.324 801.855C-201.777 808.881 -155.118 814.023 -108.588 817.384C-62.0581 820.74 -15.6803 822.32 29.1762 822.446C74.0326 822.572 117.368 821.249 157.742 818.965C198.116 816.68 229.702 815.38 264.471 814.539C299.239 813.697 339.661 811.475 381.275 808.618C422.89 805.761 466.249 802.136 510.134 798.059C554.007 793.982 598.419 789.458 642.538 784.918C686.657 780.377 730.507 775.83 773.421 771.771C816.335 767.717 858.348 764.155 898.769 761.613C939.19 759.064 977.575 755.961 1014.66 758.246C1051.76 760.53 1086.56 768.673 1120.75 780.377C1154.93 792.081 1188.96 807.329 1223.53 823.196C1258.1 839.063 1293.22 855.491 1329.63 869.377C1366.03 883.263 1403.74 894.549 1443.4 900.762C1483.05 906.98 1524.68 908.068 1568.5 903.127C1612.32 898.185 1658.38 887.174 1705.89 871.502C1729.65 863.668 1753.77 855.045 1776.54 845.929C1799.32 836.813 1821.11 826.964 1841.46 816.6" stroke="#8F8F8F" stroke-width="0.5" stroke-miterlimit="10"/>
<path d="M-377.504 791.147C-335.994 803.372 -290.939 813.072 -246.282 820.155C-201.624 827.244 -155.796 832.26 -110.05 835.335C-64.3045 838.41 -18.6522 839.549 25.5021 839.126C69.6681 838.702 112.336 836.715 152.067 833.686C191.797 830.657 221.335 829.403 255.355 827.765C289.375 826.127 328.625 822.984 369.011 819.17C409.397 815.357 451.434 810.736 494.008 805.691C536.582 800.646 579.695 795.184 622.597 789.79C665.499 784.396 708.203 779.071 750.098 774.352C791.994 769.634 833.106 765.528 872.766 762.591C912.426 759.648 950.109 755.966 987.16 759.115C1024.21 762.265 1059.13 771.432 1093.56 784.224C1127.98 797.016 1162.29 813.41 1197.21 830.422C1232.13 847.428 1267.67 864.996 1304.58 879.952C1341.51 894.909 1379.82 907.197 1420.18 914.28C1460.55 921.363 1503 923.184 1547.75 918.735C1592.52 914.286 1639.62 903.538 1688.29 887.774C1712.62 879.895 1737.37 871.077 1760.9 861.795C1784.42 852.513 1807.04 842.492 1828.29 831.934" stroke="#8F8F8F" stroke-width="0.5" stroke-miterlimit="10"/>
<path d="M-372.156 808.383C-331.653 821.009 -287.511 830.84 -243.731 837.901C-199.951 844.955 -154.966 849.771 -110.027 852.508C-65.089 855.239 -20.2208 855.909 23.2079 854.913C66.6249 853.922 108.579 851.271 147.608 847.515C186.636 843.753 213.728 842.728 247.034 840.3C280.34 837.872 318.432 833.864 357.624 829.151C396.817 824.439 437.589 818.896 478.899 812.969C520.21 807.043 562.082 800.738 603.802 794.583C645.534 788.427 687.137 782.421 728.05 777.136C768.963 771.85 809.185 767.292 848.108 764.023C887.031 760.759 924.129 756.768 961.074 760.736C998.02 764.704 1032.98 774.834 1067.52 788.616C1102.07 802.399 1136.52 819.823 1171.65 837.861C1206.77 855.892 1242.56 874.479 1279.8 890.409C1317.04 906.339 1355.74 919.56 1396.59 927.474C1437.44 935.387 1480.46 937.935 1525.89 934.03C1571.32 930.119 1619.21 919.72 1668.74 904.002C1693.5 896.146 1718.77 887.162 1742.93 877.754C1767.1 868.346 1790.47 858.194 1812.54 847.486" stroke="#8F8F8F" stroke-width="0.5" stroke-miterlimit="10"/>
<path d="M-365.287 825.326C-325.767 838.221 -282.513 848.081 -239.611 855.027C-196.709 861.967 -152.578 866.508 -108.482 868.855C-64.3867 871.203 -20.3143 871.363 22.307 869.783C64.9282 868.208 106.098 864.899 144.366 860.438C182.634 855.978 206.905 855.353 239.533 852.17C272.148 848.98 309.14 844.153 347.197 838.61C385.255 833.067 424.81 826.689 464.915 819.978C505.032 813.267 545.71 806.218 586.33 799.41C626.95 792.596 667.512 786.022 707.477 780.267C747.442 774.518 786.821 769.594 825.03 766.084C863.24 762.574 899.869 758.526 936.616 763.255C973.374 767.985 1008.28 778.968 1042.83 793.621C1077.38 808.279 1111.85 826.597 1147.01 845.522C1182.17 864.441 1218.02 883.915 1255.39 900.71C1292.74 917.504 1331.63 931.567 1372.73 940.265C1413.83 948.957 1457.19 952.227 1503.01 948.9C1548.85 945.573 1597.23 935.604 1647.33 920.058C1672.39 912.282 1698.03 903.183 1722.73 893.689C1747.44 884.19 1771.45 873.946 1794.26 863.129" stroke="#8F8F8F" stroke-width="0.5" stroke-miterlimit="10"/>
<path d="M-356.896 841.491C-318.324 854.558 -275.949 864.367 -233.936 871.129C-191.923 877.897 -148.67 882.123 -105.429 884.059C-62.1873 885.994 -18.9575 885.65 22.8211 883.509C64.5998 881.367 104.951 877.445 142.399 872.332C179.848 867.218 201.053 867.184 233.013 863.29C264.985 859.396 300.924 853.836 337.928 847.566C374.932 841.296 413.34 834.196 452.345 826.821C491.339 819.446 530.929 811.784 570.519 804.443C610.11 797.102 649.7 790.071 688.799 783.967C727.897 777.863 766.493 772.681 804.035 769.016C841.566 765.351 877.809 761.446 914.298 766.84C950.775 772.234 985.532 783.944 1019.95 799.324C1054.37 814.704 1088.7 833.761 1123.73 853.418C1158.76 873.076 1194.48 893.289 1231.76 910.822C1269.03 928.361 1307.86 943.169 1348.96 952.588C1390.07 962.008 1433.49 965.981 1479.46 963.267C1525.44 960.553 1574.03 951.117 1624.43 935.868C1649.64 928.247 1675.5 919.108 1700.63 909.551C1725.75 900 1750.29 889.699 1773.73 878.814" stroke="#8F8F8F" stroke-width="0.5" stroke-miterlimit="10"/>
<path d="M-346.878 856.768C-309.243 869.927 -267.745 879.598 -226.645 886.143C-185.533 892.694 -143.181 896.576 -100.829 898.093C-58.477 899.611 -16.1366 898.769 24.776 896.095C65.6887 893.421 105.162 888.92 141.745 883.228C178.327 877.531 196.256 878.253 227.619 873.729C258.982 869.205 293.962 863.015 329.983 856.127C366.003 849.239 403.394 841.548 441.381 833.641C479.368 825.727 517.963 817.596 556.617 809.855C595.271 802.113 633.995 794.766 672.287 788.422C710.59 782.077 748.471 776.741 785.393 773.007C822.304 769.274 858.231 765.666 894.345 771.604C930.472 777.542 964.936 789.83 999.096 805.783C1033.26 821.73 1067.29 841.348 1102.01 861.578C1136.72 881.808 1172.13 902.6 1209.1 920.751C1246.07 938.903 1284.62 954.352 1325.48 964.436C1366.36 974.519 1409.59 979.18 1455.44 977.113C1501.31 975.04 1549.84 966.205 1600.28 951.38C1625.5 943.971 1651.4 934.9 1676.82 925.326C1702.25 915.753 1727.2 905.428 1751.17 894.503" stroke="#8F8F8F" stroke-width="0.5" stroke-miterlimit="10"/>
<path d="M-335.176 871.066C-298.476 884.23 -257.879 893.713 -217.704 900.006C-177.517 906.299 -136.089 909.82 -94.6501 910.92C-53.2226 912.019 -11.795 910.708 28.1932 907.536C68.193 904.369 116.127 895.688 140.282 893.948C164.436 892.207 192.616 888.594 223.453 883.526C254.289 878.453 288.368 871.753 323.511 864.372C358.654 856.992 395.12 848.849 432.217 840.541C469.303 832.238 507.033 823.775 544.856 815.77C582.691 807.77 620.631 800.235 658.232 793.776C695.821 787.317 733.07 781.934 769.419 778.212C805.768 774.49 841.391 771.284 877.06 777.64C912.73 783.99 946.808 796.69 980.559 813.032C1014.31 829.375 1047.87 849.37 1082.09 869.99C1099.2 880.302 1116.49 890.764 1134.04 900.973C1151.59 911.183 1169.43 921.135 1187.66 930.446C1224.12 949.067 1262.15 965.048 1302.56 975.722C1342.96 986.395 1385.74 991.714 1431.23 990.3C1476.71 988.892 1524.93 980.72 1575.13 966.434C1600.23 959.293 1625.97 950.452 1651.56 940.878C1677.14 931.31 1702.39 920.992 1726.76 910.055" stroke="#8F8F8F" stroke-width="0.5" stroke-miterlimit="10"/>
<path d="M-321.753 884.316C-286.013 897.417 -246.341 906.665 -207.113 912.677C-167.886 918.69 -127.418 921.845 -86.9382 922.538C-46.4585 923.231 -5.99057 921.478 33.0379 917.865C72.0782 914.252 113.95 906.791 138.14 904.586C162.329 902.388 190.24 898.288 220.597 892.768C250.966 887.248 284.26 880.153 318.642 872.423C353.025 864.687 388.695 856.23 425.02 847.681C461.333 839.132 498.302 830.485 535.435 822.372C572.556 814.258 609.841 806.671 646.821 800.212C683.802 793.758 720.478 788.439 756.312 784.814C792.146 781.19 827.476 778.424 862.584 785.043C897.692 791.657 931.244 804.598 964.433 821.146C997.622 837.694 1030.55 857.873 1064.1 878.71C1080.87 889.132 1097.81 899.708 1115.01 910.043C1132.21 920.379 1149.69 930.474 1167.56 939.951C1203.28 958.898 1240.59 975.286 1280.28 986.469C1319.96 997.652 1362.07 1003.58 1406.92 1002.83C1451.77 1002.08 1499.42 994.635 1549.13 980.984C1573.99 974.158 1599.35 965.821 1624.96 956.241C1650.56 946.656 1675.98 936.372 1700.63 925.452" stroke="#8F8F8F" stroke-width="0.5" stroke-miterlimit="10"/>
<path d="M-306.633 896.461C-271.887 909.442 -233.163 918.421 -194.931 924.13C-156.698 929.844 -117.213 932.633 -77.7279 932.942C-38.243 933.257 1.2302 931.098 39.2874 927.101C77.3329 923.105 113.026 917.081 137.274 914.475C161.522 911.87 189.222 907.381 219.205 901.517C249.187 895.66 281.814 888.319 315.565 880.371C349.315 872.423 384.318 863.811 420 855.17C455.681 846.53 492.03 837.855 528.577 829.77C565.113 821.684 601.86 814.183 638.314 807.856C674.779 801.529 710.964 796.375 746.353 792.934C781.73 789.492 816.733 787.15 851.162 793.867C885.603 800.584 918.5 813.582 950.975 830.136C983.45 846.696 1015.57 866.869 1048.26 887.729C1080.94 908.595 1114.2 930.113 1149 949.233C1183.79 968.352 1220.14 985.021 1258.88 996.622C1297.63 1008.22 1338.8 1014.7 1382.78 1014.61C1426.76 1014.52 1473.58 1007.82 1522.58 994.892C1547.09 988.428 1572.11 980.434 1597.41 971.158C1622.71 961.887 1648.25 951.466 1673.03 940.581" stroke="#8F8F8F" stroke-width="0.5" stroke-miterlimit="10"/>
<path d="M-289.874 907.467C-254.169 921.038 -214.181 929.936 -174.638 935.295C-135.094 940.655 -94.2283 942.711 -53.5263 942.069C-12.8243 941.422 27.6905 938.09 66.3094 932.873C104.928 927.657 128.111 925.315 155.426 921.324C182.74 917.333 213.178 911.458 246.098 904.209C279.018 896.959 313.915 888.536 349.983 879.69C386.051 870.843 423.277 861.584 461.053 852.634C498.83 843.69 537.156 835.061 575.471 827.451C613.785 819.835 652.1 813.239 689.818 808.291C727.535 803.344 763.685 798.013 800.619 799.284C837.553 800.555 872.696 809.86 906.622 824.187C940.548 838.513 973.597 857.902 1006.88 879.094C1023.52 889.693 1040.22 900.733 1057.13 911.784C1074.04 922.83 1091.15 933.875 1108.61 944.486C1143.54 965.695 1179.93 985.084 1218.85 999.433C1257.77 1013.78 1299.28 1023.02 1343.98 1025.15C1388.67 1027.28 1436.63 1022.26 1487.24 1010.15C1512.54 1004.09 1538.5 996.301 1564.82 987.03C1591.14 977.76 1617.96 966.875 1644.23 955.4" stroke="#8F8F8F" stroke-width="0.5" stroke-miterlimit="10"/>
<path d="M-271.549 917.315C-236.979 930.68 -198.091 939.235 -159.683 944.274C-121.274 949.313 -81.5203 951.019 -41.9418 950.051C-2.35153 949.083 37.0515 945.453 74.5704 939.99C112.089 934.528 129.948 933.967 157.32 929.747C184.693 925.532 215.061 919.485 247.63 912.236C280.199 904.981 314.71 896.633 350.403 887.935C386.096 879.237 422.96 870.201 460.385 861.538C497.81 852.88 535.797 844.594 573.784 837.351C611.771 830.107 649.758 823.9 687.137 819.331C724.515 814.761 760.817 810.278 796.826 811.372C832.835 812.465 867.054 821.489 899.95 835.438C932.847 849.393 964.76 868.323 996.79 889.103C1012.81 899.496 1028.86 910.341 1045.09 921.209C1061.32 932.083 1077.75 942.974 1094.51 953.464C1128.04 974.444 1162.95 993.753 1200.41 1008.24C1237.85 1022.73 1277.89 1032.35 1321.17 1035.05C1364.44 1037.77 1411.03 1033.53 1460.4 1022.28C1485.09 1016.66 1510.46 1009.31 1536.24 1000.46C1562.02 991.605 1588.27 981.167 1614.39 969.76" stroke="#8F8F8F" stroke-width="0.5" stroke-miterlimit="10"/>
</svg>
