<svg width="41" height="31" viewBox="0 0 41 31" fill="none" xmlns="http://www.w3.org/2000/svg">
<path id="Vector" fill-rule="evenodd" clip-rule="evenodd" d="M40.5 20.0545C40.5 25.5937 36.5 30.0251 31.5 30.0251C26.5 30.0251 22.5 25.5937 22.5 20.0545C22.5 14.5153 26.5 10.0839 31.5 10.0839C28.4 2.55054 22.5 0.113281 22.5 0.113281C32.4 0.113281 40.5 9.08683 40.5 20.0545ZM9 30.0251C4 30.0251 0 25.5937 0 20.0545C0 14.5153 4 10.0839 9 10.0839C5.9 2.55054 0 0.113281 0 0.113281C9.9 0.113281 18 9.08683 18 20.0545C18 25.5937 14 30.0251 9 30.0251Z" fill="white"/>
</svg>
