<svg width="41" height="31" viewBox="0 0 41 31" fill="none" xmlns="http://www.w3.org/2000/svg">
<path id="Vector" fill-rule="evenodd" clip-rule="evenodd" d="M31.5 20.3582C34.6 27.8916 40.5 30.3288 40.5 30.3288C30.6 30.3288 22.5 21.3553 22.5 10.3876C22.5 4.84838 26.5 0.416992 31.5 0.416992C36.5 0.416992 40.5 4.84838 40.5 10.3876C40.5 15.9268 36.5 20.3582 31.5 20.3582ZM18 30.3288C8.1 30.3288 0 21.3553 0 10.3876C0 4.84838 4 0.416992 9 0.416992C14 0.416992 18 4.84838 18 10.3876C18 15.9268 14 20.3582 9 20.3582C12.1 27.8916 18 30.3288 18 30.3288Z" fill="white"/>
</svg>
