<?xml version="1.0" encoding="UTF-8"?>
<svg data-bbox="0 0 72.95 72.85" viewBox="0 0 72.95 72.85" xmlns="http://www.w3.org/2000/svg" data-type="ugc">
    <g>
        <defs>
            <linearGradient gradientUnits="userSpaceOnUse" y2="52.07" x2="36.53" y1="10.43" x1="36.14" id="d35fa6f0-6af2-4ea5-b725-af31427bbe80">
                <stop stop-color="#16bcc8" offset="0"/>
                <stop stop-color="#1ab6c4" offset=".1"/>
                <stop stop-color="#26a5ba" offset=".24"/>
                <stop stop-color="#3889aa" offset=".4"/>
                <stop stop-color="#4d6b98" offset=".54"/>
                <stop stop-color="#6d4882" offset="1"/>
            </linearGradient>
        </defs>
        <g>
            <g>
                <path fill="#ffffff" d="M72.95 16.09v40.67c0 8.886-7.204 16.09-16.09 16.09H16.09C7.204 72.85 0 65.646 0 56.76V16.09C0 7.204 7.204 0 16.09 0h40.77c8.886 0 16.09 7.204 16.09 16.09z"/>
                <path fill="url(#d35fa6f0-6af2-4ea5-b725-af31427bbe80)" d="m36.48 14.32-20.14 32.3h40.27l-20.13-32.3z"/>
                <path d="M20.57 54.91a.33.33 0 0 1-.33-.3.32.32 0 0 1 .29-.35 24.83 24.83 0 0 0 8-2.13c1.67-.78 3.95-1.86 5-3.81a4.43 4.43 0 0 0 .39-3.16.31.31 0 0 1 .24-.39.33.33 0 0 1 .39.24 5.1 5.1 0 0 1-.44 3.62c-1.11 2.14-3.55 3.27-5.31 4.09a25.23 25.23 0 0 1-8.2 2.18Z" fill="#d3c53f"/>
                <path d="M25 56.83a.33.33 0 0 1-.3-.35 5.14 5.14 0 0 1 3.3-4.11.33.33 0 0 1 .42.19.31.31 0 0 1-.18.42 4.49 4.49 0 0 0-2.95 3.55.33.33 0 0 1-.29.3Z" fill="#d3c53f"/>
                <path d="M37.43 58.52a.35.35 0 0 1-.21-.07c0-.05-5.21-4.45-3.45-10.71a.32.32 0 0 1 .4-.22.34.34 0 0 1 .23.4c-1.64 5.84 3.19 10 3.24 10a.32.32 0 0 1 0 .46.33.33 0 0 1-.21.14Z" fill="#d3c53f"/>
                <path d="M27.17 57.42a.33.33 0 0 1-.29-.18.32.32 0 0 1 .12-.44c9.79-5.25 9-11.6 9-11.67a.33.33 0 0 1 .65-.09c0 .28.87 6.86-9.35 12.34a.42.42 0 0 1-.13.04Z" fill="#d3c53f"/>
                <path d="M45.91 57.31a.32.32 0 0 1-.16 0c-10.6-6.31-9.64-11.93-9.59-12.17a.32.32 0 0 1 .38-.26.33.33 0 0 1 .26.38c0 .05-.88 5.45 9.28 11.44a.33.33 0 0 1 .12.45.35.35 0 0 1-.29.16Z" fill="#d3c53f"/>
                <path d="M32.36 58.29a.31.31 0 0 1-.28-.16.32.32 0 0 1 .12-.44c8-4.7 6.42-11.78 6.35-12.08a.33.33 0 0 1 .24-.39.32.32 0 0 1 .39.24c0 .07 1.81 7.84-6.65 12.79a.33.33 0 0 1-.17.04Z" fill="#d3c53f"/>
                <path d="M52.39 54.8c-.53-.07-12.79-1.71-13.63-7.79a.32.32 0 0 1 .64-.09c.78 5.59 13 7.22 13.07 7.23a.33.33 0 0 1 .28.37.32.32 0 0 1-.36.28Z" fill="#d3c53f"/>
                <path d="M47.76 56.71a.33.33 0 0 1-.3-.35c0-.1.1-2.22-3.41-3.86a.32.32 0 0 1-.16-.44.32.32 0 0 1 .43-.15c4 1.85 3.8 4.4 3.79 4.51a.33.33 0 0 1-.35.29Z" fill="#d3c53f"/>
                <path d="M40.94 58.29a.31.31 0 0 1-.18 0 .32.32 0 0 1-.09-.45c0-.08 1.28-2.09-.72-4.86a.32.32 0 0 1 .08-.45.31.31 0 0 1 .45.07c2.27 3.15.8 5.5.73 5.6a.32.32 0 0 1-.27.09Z" fill="#d3c53f"/>
                <path d="M41.62 33.77a1.07 1.07 0 0 0-.85-.42 1.06 1.06 0 0 0-.5.12 1.07 1.07 0 0 0-.51.52 1 1 0 0 0 0 .94L38.69 36a.71.71 0 0 0-.21.51v2.21h.6v-2a.6.6 0 0 1 .18-.44l.91-1a1.17 1.17 0 0 0 .6.16 1.1 1.1 0 0 0 .85-1.78ZM34.27 36l-1.08-1c.19-.72.05-1.18-.46-1.47a1.11 1.11 0 0 0-.54-.13 1.09 1.09 0 0 0-.8.34 1.13 1.13 0 0 0-.12 1.36 1.1 1.1 0 0 0 .57.44 1.07 1.07 0 0 0 .35.06.84.84 0 0 0 .53-.17l1 1a.62.62 0 0 1 .17.44v1.93h.6v-2.3a.74.74 0 0 0-.22-.5Zm4.81.8a.6.6 0 0 1 .18-.44l.91-1a1.17 1.17 0 0 0 .6.16 1.1 1.1 0 0 0 .85-1.78 1.07 1.07 0 0 0-.85-.42 1.06 1.06 0 0 0-.5.12 1.07 1.07 0 0 0-.51.52 1 1 0 0 0 0 .94L38.69 36a.71.71 0 0 0-.21.51v2.21h.6Zm3.52.2a1.08 1.08 0 0 0-.78-.32 1.13 1.13 0 0 0-.6.17 1.06 1.06 0 0 0-.36 1.43l-2.17 2.12a.71.71 0 0 0-.21.5v3.41h.6v-3.13a.64.64 0 0 1 .18-.43l2-2.06a1.25 1.25 0 0 0 .55.14A1.11 1.11 0 0 0 42.6 37Zm-6.13-5a1.09 1.09 0 0 0-1.08.84 1.12 1.12 0 0 0 .08.72.94.94 0 0 0 .68.56v10.19h.63V34.18a1.13 1.13 0 0 0 .8-1.28 1.11 1.11 0 0 0-1.11-.9Zm-3.28 3c.19-.72.05-1.18-.46-1.47a1.11 1.11 0 0 0-.54-.13 1.09 1.09 0 0 0-.8.34 1.13 1.13 0 0 0-.12 1.36 1.1 1.1 0 0 0 .57.44 1.07 1.07 0 0 0 .35.06.84.84 0 0 0 .53-.17l1 1a.62.62 0 0 1 .17.44v1.93h.6v-2.3a.74.74 0 0 0-.21-.51Zm5.89 1.84a.6.6 0 0 1 .18-.44l.91-1a1.17 1.17 0 0 0 .6.16 1.1 1.1 0 0 0 .85-1.78 1.07 1.07 0 0 0-.85-.42 1.06 1.06 0 0 0-.5.12 1.07 1.07 0 0 0-.51.52 1 1 0 0 0 0 .94L38.69 36a.71.71 0 0 0-.21.51v2.21h.6Zm3.52.16a1.08 1.08 0 0 0-.78-.32 1.13 1.13 0 0 0-.6.17 1.06 1.06 0 0 0-.36 1.43l-2.17 2.12a.71.71 0 0 0-.21.5v3.41h.6v-3.13a.64.64 0 0 1 .18-.43l2-2.06a1.25 1.25 0 0 0 .55.14A1.11 1.11 0 0 0 42.6 37Zm-6.13-5a1.09 1.09 0 0 0-1.08.84 1.12 1.12 0 0 0 .08.72.94.94 0 0 0 .68.56v10.19h.63V34.18a1.13 1.13 0 0 0 .8-1.28 1.11 1.11 0 0 0-1.11-.9Zm-3.28 3c.19-.72.05-1.18-.46-1.47a1.11 1.11 0 0 0-.54-.13 1.09 1.09 0 0 0-.8.34 1.13 1.13 0 0 0-.12 1.36 1.1 1.1 0 0 0 .57.44 1.07 1.07 0 0 0 .35.06.84.84 0 0 0 .53-.17l1 1a.62.62 0 0 1 .17.44v1.93h.6v-2.3a.74.74 0 0 0-.21-.51Zm-1.08 3.31a1.11 1.11 0 0 0-1-1.64 1.08 1.08 0 0 0-.75.29 1.1 1.1 0 0 0-.18 1.39 1 1 0 0 0 .89.5 1.12 1.12 0 0 0 .54-.12l2.07 2.06a.64.64 0 0 1 .17.44v3.13h.6v-3.48a.71.71 0 0 0-.21-.5Z" fill="#ffffff"/>
                <path d="M36.48 16.11 18 45.68h36.91Zm-16 28.2 16-25.62 16 25.62Z" fill="#ffffff"/>
            </g>
        </g>
    </g>
</svg>
