<svg width="99" height="40" viewBox="0 0 99 40" fill="none" xmlns="http://www.w3.org/2000/svg">
<g id="Logo Variation 2 SVG 1" clip-path="url(#clip0_121_3798)">
<g id="Layer 2">
<g id="Layer 1">
<path id="Vector" d="M40.9667 12.583V18.1208H39.8937V12.583H40.9667Z" fill="white"/>
<path id="Vector_2" d="M45.5959 12.583V13.6362H43.263V14.8867H45.2846V15.9399H43.263V18.1133H42.1899V12.583H45.5959Z" fill="white"/>
<path id="Vector_3" d="M51.9757 12.583V13.6362H50.6499V18.1022H49.5732V13.6362H48.2987V12.583H51.9757Z" fill="white"/>
<path id="Vector_4" d="M57.4143 18.1208H56.3376V15.8878H53.9022V18.1208H52.8254V12.583H53.9022V14.816H56.3376V12.583H57.4143V18.1208Z" fill="white"/>
<path id="Vector_5" d="M62.3547 12.583V13.6362H59.6959V14.816H62.0361V15.8729H59.6959V17.0676H62.4426V18.1208H58.6338V12.583H62.3547Z" fill="white"/>
<path id="Vector_6" d="M65.0575 13.5205C64.8627 13.5088 64.6693 13.5596 64.5045 13.6657C64.4399 13.7152 64.3884 13.7802 64.3546 13.8549C64.3207 13.9296 64.3055 14.0116 64.3104 14.0937C64.3156 14.1894 64.3445 14.2822 64.3945 14.3635C64.4444 14.4448 64.5138 14.512 64.5961 14.5589C64.8342 14.7115 65.0885 14.8364 65.3541 14.931C65.586 15.013 65.8073 15.123 66.0134 15.2585C66.2024 15.3879 66.3581 15.5615 66.4675 15.7647C66.5977 16.0181 66.6608 16.3015 66.6506 16.5872C66.6522 16.8671 66.576 17.1419 66.4309 17.3799C66.2763 17.6317 66.0538 17.8332 65.79 17.9604C65.4752 18.1107 65.1305 18.1846 64.7828 18.1763C64.454 18.1745 64.1271 18.1243 63.8123 18.0274C63.4911 17.9297 63.1879 17.7788 62.915 17.5808L63.3911 16.7286C63.5883 16.8752 63.8054 16.9918 64.0357 17.0747C64.2436 17.1584 64.4641 17.205 64.6876 17.2124C64.8948 17.2163 65.0993 17.1649 65.2809 17.0635C65.3627 17.0164 65.4296 16.9465 65.4737 16.8622C65.5178 16.7778 65.5373 16.6824 65.5299 16.5872C65.5299 16.3006 65.2663 16.0512 64.7389 15.8428C64.4728 15.735 64.2135 15.6107 63.9625 15.4707C63.7476 15.3504 63.5633 15.1809 63.4241 14.9757C63.266 14.735 63.1866 14.4498 63.197 14.1607C63.1905 13.9487 63.2287 13.7378 63.3089 13.542C63.3891 13.3463 63.5095 13.1702 63.6622 13.0256C64.002 12.721 64.4396 12.5529 64.8927 12.5529C65.2371 12.5437 65.5808 12.5901 65.9108 12.6906C66.1901 12.7871 66.4559 12.9197 66.7019 13.0851L66.288 13.9225C65.9169 13.6871 65.4941 13.549 65.0575 13.5205Z" fill="white"/>
<path id="Vector_7" d="M71.2359 12.583V13.6362H68.5917V14.816H70.932V15.8729H68.5917V17.0676H71.3385V18.1208H67.515V12.583H71.2359Z" fill="white"/>
<path id="Vector_8" d="M75.5611 12.583V17.049H78.1247V18.1022H74.488V12.583H75.5611Z" fill="white"/>
<path id="Vector_9" d="M81.7469 17.0376H79.9414L79.4946 18.1206H78.4362L80.8972 12.3633H80.9558L83.4133 18.1206H82.1717L81.7469 17.0376ZM81.3807 16.1184L80.857 14.7712L80.3076 16.1184H81.3807Z" fill="white"/>
<path id="Vector_10" d="M88.9323 12.5829V18.3476H88.903L85.0869 14.8456L85.1125 18.1206H84.0138V12.3633H84.0577L87.8666 15.9174L87.8446 12.568L88.9323 12.5829Z" fill="white"/>
<path id="Vector_11" d="M90.1555 12.5828H91.7853C92.3838 12.5582 92.9776 12.6997 93.5029 12.9922C93.9292 13.2364 94.2727 13.6062 94.488 14.0529C94.6931 14.4885 94.7983 14.9656 94.7957 15.4485C94.8076 15.9432 94.6805 16.4312 94.4295 16.8553C94.1913 17.2573 93.8459 17.5824 93.4333 17.7931C93.0086 18.0143 92.5371 18.1267 92.0599 18.1206H90.1628L90.1555 12.5828ZM91.8658 17.0488C92.3466 17.0752 92.8201 16.9202 93.1952 16.6133C93.3627 16.4531 93.4931 16.2573 93.5773 16.0398C93.6615 15.8223 93.6974 15.5886 93.6823 15.3554C93.7011 14.9844 93.6064 14.6165 93.4113 14.3022C93.2554 14.0676 93.0369 13.8829 92.7814 13.77C92.5674 13.6755 92.3372 13.6249 92.1039 13.6212H91.2286V17.0599L91.8658 17.0488Z" fill="white"/>
<path id="Vector_12" d="M97.3556 13.5205C97.1619 13.508 96.9694 13.5589 96.8062 13.6657C96.7405 13.7144 96.6879 13.7791 96.6534 13.8539C96.6188 13.9287 96.6034 14.0112 96.6085 14.0937C96.6137 14.1894 96.6426 14.2822 96.6926 14.3635C96.7425 14.4448 96.8118 14.512 96.8941 14.5589C97.1327 14.7108 97.3869 14.8356 97.6523 14.931C97.8841 15.013 98.1054 15.123 98.3115 15.2585C98.5016 15.3878 98.6585 15.5613 98.7693 15.7647C98.898 16.0185 98.9598 16.3019 98.9487 16.5872C98.9503 16.8671 98.8741 17.1419 98.729 17.3799C98.5758 17.6316 98.3546 17.8331 98.0917 17.9604C97.7757 18.1106 97.4297 18.1845 97.0809 18.1763C96.752 18.1745 96.4252 18.1244 96.1104 18.0274C95.7901 17.9304 95.488 17.7794 95.2168 17.5808L95.6892 16.7472C95.8864 16.8938 96.1035 17.0104 96.3338 17.0933C96.5417 17.177 96.7622 17.2236 96.9857 17.231C97.1929 17.2349 97.3974 17.1835 97.579 17.0821C97.6612 17.0352 97.7285 16.9655 97.7733 16.8812C97.818 16.7968 97.8383 16.7013 97.8317 16.6058C97.8317 16.3192 97.568 16.0699 97.037 15.8614C96.7709 15.7536 96.5116 15.6294 96.2606 15.4893C96.0457 15.369 95.8614 15.1996 95.7222 14.9943C95.5654 14.7532 95.4873 14.468 95.4988 14.1793C95.4883 13.9651 95.5234 13.7511 95.6017 13.552C95.6801 13.3528 95.7999 13.1733 95.9529 13.0256C96.2943 12.721 96.7329 12.5531 97.1871 12.5529C97.5303 12.5436 97.8728 12.5901 98.2016 12.6906C98.4808 12.7871 98.7467 12.9197 98.9927 13.0851L98.5861 13.9225C98.2152 13.6867 97.7923 13.5486 97.3556 13.5205Z" fill="white"/>
<path id="Vector_13" d="M43.3217 27.0416C43.0065 27.1602 42.6726 27.2195 42.3365 27.2165C41.8243 27.2275 41.3185 27.099 40.8716 26.8444C40.4629 26.6062 40.1289 26.2552 39.9084 25.8321C39.6839 25.4013 39.5693 24.9202 39.5751 24.4327C39.5656 23.9164 39.68 23.4054 39.9084 22.9441C40.1167 22.52 40.441 22.1659 40.8423 21.9244C41.2608 21.672 41.7401 21.5431 42.2267 21.5522C42.538 21.5494 42.8479 21.5946 43.1459 21.6862C43.4028 21.7682 43.6487 21.882 43.8784 22.0249L43.4499 23.0743C43.11 22.7925 42.6872 22.6341 42.2486 22.624C41.9729 22.6236 41.703 22.7051 41.4722 22.8585C41.226 23.0133 41.026 23.2333 40.8936 23.4949C40.7497 23.7684 40.6755 24.0742 40.6775 24.3844C40.6697 24.7089 40.7388 25.0305 40.8789 25.3222C41.0037 25.5837 41.201 25.8023 41.4466 25.9512C41.7104 26.1053 42.0104 26.1837 42.3146 26.1782C42.5651 26.1842 42.8143 26.1386 43.047 26.0442C43.234 25.9746 43.4057 25.8684 43.5524 25.7316L43.9956 26.7104C43.7895 26.8561 43.5621 26.9679 43.3217 27.0416Z" fill="white"/>
<path id="Vector_14" d="M44.9113 22.9849C45.1573 22.5599 45.5066 22.2062 45.9257 21.9577C46.3468 21.7035 46.8276 21.5693 47.3174 21.5693C47.8072 21.5693 48.288 21.7035 48.7091 21.9577C49.1301 22.2128 49.4814 22.5711 49.7309 22.9998C49.9804 23.4273 50.112 23.9151 50.112 24.4121C50.112 24.9092 49.9804 25.397 49.7309 25.8245C49.4794 26.2438 49.128 26.592 48.7091 26.8368C48.2861 27.0854 47.8061 27.2163 47.3174 27.2163C46.8288 27.2163 46.3487 27.0854 45.9257 26.8368C45.5067 26.5895 45.1583 26.2355 44.9149 25.8096C44.6702 25.3804 44.5414 24.8932 44.5414 24.3973C44.5414 23.9013 44.6702 23.4141 44.9149 22.9849H44.9113ZM45.8745 25.2811C46.0203 25.547 46.2325 25.7691 46.4897 25.925C46.751 26.0832 47.0499 26.1656 47.354 26.1632C47.6488 26.1646 47.9381 26.082 48.189 25.925C48.4389 25.7686 48.6436 25.5477 48.7823 25.2849C48.9266 25.0086 49.0021 24.7007 49.0021 24.388C49.0021 24.0752 48.9266 23.7673 48.7823 23.491C48.6407 23.2257 48.4321 23.0035 48.1781 22.8472C47.9218 22.6915 47.6288 22.6092 47.3302 22.6092C47.0317 22.6092 46.7387 22.6915 46.4824 22.8472C46.2292 23.0046 46.0209 23.2266 45.8781 23.491C45.7286 23.7667 45.6516 24.0769 45.6547 24.3917C45.6502 24.7026 45.726 25.0093 45.8745 25.2811Z" fill="white"/>
<path id="Vector_15" d="M52.1149 25.6123C52.2201 25.7743 52.362 25.9083 52.5288 26.003C52.6976 26.1033 52.8898 26.156 53.0854 26.1556C53.2904 26.1567 53.4922 26.1042 53.6714 26.003C53.8419 25.9122 53.9858 25.7774 54.0889 25.6123C54.1879 25.4639 54.2414 25.2891 54.2427 25.1098V21.6152H55.3012V25.1322C55.3056 25.511 55.2026 25.8831 55.0045 26.204C54.8084 26.5213 54.5312 26.7786 54.2025 26.9483C53.857 27.1285 53.4737 27.2204 53.0854 27.2163C52.7033 27.2186 52.3263 27.1266 51.9867 26.9483C51.659 26.7785 51.383 26.5212 51.1884 26.204C50.993 25.882 50.8914 25.5104 50.8954 25.1322V21.6152H51.9721V25.1098C51.9702 25.2879 52.0199 25.4626 52.1149 25.6123Z" fill="white"/>
<path id="Vector_16" d="M57.4984 21.6152V26.0812H60.062V27.1679H56.3997V21.6152H57.4984Z" fill="white"/>
<path id="Vector_17" d="M60.9741 21.6148H62.6039C63.2034 21.5915 63.798 21.7329 64.3251 22.0242C64.7462 22.269 65.0874 22.6339 65.3067 23.0737C65.5121 23.5104 65.6173 23.9889 65.6143 24.473C65.6248 24.9676 65.4978 25.4551 65.2481 25.8798C65.0054 26.2794 64.6596 26.6038 64.2482 26.8176C63.8227 27.0366 63.3518 27.1489 62.8749 27.1451H60.9778L60.9741 21.6148ZM62.6881 26.0807C63.1636 26.1164 63.6354 25.9734 64.0138 25.6788C64.1813 25.5186 64.3117 25.3227 64.3959 25.1052C64.4801 24.8878 64.516 24.6541 64.5009 24.4209C64.5209 24.0497 64.4261 23.6814 64.2299 23.3677C64.0761 23.1308 63.8588 22.9436 63.6037 22.828C63.3885 22.7327 63.1571 22.6809 62.9225 22.6754H62.0508V26.1142L62.6881 26.0807Z" fill="white"/>
<path id="Vector_18" d="M72.027 21.6152V22.6685H70.7012V27.1679H69.6281V22.6685H68.3536V21.6152H72.027Z" fill="white"/>
<path id="Vector_19" d="M75.1326 26.0704H73.3235L72.8803 27.1683H71.8219L74.2793 21.4072H74.3452L76.799 27.1683H75.5538L75.1326 26.0704ZM74.7664 25.1549L74.25 23.8188L73.7043 25.1661L74.7664 25.1549Z" fill="white"/>
<path id="Vector_20" d="M78.48 21.6152V26.0812H81.0437V27.1679H77.407V21.6152H78.48Z" fill="white"/>
<path id="Vector_21" d="M83.0285 23.8668L83.1933 23.6547L84.9659 21.6152H86.3576L84.1089 24.0976L86.3686 27.1679H85.0062L83.3252 24.8047L83.0578 25.0726V27.1679H81.9591V21.6152H83.0578V23.5877L83.0285 23.8668Z" fill="white"/>
<path id="Vector_22" d="M17.9344 0L0 29.2296H35.8652L17.9344 0Z" fill="url(#paint0_linear_121_3798)"/>
<path id="Vector_23" d="M3.76138 36.7293C3.68464 36.7332 3.60951 36.706 3.5525 36.6537C3.52428 36.6278 3.50135 36.5964 3.48503 36.5615C3.46871 36.5266 3.45933 36.4888 3.4574 36.4501C3.45548 36.4115 3.46106 36.3729 3.47382 36.3365C3.48658 36.3001 3.50628 36.2666 3.53178 36.2379C3.5833 36.18 3.65534 36.1452 3.73208 36.1413C6.19411 35.9071 8.60039 35.2568 10.8516 34.2172C12.3385 33.5063 14.3711 32.535 15.2904 30.771C15.7551 29.8962 15.878 28.8756 15.6346 27.9127C15.6255 27.8751 15.6237 27.836 15.6295 27.7977C15.6352 27.7594 15.6483 27.7226 15.668 27.6894C15.7079 27.6224 15.7723 27.5742 15.8471 27.5555C15.8841 27.5462 15.9226 27.5444 15.9603 27.5502C15.998 27.556 16.0342 27.5694 16.0668 27.5894C16.1328 27.6299 16.1802 27.6953 16.1986 27.7713C16.4695 28.8752 16.3286 30.0418 15.8031 31.0464C14.796 32.9853 12.6608 34.0237 11.1007 34.768C8.79117 35.8374 6.32142 36.5054 3.79434 36.7442L3.76138 36.7293Z" fill="#D3C53F"/>
<path id="Vector_24" d="M7.69081 38.4663H7.66518C7.62729 38.4635 7.59033 38.4531 7.55647 38.4356C7.5226 38.4181 7.49251 38.3939 7.46796 38.3644C7.4434 38.335 7.42488 38.3009 7.41346 38.264C7.40205 38.2272 7.39798 38.1884 7.40149 38.15C7.51769 37.311 7.85807 36.5203 8.38562 35.8642C8.91317 35.208 9.60768 34.7114 10.3936 34.4284C10.4641 34.4027 10.5417 34.4058 10.61 34.437C10.6783 34.4683 10.732 34.5252 10.7598 34.5959C10.7844 34.6671 10.7814 34.7451 10.7515 34.8142C10.7216 34.8833 10.667 34.9383 10.5987 34.968C9.91518 35.2104 9.30957 35.6375 8.84693 36.2034C8.38428 36.7693 8.08209 37.4525 7.97281 38.1798C7.97096 38.2552 7.94065 38.327 7.88816 38.3803C7.83568 38.4337 7.76502 38.4645 7.69081 38.4663Z" fill="#D3C53F"/>
<path id="Vector_25" d="M18.7841 40.0002C18.7161 40.0003 18.6502 39.9767 18.5973 39.9333C18.5497 39.8923 13.9572 35.9027 15.521 30.257C15.5307 30.2192 15.5477 30.1837 15.5711 30.1526C15.5945 30.1215 15.6238 30.0954 15.6572 30.076C15.6906 30.0566 15.7275 30.0441 15.7657 30.0393C15.8039 30.0345 15.8427 30.0376 15.8797 30.0482C15.9168 30.0589 15.9514 30.0769 15.9815 30.1013C16.0116 30.1257 16.0366 30.156 16.055 30.1904C16.0734 30.2247 16.0849 30.2625 16.0888 30.3014C16.0927 30.3403 16.0889 30.3797 16.0777 30.4171C14.6127 35.7018 18.9269 39.4532 18.9709 39.4904C19.0297 39.541 19.0666 39.6131 19.0734 39.6912C19.0803 39.7692 19.0566 39.8468 19.0075 39.9072C18.9792 39.9384 18.9446 39.9628 18.906 39.9789C18.8674 39.995 18.8258 40.0023 18.7841 40.0002Z" fill="#D3C53F"/>
<path id="Vector_26" d="M9.63937 38.9985C9.58713 38.9988 9.53585 38.9843 9.49123 38.9567C9.44661 38.9291 9.41041 38.8895 9.38667 38.8422C9.36878 38.8072 9.35809 38.7689 9.35526 38.7296C9.35242 38.6902 9.3575 38.6507 9.37018 38.6135C9.38286 38.5762 9.40287 38.542 9.42901 38.5128C9.45514 38.4837 9.48684 38.4603 9.52217 38.444C18.2239 33.6915 17.539 27.9416 17.528 27.882C17.5168 27.8045 17.5364 27.7257 17.5824 27.6629C17.6285 27.6001 17.6971 27.5584 17.7734 27.5471C17.8496 27.5357 17.9272 27.5556 17.989 27.6024C18.0508 27.6491 18.0918 27.7189 18.103 27.7964C18.1396 28.0495 18.8831 34.0004 9.77854 38.9613C9.73623 38.986 9.68819 38.9989 9.63937 38.9985Z" fill="#D3C53F"/>
<path id="Vector_27" d="M26.3357 38.902C26.2841 38.9024 26.2333 38.8882 26.1892 38.861C16.7514 33.2004 17.6047 28.1018 17.6486 27.886C17.6657 27.812 17.7103 27.7476 17.7731 27.7064C17.8358 27.6651 17.9119 27.6501 17.9853 27.6645C18.0587 27.679 18.1237 27.7217 18.1668 27.7838C18.2099 27.8459 18.2276 27.9225 18.2163 27.9976C18.2163 28.046 17.4399 32.9288 26.4858 38.3549C26.5511 38.3951 26.5983 38.4596 26.6174 38.5347C26.6366 38.6097 26.6262 38.6894 26.5884 38.7568C26.5626 38.8015 26.5256 38.8384 26.4812 38.8639C26.4369 38.8894 26.3867 38.9025 26.3357 38.902Z" fill="#D3C53F"/>
<path id="Vector_28" d="M14.2832 39.7912C14.2198 39.7911 14.1583 39.7698 14.108 39.7306C14.0577 39.6914 14.0214 39.6366 14.0048 39.5744C13.9881 39.5123 13.992 39.4463 14.0159 39.3867C14.0397 39.327 14.0821 39.2769 14.1367 39.2442C21.2709 34.9829 19.8426 28.5854 19.7767 28.3138C19.7678 28.2761 19.7663 28.2371 19.7722 28.1989C19.7782 28.1606 19.7915 28.124 19.8114 28.091C19.8312 28.058 19.8573 28.0293 19.8882 28.0065C19.919 27.9838 19.9539 27.9674 19.9909 27.9584C20.0279 27.9493 20.0664 27.9478 20.104 27.9538C20.1416 27.9599 20.1777 27.9734 20.2102 27.9936C20.2426 28.0138 20.2709 28.0403 20.2933 28.0716C20.3157 28.1029 20.3318 28.1384 20.3407 28.1761C20.359 28.2468 21.9448 35.2769 14.4114 39.754C14.3721 39.7764 14.3282 39.7892 14.2832 39.7912Z" fill="#D3C53F"/>
<path id="Vector_29" d="M32.104 36.6324H32.0637C31.5986 36.5691 20.6775 35.0804 19.9267 29.5836C19.9165 29.5051 19.9374 29.4258 19.9848 29.363C20.0322 29.3001 20.1022 29.259 20.1794 29.2487C20.2566 29.2383 20.3348 29.2595 20.3966 29.3077C20.4584 29.3558 20.4988 29.427 20.509 29.5055C21.1976 34.5557 32.038 36.0332 32.1442 36.0443C32.2208 36.0546 32.2903 36.0951 32.3377 36.1571C32.385 36.2192 32.4063 36.2977 32.3969 36.3756C32.3879 36.4476 32.353 36.5136 32.2989 36.5611C32.2448 36.6085 32.1754 36.6339 32.104 36.6324Z" fill="#D3C53F"/>
<path id="Vector_30" d="M27.9839 38.3553H27.9619C27.8854 38.3487 27.8146 38.3118 27.7646 38.2527C27.7146 38.1935 27.6895 38.1168 27.6945 38.039C27.6945 37.9459 27.7824 36.0219 24.6585 34.5407C24.5888 34.5067 24.5349 34.4465 24.5082 34.3729C24.4816 34.2992 24.4842 34.2179 24.5156 34.1462C24.5318 34.1108 24.5546 34.079 24.583 34.0527C24.6113 34.0263 24.6445 34.006 24.6806 33.9928C24.7167 33.9797 24.7551 33.9739 24.7934 33.976C24.8317 33.978 24.8693 33.9878 24.9039 34.0047C28.427 35.6758 28.2805 37.9869 28.2732 38.0985C28.2642 38.1699 28.2298 38.2354 28.1765 38.2828C28.1232 38.3301 28.0547 38.3559 27.9839 38.3553Z" fill="#D3C53F"/>
<path id="Vector_31" d="M21.908 39.7918C21.8525 39.792 21.798 39.7766 21.7506 39.7472C21.6858 39.7045 21.6402 39.6375 21.6238 39.5608C21.6073 39.4842 21.6213 39.404 21.6627 39.3378C21.7139 39.2596 22.8053 37.4509 21.0291 34.9388C21.0017 34.8761 20.9967 34.8056 21.015 34.7395C21.0334 34.6735 21.0739 34.616 21.1296 34.5771C21.1852 34.5382 21.2525 34.5204 21.3198 34.5266C21.3871 34.5329 21.4501 34.5628 21.4979 34.6113C23.5195 37.4621 22.2084 39.5834 22.1534 39.6727C22.1253 39.7115 22.0882 39.7426 22.0454 39.7634C22.0026 39.7842 21.9554 39.7939 21.908 39.7918Z" fill="#D3C53F"/>
<path id="Vector_32" d="M22.5123 17.5959C22.4213 17.4793 22.3055 17.3852 22.1735 17.3207C22.0416 17.2563 21.8969 17.2231 21.7505 17.2237C21.5979 17.2219 21.4471 17.2576 21.311 17.3279C21.1174 17.4309 20.9637 17.5975 20.8752 17.8006C20.8069 17.9305 20.7712 18.0756 20.7712 18.223C20.7712 18.3703 20.8069 18.5154 20.8752 18.6454L19.8901 19.6353C19.7747 19.7601 19.7116 19.9256 19.7143 20.0968V22.0953H20.249V20.3313C20.2491 20.1833 20.3071 20.0414 20.4101 19.9368L21.2415 19.0659C21.4019 19.16 21.5836 19.2101 21.7688 19.2111C21.953 19.2108 22.1334 19.1578 22.2892 19.0579C22.445 18.9581 22.5698 18.8156 22.6494 18.6468C22.729 18.4781 22.7601 18.2899 22.7391 18.104C22.7181 17.918 22.6458 17.7419 22.5306 17.5959H22.5123ZM15.9714 19.613L15.0155 18.6677C15.1803 18.0201 15.0558 17.5996 14.6017 17.3428C14.4572 17.2576 14.2926 17.2139 14.1256 17.2163C13.9888 17.2141 13.8531 17.2407 13.7271 17.2945C13.601 17.3484 13.4873 17.4281 13.3931 17.5289C13.247 17.6946 13.1583 17.9043 13.1405 18.1261C13.1226 18.3478 13.1766 18.5694 13.2942 18.757C13.4101 18.9449 13.5879 19.0847 13.796 19.1515C13.8981 19.1896 14.0058 19.2097 14.1146 19.2111C14.2835 19.2167 14.4491 19.1628 14.5834 19.0585L15.4623 19.9442C15.5637 20.0496 15.6202 20.1913 15.6198 20.3387V22.0916H16.1508V20.067C16.1506 19.8979 16.0863 19.7353 15.9714 19.613ZM20.249 20.3313C20.2491 20.1833 20.3071 20.0414 20.4101 19.9368L21.2415 19.0659C21.4019 19.16 21.5836 19.2101 21.7688 19.2111C22.0282 19.2111 22.2769 19.1064 22.4603 18.92C22.6437 18.7337 22.7467 18.4809 22.7467 18.2174C22.7467 17.9539 22.6437 17.7011 22.4603 17.5148C22.2769 17.3284 22.0282 17.2237 21.7688 17.2237C21.6162 17.2219 21.4654 17.2576 21.3294 17.3279C21.1288 17.4275 20.9684 17.5945 20.8752 17.8006C20.8069 17.9305 20.7712 18.0756 20.7712 18.223C20.7712 18.3703 20.8069 18.5154 20.8752 18.6454L19.8901 19.6353C19.7747 19.7601 19.7116 19.9256 19.7143 20.0968V22.0953H20.249V20.3313ZM23.3839 20.4801C23.2931 20.3865 23.1847 20.3122 23.0652 20.2617C22.9457 20.2112 22.8175 20.1855 22.6881 20.1861C22.5004 20.1845 22.3161 20.2375 22.157 20.3387C21.948 20.4705 21.7978 20.6799 21.7383 20.9224C21.6788 21.165 21.7147 21.4215 21.8384 21.6376L19.901 23.5989C19.7822 23.7207 19.7151 23.8851 19.7143 24.0566V27.1418H20.2526V24.3097C20.2585 24.1702 20.3145 24.0378 20.4101 23.9375L22.2047 22.0767C22.3552 22.1561 22.5221 22.1981 22.6917 22.1995C22.8915 22.2051 23.0882 22.1486 23.2556 22.0376C23.4229 21.9265 23.5529 21.7662 23.6281 21.5781C23.7034 21.3899 23.7203 21.1829 23.6767 20.9847C23.6331 20.7865 23.5309 20.6066 23.3839 20.469V20.4801ZM17.9454 16.003C17.7232 15.9999 17.5068 16.0743 17.3322 16.2139C17.1575 16.3534 17.0353 16.5496 16.9858 16.7697C16.9339 16.9868 16.9571 17.2155 17.0518 17.4172C17.105 17.5458 17.1882 17.6594 17.294 17.7481C17.3999 17.8369 17.5254 17.8983 17.6597 17.9271V27.1418H18.2164L18.1944 17.9718C18.7511 17.715 19.0001 17.3019 18.9012 16.8106C18.8575 16.5849 18.7386 16.3814 18.5645 16.2343C18.3904 16.0872 18.1718 16.0055 17.9454 16.003ZM15.0155 18.6677C15.1803 18.0201 15.0558 17.5996 14.6017 17.3428C14.4572 17.2576 14.2926 17.2139 14.1256 17.2163C13.9888 17.2141 13.8531 17.2407 13.7271 17.2945C13.601 17.3484 13.4873 17.4281 13.3931 17.5289C13.247 17.6946 13.1583 17.9043 13.1405 18.1261C13.1226 18.3478 13.1766 18.5694 13.2942 18.757C13.4101 18.9449 13.5879 19.0847 13.796 19.1515C13.8981 19.1896 14.0058 19.2097 14.1146 19.2111C14.2835 19.2167 14.4491 19.1628 14.5834 19.0585L15.4623 19.9442C15.5637 20.0496 15.6202 20.1913 15.6198 20.3387V22.0916H16.1508V20.067C16.1496 19.8974 16.084 19.7347 15.9677 19.613L15.0155 18.6677ZM20.2563 20.3313C20.2564 20.1833 20.3144 20.0414 20.4174 19.9368L21.2415 19.0659C21.4019 19.16 21.5836 19.2101 21.7688 19.2111C22.0282 19.2111 22.2769 19.1064 22.4603 18.92C22.6437 18.7337 22.7467 18.4809 22.7467 18.2174C22.7467 17.9539 22.6437 17.7011 22.4603 17.5148C22.2769 17.3284 22.0282 17.2237 21.7688 17.2237C21.6162 17.2219 21.4654 17.2576 21.3294 17.3279C21.1288 17.4275 20.9684 17.5945 20.8752 17.8006C20.8069 17.9305 20.7712 18.0756 20.7712 18.223C20.7712 18.3703 20.8069 18.5154 20.8752 18.6454L19.8901 19.6353C19.7747 19.7601 19.7116 19.9256 19.7143 20.0968V22.0953H20.249L20.2563 20.3313ZM23.3912 20.4801C23.3004 20.3865 23.1921 20.3122 23.0726 20.2617C22.9531 20.2112 22.8248 20.1855 22.6954 20.1861C22.5077 20.1845 22.3235 20.2375 22.1644 20.3387C21.9553 20.4705 21.8051 20.6799 21.7456 20.9224C21.6861 21.165 21.722 21.4215 21.8457 21.6376L19.9084 23.5989C19.7895 23.7207 19.7225 23.8851 19.7216 24.0566V27.1418H20.2526V24.3097C20.2585 24.1702 20.3145 24.0378 20.4101 23.9375L22.2047 22.0767C22.3552 22.1561 22.5221 22.1981 22.6917 22.1995C22.8915 22.2051 23.0882 22.1486 23.2556 22.0376C23.4229 21.9265 23.5529 21.7662 23.6281 21.5781C23.7034 21.3899 23.7203 21.1829 23.6767 20.9847C23.6331 20.7865 23.5309 20.6066 23.3839 20.469L23.3912 20.4801ZM17.9454 16.003C17.7232 15.9999 17.5068 16.0743 17.3322 16.2139C17.1575 16.3534 17.0353 16.5496 16.9858 16.7697C16.9339 16.9868 16.9571 17.2155 17.0518 17.4172C17.105 17.5458 17.1882 17.6594 17.294 17.7481C17.3999 17.8369 17.5254 17.8983 17.6597 17.9271V27.1418H18.2164L18.1944 17.9718C18.7511 17.715 19.0001 17.3019 18.9012 16.8106C18.8575 16.5849 18.7386 16.3814 18.5645 16.2343C18.3904 16.0872 18.1718 16.0055 17.9454 16.003ZM15.0155 18.6677C15.1803 18.0201 15.0558 17.5996 14.6017 17.3428C14.4572 17.2576 14.2926 17.2139 14.1256 17.2163C13.9888 17.2141 13.8531 17.2407 13.7271 17.2945C13.601 17.3484 13.4873 17.4281 13.3931 17.5289C13.247 17.6946 13.1583 17.9043 13.1405 18.1261C13.1226 18.3478 13.1766 18.5694 13.2942 18.757C13.4101 18.9449 13.5879 19.0847 13.796 19.1515C13.8981 19.1896 14.0058 19.2097 14.1146 19.2111C14.2835 19.2167 14.4491 19.1628 14.5834 19.0585L15.4623 19.9442C15.5637 20.0496 15.6202 20.1913 15.6198 20.3387V22.0916H16.1508V20.067C16.1496 19.8974 16.084 19.7347 15.9677 19.613L15.0155 18.6677ZM14.0487 21.645C14.1663 21.4287 14.2008 21.1756 14.1453 20.935C14.0898 20.6943 13.9483 20.4831 13.7483 20.3424C13.5635 20.2087 13.3387 20.1445 13.1124 20.1608C12.886 20.1771 12.6723 20.2728 12.5078 20.4316C12.3434 20.5904 12.2383 20.8024 12.2107 21.0312C12.1832 21.26 12.2347 21.4915 12.3567 21.6859C12.438 21.8261 12.5543 21.9419 12.6939 22.0216C12.8335 22.1014 12.9913 22.1422 13.1514 22.14C13.3179 22.1429 13.4825 22.1046 13.6311 22.0283L15.4623 23.8891C15.5624 23.9954 15.6187 24.1365 15.6198 24.2836V27.1232H16.1508V24.0306C16.1489 23.8611 16.0834 23.6987 15.9677 23.5765L14.0487 21.645Z" fill="white"/>
<path id="Vector_33" d="M17.9453 1.61523L1.51611 28.3737H34.3489L17.9453 1.61523ZM3.70985 27.1418L17.9453 3.94869L32.1551 27.1418H3.70985Z" fill="white"/>
</g>
</g>
</g>
<defs>
<linearGradient id="paint0_linear_121_3798" x1="17.6378" y1="-3.52438" x2="17.9895" y2="34.1607" gradientUnits="userSpaceOnUse">
<stop stop-color="#16BCC8"/>
<stop offset="0.1" stop-color="#1AB6C4"/>
<stop offset="0.24" stop-color="#26A5BA"/>
<stop offset="0.4" stop-color="#3889AA"/>
<stop offset="0.54" stop-color="#4D6B98"/>
<stop offset="1" stop-color="#6D4882"/>
</linearGradient>
<clipPath id="clip0_121_3798">
<rect width="99" height="40" fill="white"/>
</clipPath>
</defs>
</svg>
