<svg width="214" height="85" viewBox="0 0 214 85" fill="none" xmlns="http://www.w3.org/2000/svg">
<g id="Logo Variation 2 SVG 1" clip-path="url(#clip0_981_192)">
<g id="Layer 2">
<g id="Layer 1">
<path id="Vector" d="M88.5544 26.7383V38.506H86.2349V26.7383H88.5544Z" fill="white"/>
<path id="Vector_2" d="M98.5611 26.7383V28.9764H93.5183V31.6336H97.8882V33.8717H93.5183V38.4902H91.1987V26.7383H98.5611Z" fill="white"/>
<path id="Vector_3" d="M112.352 26.7383V28.9764H109.486V38.4665H107.158V28.9764H104.403V26.7383H112.352Z" fill="white"/>
<path id="Vector_4" d="M124.107 38.506H121.78V33.761H116.515V38.506H114.188V26.7383H116.515V31.4833H121.78V26.7383H124.107V38.506Z" fill="white"/>
<path id="Vector_5" d="M134.787 26.7383V28.9764H129.039V31.4833H134.098V33.7293H129.039V36.268H134.977V38.506H126.744V26.7383H134.787Z" fill="white"/>
<path id="Vector_6" d="M140.629 28.7315C140.208 28.7065 139.79 28.8144 139.434 29.0399C139.294 29.1452 139.183 29.2834 139.11 29.442C139.037 29.6007 139.004 29.775 139.014 29.9494C139.026 30.1528 139.088 30.35 139.196 30.5228C139.304 30.6956 139.454 30.8384 139.632 30.938C140.146 31.2624 140.696 31.5277 141.27 31.7288C141.772 31.903 142.25 32.1367 142.695 32.4247C143.104 32.6997 143.441 33.0685 143.677 33.5003C143.958 34.0388 144.095 34.641 144.073 35.2481C144.076 35.843 143.912 36.4269 143.598 36.9326C143.264 37.4677 142.783 37.8958 142.213 38.1663C141.532 38.4855 140.787 38.6426 140.035 38.625C139.325 38.6211 138.618 38.5146 137.938 38.3086C137.243 38.1009 136.588 37.7803 135.998 37.3596L137.027 35.5486C137.453 35.8602 137.923 36.108 138.421 36.2841C138.87 36.462 139.347 36.561 139.83 36.5767C140.277 36.5849 140.72 36.4758 141.112 36.2603C141.289 36.1602 141.433 36.0118 141.529 35.8325C141.624 35.6532 141.666 35.4505 141.65 35.2481C141.65 34.6391 141.08 34.1092 139.94 33.6664C139.365 33.4373 138.805 33.1732 138.262 32.8755C137.798 32.62 137.399 32.2599 137.098 31.8237C136.757 31.3122 136.585 30.7062 136.608 30.0918C136.594 29.6414 136.676 29.1932 136.849 28.7772C137.023 28.3612 137.283 27.987 137.613 27.6797C138.348 27.0325 139.293 26.6753 140.273 26.6753C141.017 26.6556 141.76 26.7544 142.474 26.9679C143.077 27.173 143.652 27.4548 144.184 27.8062L143.289 29.5856C142.487 29.0855 141.573 28.792 140.629 28.7315Z" fill="white"/>
<path id="Vector_7" d="M153.985 26.7383V28.9764H148.269V31.4833H153.328V33.7293H148.269V36.268H154.206V38.506H145.941V26.7383H153.985Z" fill="white"/>
<path id="Vector_8" d="M163.334 26.7383V36.2284H168.876V38.4665H161.015V26.7383H163.334Z" fill="white"/>
<path id="Vector_9" d="M176.705 36.2045H172.803L171.837 38.5059H169.549L174.869 26.2715H174.995L180.307 38.5059H177.624L176.705 36.2045ZM175.914 34.2511L174.782 31.3882L173.594 34.2511H175.914Z" fill="white"/>
<path id="Vector_10" d="M192.237 26.7381V38.9883H192.174L183.925 31.5464L183.98 38.5059H181.605V26.2715H181.7L189.934 33.8241L189.886 26.7064L192.237 26.7381Z" fill="white"/>
<path id="Vector_11" d="M194.881 26.7383H198.404C199.698 26.6858 200.982 26.9866 202.117 27.6082C203.039 28.1272 203.781 28.913 204.247 29.8621C204.69 30.7877 204.917 31.8017 204.912 32.8278C204.937 33.8791 204.663 34.9161 204.12 35.8172C203.605 36.6714 202.859 37.3625 201.967 37.8101C201.049 38.2802 200.029 38.5191 198.998 38.506H194.897L194.881 26.7383ZM198.578 36.2284C199.618 36.2846 200.641 35.9551 201.452 35.3031C201.814 34.9626 202.096 34.5464 202.278 34.0843C202.46 33.6222 202.538 33.1256 202.505 32.6301C202.545 31.8415 202.341 31.0598 201.919 30.392C201.582 29.8933 201.11 29.501 200.558 29.2611C200.095 29.0602 199.597 28.9527 199.093 28.9447H197.201V36.2521L198.578 36.2284Z" fill="white"/>
<path id="Vector_12" d="M210.446 28.7315C210.027 28.705 209.611 28.8131 209.258 29.04C209.116 29.1434 209.002 29.281 208.928 29.4399C208.853 29.5989 208.819 29.7741 208.831 29.9494C208.842 30.1528 208.904 30.35 209.012 30.5228C209.12 30.6957 209.27 30.8384 209.448 30.938C209.964 31.2608 210.513 31.526 211.087 31.7288C211.588 31.903 212.066 32.1367 212.512 32.4248C212.923 32.6994 213.262 33.0682 213.501 33.5003C213.78 34.0396 213.913 34.6418 213.889 35.2481C213.893 35.843 213.728 36.4269 213.414 36.9326C213.083 37.4674 212.605 37.8957 212.037 38.1663C211.354 38.4854 210.606 38.6424 209.852 38.625C209.141 38.6212 208.434 38.5146 207.754 38.3087C207.061 38.1025 206.408 37.7817 205.822 37.3596L206.844 35.5881C207.27 35.8998 207.739 36.1476 208.237 36.3236C208.686 36.5015 209.163 36.6005 209.646 36.6162C210.094 36.6245 210.536 36.5154 210.928 36.2999C211.106 36.2001 211.252 36.052 211.348 35.8728C211.445 35.6936 211.489 35.4907 211.475 35.2876C211.475 34.6787 210.905 34.1488 209.757 33.7059C209.182 33.4769 208.621 33.2127 208.078 32.9151C207.614 32.6596 207.216 32.2994 206.915 31.8633C206.576 31.3509 206.407 30.745 206.432 30.1313C206.409 29.6762 206.485 29.2214 206.654 28.7983C206.824 28.3752 207.083 27.9936 207.413 27.6797C208.151 27.0326 209.1 26.6756 210.081 26.6753C210.823 26.6556 211.564 26.7543 212.274 26.9679C212.878 27.173 213.453 27.4548 213.984 27.8062L213.105 29.5856C212.304 29.0846 211.389 28.791 210.446 28.7315Z" fill="white"/>
<path id="Vector_13" d="M93.6447 57.4628C92.9634 57.7148 92.2417 57.8407 91.5152 57.8345C90.4079 57.8578 89.3146 57.5848 88.3486 57.0436C87.4651 56.5375 86.7432 55.7916 86.2665 54.8925C85.7812 53.9771 85.5335 52.9547 85.5461 51.919C85.5254 50.8217 85.7727 49.7359 86.2665 48.7556C86.7168 47.8543 87.4177 47.1019 88.2852 46.5887C89.1898 46.0524 90.226 45.7786 91.2777 45.7978C91.9507 45.7919 92.6206 45.8879 93.2648 46.0825C93.82 46.2569 94.3517 46.4986 94.8481 46.8022L93.9218 49.0324C93.1871 48.4335 92.2732 48.0968 91.3252 48.0755C90.7291 48.0745 90.1457 48.2476 89.6469 48.5737C89.1147 48.9026 88.6823 49.3701 88.3961 49.926C88.0851 50.5073 87.9246 51.1571 87.929 51.8162C87.9121 52.5057 88.0615 53.1892 88.3644 53.8091C88.6341 54.3647 89.0606 54.8293 89.5915 55.1456C90.1617 55.4731 90.8101 55.6398 91.4677 55.628C92.0093 55.6408 92.5479 55.544 93.051 55.3433C93.4551 55.1953 93.8263 54.9696 94.1435 54.679L95.1014 56.7589C94.6559 57.0686 94.1643 57.3061 93.6447 57.4628Z" fill="white"/>
<path id="Vector_14" d="M97.0808 48.843C97.6127 47.94 98.3678 47.1884 99.2737 46.6603C100.184 46.1201 101.223 45.835 102.282 45.835C103.341 45.835 104.38 46.1201 105.29 46.6603C106.2 47.2022 106.96 47.9636 107.499 48.8747C108.038 49.7831 108.323 50.8198 108.323 51.8759C108.323 52.9321 108.038 53.9688 107.499 54.8772C106.955 55.7683 106.196 56.5081 105.29 57.0283C104.376 57.5566 103.338 57.8347 102.282 57.8347C101.226 57.8347 100.188 57.5566 99.2737 57.0283C98.3678 56.5028 97.6147 55.7505 97.0887 54.8455C96.5598 53.9336 96.2813 52.8983 96.2812 51.8443C96.2813 50.7903 96.5598 49.755 97.0887 48.843H97.0808ZM99.1629 53.7225C99.478 54.2875 99.9368 54.7594 100.493 55.0907C101.058 55.4269 101.704 55.602 102.361 55.5969C102.998 55.5998 103.624 55.4245 104.166 55.0907C104.706 54.7583 105.149 54.289 105.449 53.7305C105.76 53.1435 105.924 52.4891 105.924 51.8245C105.924 51.16 105.76 50.5056 105.449 49.9186C105.142 49.3548 104.692 48.8826 104.142 48.5504C103.588 48.2195 102.955 48.0447 102.31 48.0447C101.664 48.0447 101.031 48.2195 100.477 48.5504C99.9297 48.885 99.4794 49.3566 99.1708 49.9186C98.8475 50.5043 98.6811 51.1636 98.6879 51.8324C98.6781 52.4931 98.8419 53.1448 99.1629 53.7225Z" fill="white"/>
<path id="Vector_15" d="M112.653 54.4263C112.88 54.7706 113.187 55.0554 113.547 55.2567C113.912 55.4698 114.328 55.5818 114.75 55.5809C115.194 55.5833 115.63 55.4716 116.017 55.2567C116.386 55.0636 116.697 54.7773 116.92 54.4263C117.133 54.111 117.249 53.7395 117.252 53.3586V45.9326H119.54V53.4061C119.55 54.2111 119.327 55.0018 118.899 55.6837C118.475 56.3581 117.876 56.9047 117.165 57.2654C116.418 57.6482 115.59 57.8436 114.75 57.8348C113.924 57.8397 113.109 57.6444 112.375 57.2654C111.667 56.9046 111.07 56.3578 110.65 55.6837C110.227 54.9995 110.008 54.2098 110.016 53.4061V45.9326H112.344V53.3586C112.34 53.7371 112.447 54.1084 112.653 54.4263Z" fill="white"/>
<path id="Vector_16" d="M124.29 45.9326V55.4228H129.831V57.732H121.915V45.9326H124.29Z" fill="white"/>
<path id="Vector_17" d="M131.803 45.932H135.326C136.622 45.8825 137.907 46.183 139.046 46.802C139.956 47.3223 140.694 48.0977 141.168 49.0321C141.612 49.9602 141.84 50.977 141.833 52.0057C141.856 53.0567 141.581 54.0928 141.041 54.9951C140.517 55.8443 139.769 56.5336 138.88 56.988C137.96 57.4534 136.942 57.692 135.911 57.684H131.811L131.803 45.932ZM135.508 55.4222C136.535 55.498 137.555 55.1941 138.373 54.568C138.735 54.2276 139.017 53.8114 139.199 53.3492C139.381 52.8871 139.459 52.3905 139.426 51.895C139.469 51.1062 139.265 50.3237 138.841 49.6569C138.508 49.1536 138.038 48.7557 137.487 48.5102C137.022 48.3077 136.522 48.1976 136.014 48.1859H134.13V55.4933L135.508 55.4222Z" fill="white"/>
<path id="Vector_18" d="M155.695 45.9326V48.1707H152.829V57.732H150.509V48.1707H147.754V45.9326H155.695Z" fill="white"/>
<path id="Vector_19" d="M162.408 55.3985H158.497L157.539 57.7315H155.251L160.563 45.4893H160.706L166.01 57.7315H163.318L162.408 55.3985ZM161.616 53.4531L160.5 50.6139L159.321 53.4768L161.616 53.4531Z" fill="white"/>
<path id="Vector_20" d="M169.644 45.9326V55.4228H175.185V57.732H167.324V45.9326H169.644Z" fill="white"/>
<path id="Vector_21" d="M179.476 50.7172L179.832 50.2664L183.664 45.9326H186.672L181.811 51.2076L186.696 57.732H183.751L180.117 52.7102L179.539 53.2796V57.732H177.164V45.9326H179.539V50.1241L179.476 50.7172Z" fill="white"/>
<path id="Vector_22" d="M38.7673 0L0 62.1129H77.5267L38.7673 0Z" fill="url(#paint0_linear_981_192)"/>
<path id="Vector_23" d="M8.13053 78.0487C7.96466 78.0571 7.80225 77.9993 7.67903 77.8881C7.61801 77.833 7.56845 77.7665 7.53318 77.6923C7.49791 77.6181 7.47762 77.5376 7.47346 77.4556C7.4693 77.3735 7.48136 77.2915 7.50895 77.2141C7.53653 77.1367 7.57911 77.0655 7.63424 77.0045C7.74559 76.8814 7.90133 76.8076 8.0672 76.7992C13.3892 76.3016 18.5906 74.9197 23.457 72.7105C26.6711 71.2 31.0648 69.1359 33.0518 65.3873C34.0563 63.5285 34.3221 61.3596 33.796 59.3136C33.7762 59.2336 33.7724 59.1506 33.7848 59.0691C33.7972 58.9877 33.8255 58.9095 33.8681 58.839C33.9543 58.6966 34.0935 58.5943 34.2551 58.5544C34.3352 58.5347 34.4183 58.5309 34.4998 58.5432C34.5814 58.5556 34.6596 58.5839 34.7302 58.6265C34.8727 58.7125 34.9752 58.8516 35.0151 59.0131C35.6007 61.3587 35.2961 63.8379 34.1601 65.9725C31.9831 70.0928 27.3677 72.2993 23.9953 73.881C19.003 76.1535 13.6644 77.573 8.20178 78.0804L8.13053 78.0487Z" fill="#D3C53F"/>
<path id="Vector_24" d="M16.6246 81.7413H16.5692C16.4873 81.7354 16.4074 81.7132 16.3342 81.676C16.261 81.6388 16.196 81.5874 16.1429 81.5248C16.0898 81.4622 16.0498 81.3897 16.0251 81.3114C16.0004 81.2332 15.9916 81.1508 15.9992 81.0691C16.2504 79.2861 16.9862 77.6061 18.1265 76.2117C19.2669 74.8174 20.7682 73.7621 22.467 73.1607C22.6194 73.1061 22.7871 73.1127 22.9347 73.1791C23.0824 73.2454 23.1985 73.3664 23.2587 73.5166C23.3118 73.6679 23.3054 73.8338 23.2407 73.9806C23.176 74.1274 23.058 74.2442 22.9104 74.3074C21.4329 74.8226 20.1238 75.7301 19.1237 76.9326C18.1236 78.1351 17.4704 79.587 17.2342 81.1324C17.2302 81.2926 17.1647 81.4452 17.0512 81.5585C16.9378 81.6719 16.785 81.7373 16.6246 81.7413Z" fill="#D3C53F"/>
<path id="Vector_25" d="M40.6039 84.9998C40.4569 85 40.3144 84.9497 40.2001 84.8574C40.0972 84.7705 30.1699 76.2926 33.5502 64.2955C33.5712 64.215 33.608 64.1395 33.6586 64.0735C33.7091 64.0074 33.7724 63.9521 33.8446 63.9108C33.9168 63.8694 33.9966 63.8429 34.0792 63.8328C34.1618 63.8226 34.2456 63.8291 34.3257 63.8517C34.4058 63.8744 34.4806 63.9127 34.5456 63.9646C34.6107 64.0165 34.6647 64.0808 34.7045 64.1538C34.7444 64.2268 34.7693 64.307 34.7777 64.3897C34.7861 64.4725 34.7779 64.556 34.7535 64.6355C31.5869 75.8655 40.9126 83.8373 41.0076 83.9163C41.1348 84.0239 41.2144 84.1772 41.2292 84.343C41.2441 84.5088 41.1929 84.6737 41.0868 84.8021C41.0256 84.8683 40.9507 84.9203 40.8673 84.9544C40.7838 84.9886 40.6939 85.0041 40.6039 84.9998Z" fill="#D3C53F"/>
<path id="Vector_26" d="M20.8365 82.8722C20.7236 82.8728 20.6127 82.842 20.5163 82.7834C20.4198 82.7247 20.3416 82.6405 20.2903 82.54C20.2516 82.4657 20.2285 82.3842 20.2224 82.3007C20.2162 82.2171 20.2272 82.1332 20.2546 82.054C20.282 81.9748 20.3253 81.9021 20.3818 81.8401C20.4383 81.7782 20.5068 81.7284 20.5832 81.6938C39.3929 71.5947 37.9125 59.3762 37.8887 59.2496C37.8646 59.085 37.9069 58.9175 38.0064 58.784C38.1058 58.6505 38.2543 58.562 38.4191 58.5379C38.584 58.5138 38.7516 58.556 38.8852 58.6554C39.0189 58.7548 39.1075 58.9031 39.1316 59.0677C39.2108 59.6055 40.8179 72.2511 21.1373 82.7931C21.0459 82.8457 20.942 82.873 20.8365 82.8722Z" fill="#D3C53F"/>
<path id="Vector_27" d="M56.9277 82.6673C56.8161 82.6682 56.7065 82.638 56.611 82.5803C36.2101 70.5515 38.0546 59.717 38.1496 59.2583C38.1866 59.1011 38.283 58.9644 38.4186 58.8766C38.5543 58.7889 38.7187 58.7571 38.8773 58.7878C39.036 58.8184 39.1766 58.9093 39.2697 59.0412C39.3627 59.1731 39.4011 59.3359 39.3767 59.4955C39.3767 59.5983 37.6984 69.9742 57.2523 81.5047C57.3933 81.5902 57.4953 81.7273 57.5367 81.8868C57.5781 82.0463 57.5556 82.2157 57.4739 82.3588C57.4181 82.4538 57.3382 82.5323 57.2423 82.5864C57.1464 82.6406 57.0379 82.6685 56.9277 82.6673Z" fill="#D3C53F"/>
<path id="Vector_28" d="M30.8747 84.5568C30.7377 84.5564 30.6047 84.5111 30.496 84.4279C30.3872 84.3447 30.3089 84.2281 30.2729 84.096C30.237 83.964 30.2454 83.8238 30.2969 83.6971C30.3484 83.5703 30.4401 83.4639 30.558 83.3942C45.9795 74.3391 42.892 60.7444 42.7495 60.1671C42.7303 60.0872 42.727 60.0042 42.7399 59.9229C42.7527 59.8417 42.7815 59.7638 42.8245 59.6937C42.8675 59.6235 42.9239 59.5626 42.9905 59.5142C43.0571 59.4659 43.1326 59.4311 43.2126 59.4119C43.2927 59.3926 43.3757 59.3894 43.4571 59.4022C43.5384 59.4151 43.6164 59.4438 43.6866 59.4868C43.7568 59.5297 43.8178 59.5861 43.8662 59.6526C43.9146 59.7191 43.9494 59.7945 43.9687 59.8745C44.0083 60.0248 47.4361 74.9638 31.1518 84.4777C31.0668 84.5252 30.972 84.5523 30.8747 84.5568Z" fill="#D3C53F"/>
<path id="Vector_29" d="M69.3963 77.8433H69.3093C68.3039 77.7088 44.6967 74.5455 43.0738 62.8647C43.0518 62.6979 43.0969 62.5293 43.1994 62.3958C43.3018 62.2623 43.4531 62.1749 43.6201 62.1529C43.787 62.1309 43.9558 62.176 44.0894 62.2784C44.2231 62.3807 44.3105 62.5319 44.3326 62.6986C45.8209 73.4304 69.2538 76.57 69.4834 76.5938C69.649 76.6155 69.7992 76.7016 69.9015 76.8334C70.0038 76.9652 70.0499 77.132 70.0297 77.2976C70.0101 77.4506 69.9347 77.591 69.8177 77.6918C69.7008 77.7925 69.5507 77.8465 69.3963 77.8433Z" fill="#D3C53F"/>
<path id="Vector_30" d="M60.4904 81.5042H60.4429C60.2777 81.4901 60.1245 81.4117 60.0165 81.286C59.9084 81.1603 59.854 80.9973 59.865 80.832C59.865 80.6343 60.055 76.5456 53.3022 73.398C53.1516 73.326 53.0351 73.1981 52.9774 73.0415C52.9198 72.885 52.9255 72.7121 52.9934 72.5597C53.0283 72.4845 53.0777 72.417 53.139 72.361C53.2002 72.3051 53.2719 72.2619 53.35 72.2339C53.4281 72.2059 53.511 72.1938 53.5939 72.1981C53.6767 72.2025 53.7579 72.2232 53.8326 72.2592C61.4483 75.8101 61.1316 80.7213 61.1158 80.9585C61.0964 81.1102 61.0221 81.2494 60.9068 81.35C60.7916 81.4506 60.6434 81.5054 60.4904 81.5042Z" fill="#D3C53F"/>
<path id="Vector_31" d="M47.3567 84.5574C47.2366 84.5578 47.1188 84.5249 47.0163 84.4625C46.8763 84.3717 46.7778 84.2294 46.7422 84.0665C46.7066 83.9036 46.7368 83.7333 46.8263 83.5925C46.9371 83.4264 49.2963 79.5829 45.4567 74.2447C45.3974 74.1114 45.3867 73.9616 45.4264 73.8212C45.466 73.6809 45.5536 73.5588 45.6739 73.4761C45.7942 73.3935 45.9397 73.3555 46.0851 73.3688C46.2305 73.3821 46.3667 73.4457 46.4701 73.5488C50.84 79.6067 48.0059 84.1145 47.8871 84.3043C47.8262 84.3867 47.746 84.4528 47.6535 84.4969C47.561 84.5411 47.4591 84.5618 47.3567 84.5574Z" fill="#D3C53F"/>
<path id="Vector_32" d="M48.6631 37.3909C48.4664 37.1431 48.2161 36.9432 47.9308 36.8062C47.6456 36.6692 47.3329 36.5987 47.0164 36.6C46.6865 36.5961 46.3605 36.6721 46.0664 36.8215C45.6478 37.0403 45.3157 37.3943 45.1244 37.8258C44.9767 38.1021 44.8995 38.4103 44.8995 38.7234C44.8995 39.0366 44.9767 39.3448 45.1244 39.6211L42.9948 41.7247C42.7454 41.9898 42.6091 42.3416 42.6148 42.7053V46.9522H43.7706V43.2036C43.7709 42.8891 43.8962 42.5875 44.119 42.3653L45.916 40.5147C46.2627 40.7147 46.6556 40.821 47.056 40.8231C47.4541 40.8227 47.844 40.7099 48.1807 40.4977C48.5175 40.2856 48.7875 39.9828 48.9595 39.6242C49.1316 39.2655 49.1988 38.8656 49.1533 38.4705C49.1079 38.0754 48.9516 37.7012 48.7026 37.3909H48.6631ZM34.5241 41.6773L32.4579 39.6685C32.8141 38.2924 32.545 37.3988 31.5633 36.8531C31.251 36.6721 30.8953 36.5791 30.5342 36.5842C30.2386 36.5796 29.9453 36.6362 29.6728 36.7505C29.4003 36.8649 29.1544 37.0344 28.9509 37.2485C28.6351 37.6007 28.4433 38.0463 28.4048 38.5175C28.3662 38.9887 28.4829 39.4596 28.7371 39.8583C28.9876 40.2575 29.372 40.5546 29.8217 40.6966C30.0424 40.7775 30.2753 40.8203 30.5104 40.8231C30.8755 40.8351 31.2335 40.7205 31.5237 40.4989L33.4237 42.3811C33.6428 42.6051 33.7651 42.9062 33.7641 43.2194V46.9443H34.912V42.6421C34.9115 42.2826 34.7726 41.9372 34.5241 41.6773ZM43.7706 43.2036C43.7709 42.8891 43.8962 42.5875 44.119 42.3653L45.916 40.5147C46.2627 40.7147 46.6556 40.821 47.056 40.8231C47.6166 40.8231 48.1542 40.6007 48.5506 40.2047C48.947 39.8087 49.1697 39.2716 49.1697 38.7116C49.1697 38.1516 48.947 37.6145 48.5506 37.2185C48.1542 36.8225 47.6166 36.6 47.056 36.6C46.7261 36.5961 46.4001 36.6721 46.106 36.8215C45.6726 37.033 45.3257 37.3879 45.1244 37.8258C44.9767 38.1021 44.8995 38.4103 44.8995 38.7234C44.8995 39.0366 44.9767 39.3448 45.1244 39.6211L42.9948 41.7247C42.7454 41.9898 42.6091 42.3416 42.6148 42.7053V46.9522H43.7706V43.2036ZM50.5472 43.5199C50.3508 43.3209 50.1166 43.163 49.8583 43.0557C49.6 42.9484 49.3228 42.8938 49.043 42.8952C48.6373 42.8918 48.239 43.0043 47.8951 43.2194C47.4433 43.4994 47.1186 43.9444 46.99 44.4598C46.8613 44.9752 46.939 45.5203 47.2064 45.9794L43.0186 50.1472C42.7617 50.4061 42.6167 50.7554 42.6148 51.1199V57.676H43.7785V51.6577C43.7911 51.3613 43.9123 51.0799 44.119 50.8669L47.9981 46.9126C48.3236 47.0813 48.6843 47.1707 49.051 47.1736C49.4828 47.1856 49.908 47.0655 50.2698 46.8295C50.6315 46.5935 50.9124 46.2528 51.0751 45.853C51.2378 45.4532 51.2744 45.0133 51.1801 44.5921C51.0857 44.171 50.8649 43.7886 50.5472 43.4962V43.5199ZM38.7911 34.0061C38.311 33.9995 37.8431 34.1576 37.4656 34.4541C37.0881 34.7506 36.8239 35.1675 36.717 35.6352C36.6046 36.0966 36.655 36.5826 36.8595 37.0113C36.9746 37.2845 37.1543 37.5258 37.3832 37.7144C37.612 37.9031 37.8833 38.0336 38.1736 38.0947V57.676H39.377L39.3294 38.1896C40.5328 37.6439 41.0711 36.7661 40.8573 35.7222C40.7628 35.2425 40.5057 34.81 40.1294 34.4975C39.7531 34.1849 39.2805 34.0114 38.7911 34.0061ZM32.4579 39.6685C32.8141 38.2924 32.545 37.3988 31.5633 36.8531C31.251 36.6721 30.8953 36.5791 30.5342 36.5842C30.2386 36.5796 29.9453 36.6362 29.6728 36.7505C29.4003 36.8649 29.1544 37.0344 28.9509 37.2485C28.6351 37.6007 28.4433 38.0463 28.4048 38.5175C28.3662 38.9887 28.4829 39.4596 28.7371 39.8583C28.9876 40.2575 29.372 40.5546 29.8217 40.6966C30.0424 40.7775 30.2753 40.8203 30.5104 40.8231C30.8755 40.8351 31.2335 40.7205 31.5237 40.4989L33.4237 42.3811C33.6428 42.6051 33.7651 42.9062 33.7641 43.2194V46.9443H34.912V42.6421C34.9094 42.2815 34.7676 41.9359 34.5162 41.6773L32.4579 39.6685ZM43.7865 43.2036C43.7867 42.8891 43.912 42.5875 44.1348 42.3653L45.916 40.5147C46.2627 40.7147 46.6556 40.821 47.056 40.8231C47.6166 40.8231 48.1542 40.6007 48.5506 40.2047C48.947 39.8087 49.1697 39.2716 49.1697 38.7116C49.1697 38.1516 48.947 37.6145 48.5506 37.2185C48.1542 36.8225 47.6166 36.6 47.056 36.6C46.7261 36.5961 46.4001 36.6721 46.106 36.8215C45.6726 37.033 45.3257 37.3879 45.1244 37.8258C44.9767 38.1021 44.8995 38.4103 44.8995 38.7234C44.8995 39.0366 44.9767 39.3448 45.1244 39.6211L42.9948 41.7247C42.7454 41.9898 42.6091 42.3416 42.6148 42.7053V46.9522H43.7706L43.7865 43.2036ZM50.563 43.5199C50.3667 43.3209 50.1324 43.163 49.8741 43.0557C49.6158 42.9484 49.3386 42.8938 49.0589 42.8952C48.6531 42.8918 48.2549 43.0043 47.911 43.2194C47.4591 43.4994 47.1344 43.9444 47.0058 44.4598C46.8772 44.9752 46.9548 45.5203 47.2222 45.9794L43.0344 50.1472C42.7775 50.4061 42.6325 50.7554 42.6306 51.1199V57.676H43.7785V51.6577C43.7911 51.3613 43.9123 51.0799 44.119 50.8669L47.9981 46.9126C48.3236 47.0813 48.6843 47.1707 49.051 47.1736C49.4828 47.1856 49.908 47.0655 50.2698 46.8295C50.6315 46.5935 50.9124 46.2528 51.0751 45.853C51.2378 45.4532 51.2744 45.0133 51.1801 44.5921C51.0857 44.171 50.8649 43.7886 50.5472 43.4962L50.563 43.5199ZM38.7911 34.0061C38.311 33.9995 37.8431 34.1576 37.4656 34.4541C37.0881 34.7506 36.8239 35.1675 36.717 35.6352C36.6046 36.0966 36.655 36.5826 36.8595 37.0113C36.9746 37.2845 37.1543 37.5258 37.3832 37.7144C37.612 37.9031 37.8833 38.0336 38.1736 38.0947V57.676H39.377L39.3294 38.1896C40.5328 37.6439 41.0711 36.7661 40.8573 35.7222C40.7628 35.2425 40.5057 34.81 40.1294 34.4975C39.7531 34.1849 39.2805 34.0114 38.7911 34.0061ZM32.4579 39.6685C32.8141 38.2924 32.545 37.3988 31.5633 36.8531C31.251 36.6721 30.8953 36.5791 30.5342 36.5842C30.2386 36.5796 29.9453 36.6362 29.6728 36.7505C29.4003 36.8649 29.1544 37.0344 28.9509 37.2485C28.6351 37.6007 28.4433 38.0463 28.4048 38.5175C28.3662 38.9887 28.4829 39.4596 28.7371 39.8583C28.9876 40.2575 29.372 40.5546 29.8217 40.6966C30.0424 40.7775 30.2753 40.8203 30.5104 40.8231C30.8755 40.8351 31.2335 40.7205 31.5237 40.4989L33.4237 42.3811C33.6428 42.6051 33.7651 42.9062 33.7641 43.2194V46.9443H34.912V42.6421C34.9094 42.2815 34.7676 41.9359 34.5162 41.6773L32.4579 39.6685ZM30.3679 45.9953C30.6223 45.5356 30.6967 44.9979 30.5768 44.4864C30.4569 43.975 30.1511 43.5263 29.7188 43.2273C29.3192 42.9432 28.8332 42.8068 28.344 42.8413C27.8548 42.8759 27.3929 43.0793 27.0373 43.4168C26.6817 43.7542 26.4547 44.2046 26.3951 44.6909C26.3355 45.1772 26.447 45.6691 26.7105 46.0823C26.8863 46.3801 27.1378 46.6262 27.4395 46.7956C27.7411 46.965 28.0823 47.0518 28.4284 47.0471C28.7882 47.0533 29.1442 46.9718 29.4654 46.8098L33.4237 50.7641C33.64 50.9899 33.7618 51.2898 33.7641 51.6024V57.6365H34.912V51.0646C34.9078 50.7044 34.7662 50.3593 34.5162 50.0997L30.3679 45.9953Z" fill="white"/>
<path id="Vector_33" d="M38.791 3.43262L3.27734 60.2944H74.2492L38.791 3.43262ZM8.01935 57.6767L38.791 8.39121L69.5071 57.6767H8.01935Z" fill="white"/>
</g>
</g>
</g>
<defs>
<linearGradient id="paint0_linear_981_192" x1="38.1261" y1="-7.4893" x2="38.8608" y2="72.5917" gradientUnits="userSpaceOnUse">
<stop stop-color="#16BCC8"/>
<stop offset="0.1" stop-color="#1AB6C4"/>
<stop offset="0.24" stop-color="#26A5BA"/>
<stop offset="0.4" stop-color="#3889AA"/>
<stop offset="0.54" stop-color="#4D6B98"/>
<stop offset="1" stop-color="#6D4882"/>
</linearGradient>
<clipPath id="clip0_981_192">
<rect width="214" height="85" fill="white"/>
</clipPath>
</defs>
</svg>
