<svg width="24" height="24" viewBox="0 0 24 24" fill="none" xmlns="http://www.w3.org/2000/svg">
<path d="M1.7416 23.9993C1.29575 23.9993 0.849903 23.8293 0.509942 23.4894C-0.169981 22.8094 -0.169981 21.7067 0.509942 21.026L21.0267 0.509942C21.7067 -0.169981 22.8094 -0.169981 23.4901 0.509942C24.17 1.18986 24.17 2.29265 23.4901 2.97327L2.97257 23.4894C2.63261 23.8293 2.18745 23.9993 1.7416 23.9993Z" fill="white"/>
<path d="M22.2577 24C21.8118 24 21.366 23.83 21.026 23.4901L0.509942 2.97327C-0.169981 2.29334 -0.169981 1.19056 0.509942 0.509942C1.18986 -0.169981 2.29265 -0.169981 2.97327 0.509942L23.4901 21.0267C24.17 21.7067 24.17 22.8094 23.4901 23.4901C23.1494 23.83 22.7035 24 22.2577 24Z" fill="white"/>
</svg>
