<svg width="177" height="70" viewBox="0 0 177 70" fill="none" xmlns="http://www.w3.org/2000/svg">
<g id="Logo Variation 2 SVG 1" clip-path="url(#clip0_131_3975)">
<g id="Layer 2">
<g id="Layer 1">
<path id="Vector" d="M73.2437 22.0195V31.7106H71.3252V22.0195H73.2437Z" fill="white"/>
<path id="Vector_2" d="M81.5201 22.0195V23.8627H77.3492V26.051H80.9636V27.8941H77.3492V31.6976H75.4307V22.0195H81.5201Z" fill="white"/>
<path id="Vector_3" d="M92.9265 22.0195V23.8627H90.5562V31.6781H88.6312V23.8627H86.3525V22.0195H92.9265Z" fill="white"/>
<path id="Vector_4" d="M102.65 31.7106H100.725V27.8029H96.3704V31.7106H94.4453V22.0195H96.3704V25.9272H100.725V22.0195H102.65V31.7106Z" fill="white"/>
<path id="Vector_5" d="M111.483 22.0195V23.8627H106.729V25.9272H110.913V27.7769H106.729V29.8675H111.64V31.7106H104.83V22.0195H111.483Z" fill="white"/>
<path id="Vector_6" d="M116.315 23.6612C115.967 23.6406 115.621 23.7295 115.326 23.9152C115.211 24.0019 115.119 24.1156 115.058 24.2463C114.998 24.377 114.97 24.5205 114.979 24.6642C114.988 24.8316 115.04 24.9941 115.129 25.1364C115.219 25.2787 115.343 25.3963 115.49 25.4783C115.916 25.7454 116.37 25.9639 116.845 26.1295C117.26 26.273 117.655 26.4654 118.024 26.7027C118.362 26.9291 118.64 27.2328 118.836 27.5884C119.068 28.0319 119.181 28.5279 119.163 29.0278C119.166 29.5177 119.03 29.9985 118.77 30.415C118.494 30.8557 118.096 31.2083 117.624 31.431C117.062 31.6939 116.445 31.8232 115.824 31.8087C115.236 31.8056 114.651 31.7178 114.089 31.5482C113.514 31.3772 112.972 31.1131 112.484 30.7667L113.336 29.2752C113.688 29.5319 114.076 29.7359 114.488 29.8809C114.86 30.0274 115.254 30.109 115.654 30.1219C116.024 30.1287 116.39 30.0389 116.714 29.8614C116.86 29.7789 116.98 29.6567 117.059 29.5091C117.138 29.3614 117.173 29.1944 117.16 29.0278C117.16 28.5263 116.688 28.0899 115.745 27.7252C115.27 27.5365 114.806 27.319 114.357 27.0739C113.973 26.8635 113.643 26.5669 113.395 26.2077C113.112 25.7865 112.97 25.2874 112.989 24.7814C112.977 24.4105 113.045 24.0414 113.189 23.6988C113.332 23.3562 113.547 23.0481 113.82 22.795C114.428 22.262 115.21 21.9679 116.02 21.9678C116.636 21.9516 117.25 22.033 117.84 22.2088C118.34 22.3777 118.815 22.6097 119.255 22.8992L118.515 24.3646C117.851 23.9527 117.095 23.711 116.315 23.6612Z" fill="white"/>
<path id="Vector_7" d="M127.361 22.0195V23.8627H122.634V25.9272H126.818V27.7769H122.634V29.8675H127.544V31.7106H120.708V22.0195H127.361Z" fill="white"/>
<path id="Vector_8" d="M135.094 22.0195V29.8349H139.678V31.6781H133.176V22.0195H135.094Z" fill="white"/>
<path id="Vector_9" d="M146.154 29.8159H142.926L142.127 31.7111H140.234L144.634 21.6357H144.739L149.133 31.7111H146.913L146.154 29.8159ZM145.499 28.2072L144.562 25.8495L143.58 28.2072H145.499Z" fill="white"/>
<path id="Vector_10" d="M159 22.02V32.1084H158.948L152.125 25.9798L152.171 31.7111H150.207V21.6357H150.285L157.095 27.8555L157.056 21.9939L159 22.02Z" fill="white"/>
<path id="Vector_11" d="M161.187 22.0195H164.101C165.171 21.9763 166.233 22.224 167.172 22.7359C167.934 23.1633 168.548 23.8104 168.933 24.592C169.3 25.3543 169.488 26.1894 169.483 27.0344C169.504 27.9002 169.277 28.7541 168.828 29.4962C168.403 30.1997 167.785 30.7688 167.047 31.1374C166.288 31.5245 165.445 31.7213 164.592 31.7106H161.2L161.187 22.0195ZM164.245 29.8349C165.104 29.8812 165.951 29.6098 166.622 29.0729C166.921 28.7925 167.154 28.4497 167.305 28.0691C167.455 27.6886 167.519 27.2796 167.493 26.8715C167.526 26.2222 167.357 25.5784 167.008 25.0284C166.729 24.6177 166.339 24.2947 165.882 24.0971C165.499 23.9316 165.088 23.8431 164.67 23.8365H163.106V29.8544L164.245 29.8349Z" fill="white"/>
<path id="Vector_12" d="M174.06 23.6612C173.714 23.6393 173.37 23.7283 173.078 23.9152C172.961 24.0004 172.867 24.1137 172.805 24.2446C172.743 24.3755 172.715 24.5198 172.725 24.6642C172.734 24.8317 172.786 24.9941 172.875 25.1364C172.964 25.2787 173.088 25.3963 173.235 25.4783C173.662 25.7441 174.116 25.9625 174.591 26.1296C175.005 26.273 175.401 26.4655 175.769 26.7027C176.109 26.9289 176.39 27.2326 176.588 27.5884C176.818 28.0326 176.928 28.5285 176.909 29.0278C176.911 29.5177 176.775 29.9985 176.516 30.415C176.242 30.8555 175.846 31.2082 175.376 31.431C174.811 31.6938 174.193 31.8231 173.569 31.8088C172.981 31.8056 172.397 31.7179 171.834 31.5482C171.261 31.3784 170.721 31.1143 170.236 30.7667L171.081 29.3078C171.433 29.5645 171.822 29.7685 172.233 29.9135C172.605 30.06 172.999 30.1415 173.399 30.1545C173.769 30.1613 174.135 30.0715 174.46 29.894C174.607 29.8118 174.727 29.6898 174.807 29.5423C174.887 29.3947 174.923 29.2276 174.911 29.0603C174.911 28.5589 174.44 28.1225 173.491 27.7578C173.015 27.5691 172.551 27.3516 172.102 27.1065C171.718 26.8961 171.389 26.5995 171.14 26.2403C170.86 25.8183 170.72 25.3193 170.741 24.814C170.722 24.4391 170.784 24.0647 170.925 23.7162C171.065 23.3677 171.279 23.0535 171.552 22.795C172.163 22.2621 172.947 21.9681 173.759 21.9679C174.373 21.9516 174.985 22.0329 175.573 22.2088C176.072 22.3777 176.547 22.6098 176.987 22.8992L176.26 24.3646C175.597 23.952 174.841 23.7102 174.06 23.6612Z" fill="white"/>
<path id="Vector_13" d="M77.4538 47.3221C76.8902 47.5296 76.2934 47.6333 75.6924 47.6282C74.7766 47.6474 73.8723 47.4225 73.0733 46.9769C72.3426 46.56 71.7455 45.9458 71.3512 45.2054C70.9498 44.4515 70.745 43.6096 70.7554 42.7566C70.7383 41.8529 70.9428 40.9588 71.3512 40.1514C71.7236 39.4092 72.3034 38.7896 73.0209 38.3669C73.7691 37.9253 74.6262 37.6998 75.496 37.7156C76.0526 37.7107 76.6067 37.7898 77.1395 37.9501C77.5987 38.0937 78.0385 38.2927 78.449 38.5428L77.683 40.3794C77.0752 39.8862 76.3194 39.6089 75.5353 39.5913C75.0422 39.5905 74.5597 39.7331 74.1471 40.0016C73.707 40.2725 73.3493 40.6575 73.1126 41.1153C72.8554 41.5941 72.7226 42.1291 72.7263 42.6719C72.7123 43.2398 72.8358 43.8027 73.0864 44.3131C73.3095 44.7707 73.6623 45.1533 74.1013 45.4138C74.5729 45.6835 75.1093 45.8208 75.6531 45.8111C76.1011 45.8216 76.5466 45.7419 76.9627 45.5766C77.2969 45.4548 77.6039 45.2689 77.8663 45.0295L78.6586 46.7424C78.2901 46.9974 77.8835 47.1931 77.4538 47.3221Z" fill="white"/>
<path id="Vector_14" d="M80.2956 40.2233C80.7355 39.4796 81.36 38.8607 82.1093 38.4258C82.8622 37.9809 83.7218 37.7461 84.5975 37.7461C85.4732 37.7461 86.3328 37.9809 87.0857 38.4258C87.8384 38.8721 88.4665 39.4991 88.9125 40.2494C89.3585 40.9975 89.5939 41.8512 89.5939 42.721C89.5939 43.5908 89.3585 44.4445 88.9125 45.1926C88.4629 45.9265 87.8346 46.5357 87.0857 46.9641C86.3294 47.3992 85.4711 47.6283 84.5975 47.6283C83.7238 47.6283 82.8656 47.3992 82.1093 46.9641C81.3601 46.5314 80.7372 45.9118 80.3021 45.1666C79.8647 44.4155 79.6343 43.5629 79.6343 42.695C79.6343 41.827 79.8647 40.9744 80.3021 40.2233H80.2956ZM82.0177 44.2418C82.2783 44.707 82.6578 45.0957 83.1177 45.3685C83.5848 45.6454 84.1192 45.7895 84.663 45.7853C85.19 45.7877 85.7071 45.6433 86.1559 45.3685C86.6027 45.0947 86.9686 44.7082 87.2166 44.2483C87.4746 43.7649 87.6095 43.2259 87.6095 42.6787C87.6095 42.1314 87.4746 41.5925 87.2166 41.1091C86.9634 40.6448 86.5905 40.2559 86.1362 39.9824C85.6781 39.7098 85.1542 39.5659 84.6204 39.5659C84.0866 39.5659 83.5627 39.7098 83.1046 39.9824C82.6519 40.2579 82.2795 40.6463 82.0242 41.1091C81.7568 41.5915 81.6192 42.1344 81.6248 42.6852C81.6167 43.2293 81.7522 43.766 82.0177 44.2418Z" fill="white"/>
<path id="Vector_15" d="M93.1752 44.8219C93.3633 45.1055 93.6171 45.34 93.9151 45.5058C94.2171 45.6813 94.5607 45.7735 94.9104 45.7728C95.2769 45.7747 95.6377 45.6828 95.9581 45.5058C96.2628 45.3468 96.5202 45.111 96.7045 44.8219C96.8814 44.5623 96.9771 44.2564 96.9795 43.9427V37.8271H98.8718V43.9818C98.8798 44.6447 98.6957 45.2959 98.3415 45.8575C97.9909 46.4128 97.4952 46.863 96.9075 47.16C96.2899 47.4753 95.6045 47.6362 94.9104 47.629C94.2271 47.633 93.5531 47.4721 92.9461 47.16C92.3602 46.8629 91.8667 46.4126 91.5187 45.8575C91.1694 45.294 90.9878 44.6437 90.9948 43.9818V37.8271H92.9199V43.9427C92.9165 44.2543 93.0053 44.5601 93.1752 44.8219Z" fill="white"/>
<path id="Vector_16" d="M102.8 37.8271V45.6426H107.384V47.5443H100.836V37.8271H102.8Z" fill="white"/>
<path id="Vector_17" d="M109.015 37.8266H111.928C113 37.7858 114.063 38.0333 115.006 38.543C115.759 38.9716 116.369 39.6101 116.761 40.3796C117.128 41.144 117.316 41.9813 117.311 42.8285C117.329 43.694 117.103 44.5472 116.656 45.2903C116.222 45.9897 115.604 46.5573 114.868 46.9315C114.108 47.3148 113.266 47.5113 112.413 47.5047H109.021L109.015 37.8266ZM112.079 45.642C112.929 45.7045 113.773 45.4542 114.449 44.9386C114.749 44.6582 114.982 44.3155 115.132 43.9349C115.283 43.5543 115.347 43.1454 115.32 42.7373C115.356 42.0877 115.186 41.4432 114.836 40.8941C114.561 40.4796 114.172 40.152 113.716 39.9498C113.331 39.783 112.918 39.6923 112.498 39.6828H110.94V45.7006L112.079 45.642Z" fill="white"/>
<path id="Vector_18" d="M128.775 37.8271V39.6703H126.405V47.5443H124.487V39.6703H122.208V37.8271H128.775Z" fill="white"/>
<path id="Vector_19" d="M134.328 45.6225H131.093L130.301 47.5438H128.409L132.802 37.4619H132.92L137.307 47.5438H135.081L134.328 45.6225ZM133.673 44.0203L132.75 41.6822L131.774 44.0399L133.673 44.0203Z" fill="white"/>
<path id="Vector_20" d="M140.313 37.8271V45.6426H144.896V47.5443H138.395V37.8271H140.313Z" fill="white"/>
<path id="Vector_21" d="M148.445 41.7674L148.739 41.3962L151.908 37.8271H154.397L150.376 42.1712L154.416 47.5443H151.98L148.975 43.4087L148.497 43.8776V47.5443H146.533V37.8271H148.497V41.279L148.445 41.7674Z" fill="white"/>
<path id="Vector_22" d="M32.0646 0L0 51.1518H64.1226L32.0646 0Z" fill="url(#paint0_linear_131_3975)"/>
<path id="Vector_23" d="M6.72479 64.2752C6.5876 64.2822 6.45327 64.2346 6.35135 64.143C6.30089 64.0976 6.2599 64.0428 6.23073 63.9817C6.20155 63.9206 6.18477 63.8544 6.18133 63.7868C6.17789 63.7192 6.18786 63.6516 6.21068 63.5879C6.2335 63.5242 6.26871 63.4655 6.31431 63.4153C6.40641 63.314 6.53522 63.2531 6.67241 63.2462C11.0742 62.8364 15.3764 61.6984 19.4013 59.8791C22.0597 58.6351 25.6938 56.9353 27.3373 53.8482C28.1681 52.3174 28.3879 50.5312 27.9527 48.8463C27.9364 48.7805 27.9333 48.7121 27.9435 48.645C27.9538 48.5779 27.9772 48.5135 28.0124 48.4555C28.0837 48.3382 28.1988 48.2539 28.3325 48.2211C28.3987 48.2048 28.4675 48.2017 28.5349 48.2119C28.6024 48.2221 28.6671 48.2454 28.7255 48.2805C28.8433 48.3513 28.9281 48.4658 28.9611 48.5988C29.4454 50.5306 29.1935 52.5722 28.2539 54.3301C26.4533 57.7233 22.6359 59.5404 19.8466 60.843C15.7175 62.7145 11.3018 63.8835 6.78372 64.3013L6.72479 64.2752Z" fill="#D3C53F"/>
<path id="Vector_24" d="M13.7504 67.3163H13.7046C13.6368 67.3114 13.5708 67.2931 13.5102 67.2625C13.4497 67.2319 13.3959 67.1896 13.352 67.138C13.3081 67.0865 13.275 67.0267 13.2545 66.9623C13.2341 66.8979 13.2269 66.83 13.2331 66.7628C13.4409 65.2944 14.0495 63.9108 14.9926 62.7625C15.9358 61.6143 17.1775 60.7452 18.5827 60.2499C18.7087 60.205 18.8474 60.2104 18.9695 60.265C19.0916 60.3197 19.1877 60.4193 19.2375 60.543C19.2814 60.6676 19.2761 60.8043 19.2226 60.9252C19.1691 61.0461 19.0714 61.1423 18.9494 61.1943C17.7273 61.6185 16.6446 62.3659 15.8174 63.3562C14.9903 64.3465 14.45 65.5422 14.2546 66.8149C14.2513 66.9468 14.1971 67.0725 14.1033 67.1658C14.0094 67.2591 13.8831 67.313 13.7504 67.3163Z" fill="#D3C53F"/>
<path id="Vector_25" d="M33.5838 69.9999C33.4623 70.0001 33.3444 69.9587 33.2499 69.8827C33.1648 69.8111 24.9538 62.8293 27.7497 52.9493C27.7671 52.8831 27.7975 52.8209 27.8394 52.7665C27.8812 52.7121 27.9335 52.6665 27.9932 52.6325C28.0529 52.5985 28.1189 52.5766 28.1872 52.5683C28.2556 52.5599 28.3249 52.5652 28.3911 52.5839C28.4574 52.6025 28.5192 52.6341 28.573 52.6768C28.6268 52.7196 28.6715 52.7725 28.7045 52.8326C28.7374 52.8928 28.758 52.9588 28.7649 53.027C28.7719 53.0951 28.7651 53.1639 28.745 53.2294C26.1259 62.4776 33.8392 69.0426 33.9178 69.1077C34.0229 69.1963 34.0888 69.3225 34.1011 69.459C34.1133 69.5956 34.071 69.7314 33.9832 69.8371C33.9326 69.8916 33.8707 69.9344 33.8017 69.9626C33.7327 69.9907 33.6583 70.0035 33.5838 69.9999Z" fill="#D3C53F"/>
<path id="Vector_26" d="M17.2339 68.2476C17.1405 68.2481 17.0489 68.2228 16.9691 68.1745C16.8893 68.1262 16.8246 68.0568 16.7821 67.9741C16.7502 67.9129 16.731 67.8458 16.726 67.777C16.7209 67.7082 16.73 67.639 16.7527 67.5738C16.7753 67.5086 16.8111 67.4487 16.8578 67.3977C16.9046 67.3467 16.9612 67.3057 17.0244 67.2772C32.582 58.9603 31.3575 48.898 31.3379 48.7938C31.3179 48.6582 31.3529 48.5202 31.4352 48.4103C31.5175 48.3004 31.6403 48.2275 31.7766 48.2076C31.9129 48.1877 32.0516 48.2226 32.1621 48.3044C32.2726 48.3862 32.3459 48.5084 32.3659 48.644C32.4314 49.0868 33.7606 59.5009 17.4828 68.1825C17.4071 68.2258 17.3212 68.2483 17.2339 68.2476Z" fill="#D3C53F"/>
<path id="Vector_27" d="M47.0852 68.0792C46.993 68.0799 46.9023 68.0551 46.8233 68.0075C29.9497 58.1015 31.4753 49.1789 31.5539 48.8012C31.5844 48.6717 31.6642 48.5591 31.7764 48.4869C31.8886 48.4146 32.0245 48.3884 32.1557 48.4137C32.2869 48.4389 32.4032 48.5137 32.4802 48.6224C32.5572 48.731 32.589 48.8651 32.5688 48.9965C32.5688 49.0812 31.1806 57.626 47.3537 67.1218C47.4703 67.1922 47.5547 67.3051 47.589 67.4364C47.6232 67.5678 47.6046 67.7073 47.537 67.8252C47.4909 67.9033 47.4248 67.968 47.3455 68.0126C47.2661 68.0572 47.1764 68.0802 47.0852 68.0792Z" fill="#D3C53F"/>
<path id="Vector_28" d="M25.5364 69.6349C25.4231 69.6346 25.3131 69.5973 25.2231 69.5288C25.1332 69.4603 25.0684 69.3642 25.0387 69.2555C25.0089 69.1468 25.0159 69.0313 25.0585 68.9269C25.1011 68.8225 25.177 68.7349 25.2745 68.6775C38.0296 61.2203 35.476 50.0248 35.3581 49.5493C35.3422 49.4835 35.3395 49.4151 35.3501 49.3482C35.3608 49.2813 35.3845 49.2172 35.4201 49.1594C35.4557 49.1017 35.5023 49.0515 35.5574 49.0116C35.6125 48.9718 35.6749 48.9432 35.7411 48.9274C35.8073 48.9115 35.876 48.9088 35.9433 48.9194C36.0106 48.93 36.0751 48.9537 36.1331 48.989C36.1912 49.0244 36.2417 49.0708 36.2817 49.1256C36.3218 49.1804 36.3505 49.2425 36.3665 49.3084C36.3992 49.4321 39.2344 61.7349 25.7656 69.5698C25.6953 69.609 25.6168 69.6313 25.5364 69.6349Z" fill="#D3C53F"/>
<path id="Vector_29" d="M57.398 64.1066H57.326C56.4944 63.9959 36.9689 61.3908 35.6266 51.7713C35.6084 51.634 35.6457 51.4951 35.7304 51.3852C35.8152 51.2752 35.9403 51.2033 36.0784 51.1852C36.2164 51.167 36.3561 51.2042 36.4666 51.2885C36.5771 51.3727 36.6495 51.4972 36.6677 51.6345C37.8987 60.4725 57.2801 63.0581 57.47 63.0776C57.607 63.0955 57.7312 63.1664 57.8158 63.275C57.9005 63.3835 57.9385 63.5209 57.9218 63.6573C57.9057 63.7833 57.8433 63.8989 57.7466 63.9818C57.6498 64.0648 57.5257 64.1093 57.398 64.1066Z" fill="#D3C53F"/>
<path id="Vector_30" d="M50.0318 67.1216H49.9925C49.8558 67.1099 49.7292 67.0454 49.6398 66.9419C49.5504 66.8384 49.5054 66.7041 49.5145 66.568C49.5145 66.4051 49.6717 63.038 44.0864 60.4459C43.9618 60.3865 43.8655 60.2812 43.8178 60.1523C43.7701 60.0234 43.7748 59.881 43.831 59.7555C43.8598 59.6936 43.9007 59.638 43.9514 59.5919C44.002 59.5458 44.0613 59.5102 44.1259 59.4872C44.1905 59.4642 44.2591 59.4542 44.3276 59.4577C44.3961 59.4613 44.4633 59.4784 44.5251 59.5081C50.8241 62.4323 50.5622 66.4768 50.5491 66.6722C50.533 66.7971 50.4715 66.9118 50.3762 66.9946C50.2809 67.0774 50.1584 67.1226 50.0318 67.1216Z" fill="#D3C53F"/>
<path id="Vector_31" d="M39.1688 69.6352C39.0695 69.6355 38.972 69.6085 38.8872 69.557C38.7714 69.4823 38.6899 69.3651 38.6605 69.231C38.6311 69.0968 38.6561 68.9565 38.7301 68.8406C38.8218 68.7038 40.773 65.5386 37.5973 61.1424C37.5483 61.0327 37.5394 60.9093 37.5722 60.7937C37.605 60.6781 37.6774 60.5775 37.777 60.5095C37.8765 60.4414 37.9968 60.4102 38.1171 60.4211C38.2373 60.432 38.35 60.4844 38.4354 60.5693C42.0498 65.5581 39.7057 69.2705 39.6075 69.4268C39.5571 69.4946 39.4908 69.5491 39.4143 69.5854C39.3378 69.6218 39.2535 69.6389 39.1688 69.6352Z" fill="#D3C53F"/>
<path id="Vector_32" d="M40.2492 30.7925C40.0866 30.5885 39.8795 30.4238 39.6436 30.311C39.4077 30.1982 39.1491 30.1402 38.8873 30.1413C38.6144 30.138 38.3448 30.2006 38.1016 30.3236C37.7553 30.5038 37.4806 30.7954 37.3224 31.1507C37.2003 31.3782 37.1364 31.6321 37.1364 31.89C37.1364 32.1478 37.2003 32.4017 37.3224 32.6292L35.561 34.3616C35.3547 34.5799 35.242 34.8696 35.2467 35.1692V38.6666H36.2027V35.5795C36.2029 35.3205 36.3066 35.0722 36.4908 34.8891L37.9772 33.3651C38.2639 33.5298 38.5889 33.6174 38.92 33.6191C39.2493 33.6187 39.5718 33.5258 39.8503 33.3511C40.1289 33.1765 40.3521 32.9271 40.4944 32.6317C40.6368 32.3364 40.6923 32.0071 40.6547 31.6817C40.6171 31.3563 40.4879 31.0481 40.282 30.7925H40.2492ZM28.5549 34.3225L26.8459 32.6682C27.1406 31.535 26.9179 30.7991 26.106 30.3497C25.8476 30.2006 25.5534 30.1241 25.2548 30.1282C25.0103 30.1244 24.7677 30.171 24.5423 30.2652C24.3169 30.3594 24.1136 30.499 23.9452 30.6753C23.6841 30.9653 23.5255 31.3323 23.4935 31.7204C23.4616 32.1084 23.5582 32.4962 23.7684 32.8245C23.9756 33.1533 24.2936 33.398 24.6655 33.5149C24.8481 33.5815 25.0407 33.6167 25.2351 33.6191C25.5371 33.6289 25.8332 33.5346 26.0733 33.3521L27.6447 34.9021C27.826 35.0866 27.9271 35.3346 27.9263 35.5925V38.6601H28.8757V35.1171C28.8753 34.8211 28.7604 34.5366 28.5549 34.3225ZM36.2027 35.5795C36.2029 35.3205 36.3066 35.0722 36.4908 34.8891L37.9772 33.3651C38.2639 33.5298 38.5889 33.6174 38.92 33.6191C39.3837 33.6191 39.8284 33.4359 40.1562 33.1098C40.4841 32.7837 40.6683 32.3414 40.6683 31.8802C40.6683 31.419 40.4841 30.9767 40.1562 30.6506C39.8284 30.3245 39.3837 30.1413 38.92 30.1413C38.6472 30.138 38.3776 30.2006 38.1343 30.3236C37.7758 30.4979 37.4889 30.7901 37.3224 31.1507C37.2003 31.3782 37.1364 31.6321 37.1364 31.89C37.1364 32.1478 37.2003 32.4017 37.3224 32.6292L35.561 34.3616C35.3547 34.5799 35.242 34.8696 35.2467 35.1692V38.6666H36.2027V35.5795ZM41.8076 35.84C41.6452 35.6761 41.4515 35.5461 41.2378 35.4577C41.0242 35.3694 40.7949 35.3244 40.5635 35.3255C40.2279 35.3227 39.8985 35.4153 39.6141 35.5925C39.2404 35.8231 38.9718 36.1895 38.8654 36.614C38.759 37.0384 38.8233 37.4874 39.0444 37.8655L35.5807 41.2978C35.3682 41.511 35.2483 41.7986 35.2467 42.0988V47.498H36.2092V42.5417C36.2197 42.2976 36.3199 42.0658 36.4908 41.8904L39.6992 38.634C39.9684 38.7729 40.2668 38.8465 40.5701 38.8489C40.9273 38.8588 41.279 38.7599 41.5781 38.5655C41.8773 38.3712 42.1097 38.0906 42.2443 37.7614C42.3788 37.4321 42.4091 37.0698 42.3311 36.723C42.253 36.3762 42.0704 36.0613 41.8076 35.8205V35.84ZM32.0841 28.005C31.687 27.9996 31.3 28.1299 30.9878 28.374C30.6756 28.6182 30.457 28.9615 30.3686 29.3467C30.2757 29.7267 30.3173 30.1269 30.4865 30.4799C30.5817 30.7049 30.7303 30.9036 30.9196 31.059C31.1089 31.2144 31.3332 31.3219 31.5734 31.3722V47.498H32.5687L32.5294 31.4503C33.5247 31.001 33.9699 30.278 33.7931 29.4183C33.7149 29.0233 33.5023 28.6671 33.191 28.4097C32.8798 28.1523 32.4889 28.0094 32.0841 28.005ZM26.8459 32.6682C27.1406 31.535 26.9179 30.7991 26.106 30.3497C25.8476 30.2006 25.5534 30.1241 25.2548 30.1282C25.0103 30.1244 24.7677 30.171 24.5423 30.2652C24.3169 30.3594 24.1136 30.499 23.9452 30.6753C23.6841 30.9653 23.5255 31.3323 23.4935 31.7204C23.4616 32.1084 23.5582 32.4962 23.7684 32.8245C23.9756 33.1533 24.2936 33.398 24.6655 33.5149C24.8481 33.5815 25.0407 33.6167 25.2351 33.6191C25.5371 33.6289 25.8332 33.5346 26.0733 33.3521L27.6447 34.9021C27.826 35.0866 27.9271 35.3346 27.9263 35.5925V38.6601H28.8757V35.1171C28.8735 34.8202 28.7563 34.5355 28.5483 34.3225L26.8459 32.6682ZM36.2158 35.5795C36.216 35.3205 36.3197 35.0722 36.5039 34.8891L37.9772 33.3651C38.2639 33.5298 38.5889 33.6174 38.92 33.6191C39.3837 33.6191 39.8284 33.4359 40.1562 33.1098C40.4841 32.7837 40.6683 32.3414 40.6683 31.8802C40.6683 31.419 40.4841 30.9767 40.1562 30.6506C39.8284 30.3245 39.3837 30.1413 38.92 30.1413C38.6472 30.138 38.3776 30.2006 38.1343 30.3236C37.7758 30.4979 37.4889 30.7901 37.3224 31.1507C37.2003 31.3782 37.1364 31.6321 37.1364 31.89C37.1364 32.1478 37.2003 32.4017 37.3224 32.6292L35.561 34.3616C35.3547 34.5799 35.242 34.8696 35.2467 35.1692V38.6666H36.2027L36.2158 35.5795ZM41.8207 35.84C41.6583 35.6761 41.4646 35.5461 41.2509 35.4577C41.0373 35.3694 40.808 35.3244 40.5766 35.3255C40.241 35.3227 39.9116 35.4153 39.6272 35.5925C39.2535 35.8231 38.9849 36.1895 38.8785 36.614C38.7721 37.0384 38.8364 37.4874 39.0575 37.8655L35.5938 41.2978C35.3813 41.511 35.2614 41.7986 35.2598 42.0988V47.498H36.2092V42.5417C36.2197 42.2976 36.3199 42.0658 36.4908 41.8904L39.6992 38.634C39.9684 38.7729 40.2668 38.8465 40.5701 38.8489C40.9273 38.8588 41.279 38.7599 41.5781 38.5655C41.8773 38.3712 42.1097 38.0906 42.2443 37.7614C42.3788 37.4321 42.4091 37.0698 42.3311 36.723C42.253 36.3762 42.0704 36.0613 41.8076 35.8205L41.8207 35.84ZM32.0841 28.005C31.687 27.9996 31.3 28.1299 30.9878 28.374C30.6756 28.6182 30.457 28.9615 30.3686 29.3467C30.2757 29.7267 30.3173 30.1269 30.4865 30.4799C30.5817 30.7049 30.7303 30.9036 30.9196 31.059C31.1089 31.2144 31.3332 31.3219 31.5734 31.3722V47.498H32.5687L32.5294 31.4503C33.5247 31.001 33.9699 30.278 33.7931 29.4183C33.7149 29.0233 33.5023 28.6671 33.191 28.4097C32.8798 28.1523 32.4889 28.0094 32.0841 28.005ZM26.8459 32.6682C27.1406 31.535 26.9179 30.7991 26.106 30.3497C25.8476 30.2006 25.5534 30.1241 25.2548 30.1282C25.0103 30.1244 24.7677 30.171 24.5423 30.2652C24.3169 30.3594 24.1136 30.499 23.9452 30.6753C23.6841 30.9653 23.5255 31.3323 23.4935 31.7204C23.4616 32.1084 23.5582 32.4962 23.7684 32.8245C23.9756 33.1533 24.2936 33.398 24.6655 33.5149C24.8481 33.5815 25.0407 33.6167 25.2351 33.6191C25.5371 33.6289 25.8332 33.5346 26.0733 33.3521L27.6447 34.9021C27.826 35.0866 27.9271 35.3346 27.9263 35.5925V38.6601H28.8757V35.1171C28.8735 34.8202 28.7563 34.5355 28.5483 34.3225L26.8459 32.6682ZM25.1173 37.8785C25.3277 37.4999 25.3892 37.0571 25.29 36.6359C25.1908 36.2148 24.9379 35.8452 24.5804 35.599C24.2499 35.3651 23.8479 35.2527 23.4433 35.2812C23.0387 35.3096 22.6566 35.4771 22.3625 35.755C22.0684 36.0329 21.8806 36.4039 21.8313 36.8043C21.782 37.2048 21.8742 37.6099 22.0922 37.9502C22.2376 38.1954 22.4456 38.3981 22.6951 38.5376C22.9447 38.6772 23.2268 38.7486 23.5131 38.7447C23.8107 38.7498 24.1051 38.6828 24.3708 38.5493L27.6447 41.8058C27.8236 41.9918 27.9244 42.2387 27.9263 42.4961V47.4654H28.8757V42.0532C28.8722 41.7566 28.7551 41.4724 28.5483 41.2587L25.1173 37.8785Z" fill="white"/>
<path id="Vector_33" d="M32.0843 2.82715L2.71094 49.6545H61.4119L32.0843 2.82715ZM6.63307 47.4987L32.0843 6.9107L57.4898 47.4987H6.63307Z" fill="white"/>
</g>
</g>
</g>
<defs>
<linearGradient id="paint0_linear_131_3975" x1="31.5342" y1="-6.16766" x2="32.1366" y2="59.7814" gradientUnits="userSpaceOnUse">
<stop stop-color="#16BCC8"/>
<stop offset="0.1" stop-color="#1AB6C4"/>
<stop offset="0.24" stop-color="#26A5BA"/>
<stop offset="0.4" stop-color="#3889AA"/>
<stop offset="0.54" stop-color="#4D6B98"/>
<stop offset="1" stop-color="#6D4882"/>
</linearGradient>
<clipPath id="clip0_131_3975">
<rect width="177" height="70" fill="white"/>
</clipPath>
</defs>
</svg>
