<svg width="32" height="32" viewBox="0 0 32 32" fill="none" xmlns="http://www.w3.org/2000/svg">
<g id="mdi:instagram">
<path id="Vector" d="M10.3998 2.66699H21.5998C25.8665 2.66699 29.3332 6.13366 29.3332 10.4003V21.6003C29.3332 23.6513 28.5184 25.6183 27.0681 27.0686C25.6178 28.5189 23.6508 29.3337 21.5998 29.3337H10.3998C6.13317 29.3337 2.6665 25.867 2.6665 21.6003V10.4003C2.6665 8.34932 3.48126 6.38231 4.93154 4.93203C6.38183 3.48175 8.34883 2.66699 10.3998 2.66699ZM10.1332 5.33366C8.86013 5.33366 7.63923 5.83937 6.73906 6.73955C5.83888 7.63972 5.33317 8.86062 5.33317 10.1337V21.867C5.33317 24.5203 7.47984 26.667 10.1332 26.667H21.8665C23.1395 26.667 24.3604 26.1613 25.2606 25.2611C26.1608 24.3609 26.6665 23.14 26.6665 21.867V10.1337C26.6665 7.48033 24.5198 5.33366 21.8665 5.33366H10.1332ZM22.9998 7.33366C23.4419 7.33366 23.8658 7.50925 24.1783 7.82181C24.4909 8.13437 24.6665 8.5583 24.6665 9.00033C24.6665 9.44235 24.4909 9.86628 24.1783 10.1788C23.8658 10.4914 23.4419 10.667 22.9998 10.667C22.5578 10.667 22.1339 10.4914 21.8213 10.1788C21.5088 9.86628 21.3332 9.44235 21.3332 9.00033C21.3332 8.5583 21.5088 8.13437 21.8213 7.82181C22.1339 7.50925 22.5578 7.33366 22.9998 7.33366ZM15.9998 9.33366C17.7679 9.33366 19.4636 10.036 20.7139 11.2863C21.9641 12.5365 22.6665 14.2322 22.6665 16.0003C22.6665 17.7684 21.9641 19.4641 20.7139 20.7144C19.4636 21.9646 17.7679 22.667 15.9998 22.667C14.2317 22.667 12.536 21.9646 11.2858 20.7144C10.0355 19.4641 9.33317 17.7684 9.33317 16.0003C9.33317 14.2322 10.0355 12.5365 11.2858 11.2863C12.536 10.036 14.2317 9.33366 15.9998 9.33366ZM15.9998 12.0003C14.939 12.0003 13.9216 12.4218 13.1714 13.1719C12.4213 13.922 11.9998 14.9395 11.9998 16.0003C11.9998 17.0612 12.4213 18.0786 13.1714 18.8288C13.9216 19.5789 14.939 20.0003 15.9998 20.0003C17.0607 20.0003 18.0781 19.5789 18.8283 18.8288C19.5784 18.0786 19.9998 17.0612 19.9998 16.0003C19.9998 14.9395 19.5784 13.922 18.8283 13.1719C18.0781 12.4218 17.0607 12.0003 15.9998 12.0003Z" fill="white"/>
</g>
</svg>
