<svg width="50" height="50" viewBox="0 0 50 50" fill="none" xmlns="http://www.w3.org/2000/svg">
<g id="Group 72">
<rect id="Rectangle 46" x="0.5" y="0.5" width="49" height="49" rx="9.5" fill="white" stroke="#DBDBDB"/>
<g id="Group">
<path id="Vector" d="M17.1429 18C15.9533 18 15 19.0039 15 20.195V30.0833C15 31.2744 15.9533 32.2857 17.1429 32.2857H32.8571C34.0467 32.2857 35 31.2744 35 30.0833V20.195C35 19.0039 34.0467 18 32.8571 18H17.1429ZM17.247 19.4286H32.7604L25.4241 26.3929C25.1571 26.6464 24.8585 26.6466 24.5908 26.3929L17.247 19.4286ZM16.4286 20.619L21.2946 25.2321L16.4286 30.0833V20.619ZM33.5714 20.619V30.0833L28.7202 25.2247L33.5714 20.619ZM27.6935 26.2069L32.3289 30.8571H17.6786L22.3289 26.2143L23.6086 27.4271C24.3844 28.1624 25.6306 28.1636 26.4062 27.4271L27.6935 26.2069Z" fill="#007A80"/>
</g>
</g>
</svg>
