<svg width="50" height="50" viewBox="0 0 50 50" fill="none" xmlns="http://www.w3.org/2000/svg">
<rect x="0.5" y="0.5" width="49" height="49" rx="9.5" fill="white" stroke="#DBDBDB"/>
<path d="M20.1333 18.2697C20.133 18.7798 19.9302 19.2688 19.5693 19.6293C19.2085 19.9897 18.7193 20.1921 18.2092 20.1919C17.6992 20.1916 17.2102 19.9887 16.8497 19.6279C16.4892 19.2671 16.2869 18.7779 16.2871 18.2678C16.2874 17.7578 16.4902 17.2687 16.851 16.9083C17.2119 16.5478 17.7011 16.3454 18.2111 16.3457C18.7212 16.346 19.2102 16.5488 19.5707 16.9096C19.9312 17.2705 20.1335 17.7597 20.1333 18.2697ZM20.191 21.6159H16.3448V33.6544H20.191V21.6159ZM26.2679 21.6159H22.441V33.6544H26.2294V27.3371C26.2294 23.8178 30.816 23.4909 30.816 27.3371V33.6544H34.614V26.0294C34.614 20.0967 27.8256 20.3178 26.2294 23.2313L26.2679 21.6159Z" fill="#007A80"/>
</svg>
